<svg width="232" height="460" viewBox="0 0 232 460" fill="none" xmlns="http://www.w3.org/2000/svg">
<g opacity="0.6">
<g opacity="0.32">
<path d="M22.1234 103.344L27.4044 108.624C27.5227 108.75 27.5227 108.95 27.4044 109.083C27.2851 109.202 27.0711 109.202 26.9528 109.083L21.6644 103.803C21.5318 103.661 21.5318 103.463 21.6644 103.329C21.7836 103.211 21.99 103.211 22.1234 103.344Z" fill="#0163BE"/>
<path d="M30.0529 111.273L35.3329 116.554C35.4588 116.68 35.4588 116.879 35.3329 117.012C35.2145 117.138 35.0082 117.131 34.8747 116.998L29.5938 111.717C29.4679 111.591 29.4679 111.392 29.5938 111.266C29.7272 111.14 29.9194 111.147 30.0529 111.273Z" fill="#0163BE"/>
<path d="M37.9663 119.201L43.2614 124.482C43.3873 124.608 43.3873 124.807 43.269 124.94C43.1431 125.066 42.9433 125.066 42.8032 124.94L37.5223 119.644C37.3964 119.526 37.3964 119.319 37.5223 119.2C37.6558 119.076 37.8479 119.076 37.9663 119.201Z" fill="#0163BE"/>
<path d="M14.1873 95.4007L19.4759 100.704C19.5942 100.816 19.5942 101.022 19.4683 101.141C19.3424 101.267 19.1427 101.267 19.0243 101.156L13.7358 95.8607C13.6023 95.7273 13.6023 95.5351 13.7358 95.4016C13.8626 95.2824 14.0614 95.2748 14.1873 95.4007Z" fill="#0163BE"/>
<path d="M45.9099 127.123L51.1909 132.411C51.3244 132.552 51.3243 132.752 51.205 132.878C51.0725 132.996 50.8729 132.996 50.747 132.862L45.4517 127.581C45.3325 127.448 45.3325 127.248 45.4517 127.122C45.5842 127.005 45.7764 126.997 45.9099 127.123Z" fill="#0163BE"/>
<path d="M59.1203 140.799C58.9944 140.925 58.7947 140.918 58.6764 140.799L53.3878 135.504C53.2619 135.385 53.2619 135.193 53.3878 135.06C53.5137 134.934 53.7134 134.934 53.8318 135.053L59.1203 140.341C59.2528 140.474 59.2528 140.674 59.1203 140.799Z" fill="#0163BE"/>
<path d="M6.25119 87.4863L11.5463 92.7673C11.6647 92.8856 11.6798 93.0919 11.5463 93.2178C11.4204 93.3437 11.2207 93.3437 11.0882 93.2178L5.80725 87.9293C5.67379 87.7959 5.67379 87.6037 5.80725 87.4854C5.92557 87.3529 6.11772 87.3529 6.25119 87.4863Z" fill="#0163BE"/>
<path d="M61.7679 142.981L67.0479 148.285C67.1672 148.396 67.1814 148.595 67.0479 148.721C66.9296 148.847 66.7232 148.847 66.604 148.728L61.3154 143.439C61.1895 143.314 61.1895 143.114 61.3154 142.981C61.4347 142.855 61.6344 142.855 61.7679 142.981Z" fill="#0163BE"/>
<path d="M66.5092 125.758L67.1308 126.372L66.5241 126.986L65.9025 126.372L66.5092 125.758Z" fill="#0163BE"/>
<path d="M70.199 129.402L69.1493 130.459L69.7409 131.052L69.2525 131.539L68.6608 130.947L65.8211 133.78L65.3923 133.343L66.2206 128.506L66.7157 128.019L68.6012 129.912L69.6519 128.861L70.199 129.402ZM66.745 129.038L66.1458 132.375L68.1137 130.399L66.745 129.038Z" fill="#0163BE"/>
<path d="M72.8324 131.894C73.779 132.841 73.513 134.061 72.0335 135.555C70.5398 137.05 69.3188 137.315 68.3722 136.376C67.419 135.408 67.6925 134.187 69.1786 132.693C70.6723 131.212 71.8858 130.947 72.8324 131.894ZM68.5719 134.852C68.4384 135.282 68.5274 135.629 68.8085 135.917C69.3926 136.502 70.2881 136.191 71.4789 135C72.6697 133.809 72.9801 132.929 72.4036 132.338C71.8111 131.746 70.9241 132.057 69.7258 133.263C69.083 133.898 68.6902 134.437 68.5719 134.852Z" fill="#0163BE"/>
<path d="M173.65 167.603C173.532 167.477 173.532 167.278 173.65 167.152C173.784 167.019 173.976 167.019 174.102 167.152L180.825 173.868C180.944 173.986 180.944 174.186 180.825 174.312C180.692 174.445 180.492 174.43 180.374 174.312L173.65 167.603Z" fill="#0163BE"/>
<path d="M227.362 221.314L187.075 181.027C186.956 180.901 186.956 180.709 187.082 180.575C187.215 180.45 187.407 180.45 187.533 180.568L227.821 220.87C227.939 220.99 227.954 221.188 227.821 221.314C227.695 221.433 227.495 221.433 227.362 221.314Z" fill="#0163BE"/>
<path d="M66.2206 59.7214C66.3531 59.6031 66.5529 59.6031 66.6788 59.7214L106.959 100.009C107.092 100.135 107.099 100.342 106.974 100.468C106.84 100.594 106.641 100.586 106.515 100.46L66.2206 60.1654C66.1013 60.0471 66.1013 59.8464 66.2206 59.7214Z" fill="#0163BE"/>
<path d="M113.682 106.717L120.39 113.433C120.524 113.559 120.524 113.773 120.405 113.891C120.272 114.01 120.072 114.01 119.946 113.891L113.223 107.168C113.104 107.049 113.097 106.85 113.223 106.717C113.349 106.599 113.557 106.599 113.682 106.717Z" fill="#0163BE"/>
<path d="M79.0013 211.877C78.8821 211.759 78.8821 211.552 79.0013 211.426C79.1272 211.307 79.341 211.307 79.4594 211.426L84.8294 216.81C84.9477 216.922 84.9477 217.121 84.8294 217.247C84.6959 217.373 84.5038 217.373 84.3854 217.254L79.0013 211.877Z" fill="#0163BE"/>
<path d="M122.431 254.406L127.801 259.776C127.919 259.894 127.919 260.093 127.793 260.219C127.668 260.344 127.475 260.344 127.343 260.219L121.973 254.856C121.847 254.724 121.847 254.524 121.973 254.398C122.091 254.272 122.299 254.272 122.431 254.406Z" fill="#0163BE"/>
<path d="M133.163 265.145L133.867 265.839C133.993 265.965 133.993 266.173 133.867 266.291C133.748 266.424 133.534 266.417 133.415 266.291L132.72 265.595C132.588 265.462 132.588 265.263 132.706 265.137C132.839 265.012 133.038 265.012 133.163 265.145Z" fill="#0163BE"/>
<path d="M89.7402 222.165C89.8736 222.047 90.0658 222.047 90.1992 222.173L117.048 249.029C117.181 249.147 117.181 249.355 117.048 249.481C116.93 249.606 116.722 249.599 116.604 249.481L89.7553 222.625C89.6143 222.491 89.6143 222.29 89.7402 222.165Z" fill="#0163BE"/>
<path d="M215.95 10.0261C216.076 9.90025 216.276 9.90782 216.402 10.0337L243.264 36.8824C243.384 37.0007 243.384 37.208 243.264 37.3263C243.132 37.4598 242.925 37.4598 242.806 37.3263L215.958 10.4777C215.832 10.3508 215.824 10.1511 215.95 10.0261Z" fill="#0163BE"/>
<path d="M123.526 94.8015C123.652 94.9273 123.652 95.1346 123.526 95.253L118.149 100.63C118.03 100.756 117.823 100.756 117.697 100.63C117.565 100.505 117.565 100.297 117.697 100.179L123.067 94.8015C123.193 94.6756 123.394 94.6756 123.526 94.8015Z" fill="#0163BE"/>
<path d="M166.491 51.8221C166.617 51.9622 166.617 52.1771 166.499 52.2954L161.121 57.6654C161.003 57.7837 160.797 57.7837 160.663 57.6502C160.53 57.5243 160.545 57.3246 160.671 57.1987L166.033 51.8363C166.166 51.7038 166.358 51.7038 166.491 51.8221Z" fill="#0163BE"/>
<path d="M155.751 62.5686C155.885 62.6945 155.885 62.9018 155.751 63.0343L128.895 89.883C128.763 90.0165 128.571 90.0165 128.437 89.883C128.311 89.7571 128.311 89.5574 128.437 89.4249L155.301 62.5762C155.419 62.4503 155.619 62.4427 155.751 62.5686Z" fill="#0163BE"/>
<path d="M209.463 8.86463C209.597 8.9981 209.597 9.19783 209.463 9.32278L204.094 14.6927C203.968 14.8262 203.769 14.811 203.635 14.6851C203.509 14.5592 203.509 14.3671 203.635 14.2412L209.013 8.86369C209.138 8.74631 209.331 8.73117 209.463 8.86463Z" fill="#0163BE"/>
<path d="M198.724 19.6035C198.85 19.737 198.85 19.9434 198.724 20.0617L171.876 46.9179C171.743 47.0438 171.543 47.0363 171.417 46.9104C171.284 46.7769 171.284 46.5847 171.417 46.4664L198.265 19.6035C198.399 19.4852 198.591 19.471 198.724 19.6035Z" fill="#0163BE"/>
<path d="M159.997 142.929C159.871 142.803 159.864 142.597 159.989 142.478L165.359 137.094C165.485 136.975 165.692 136.975 165.811 137.101C165.929 137.212 165.944 137.419 165.811 137.538L160.441 142.922C160.315 143.04 160.115 143.04 159.997 142.929Z" fill="#0163BE"/>
<path d="M85.2439 218.119C85.118 218.245 84.9183 218.238 84.8 218.119C84.6665 217.994 84.6665 217.794 84.7849 217.66L111.649 190.805C111.782 190.687 111.974 190.687 112.108 190.813C112.226 190.931 112.226 191.131 112.093 191.257L85.2439 218.119Z" fill="#0163BE"/>
<path d="M74.5041 228.866C74.3706 228.992 74.1785 228.984 74.0602 228.866C73.9267 228.733 73.9267 228.534 74.0459 228.408L79.4149 223.038C79.5484 222.912 79.7406 222.912 79.8816 223.038C79.9924 223.164 80 223.363 79.8741 223.488L74.5041 228.866Z" fill="#0163BE"/>
<path d="M42.2703 261.084C42.152 261.217 41.9456 261.21 41.8273 261.091C41.6938 260.965 41.6938 260.766 41.8273 260.632L68.6827 233.777C68.801 233.651 69.0149 233.651 69.1332 233.777C69.2515 233.896 69.2515 234.11 69.1332 234.236L42.2703 261.084Z" fill="#0163BE"/>
<path d="M31.5314 271.831C31.4055 271.957 31.1982 271.957 31.0799 271.838C30.954 271.704 30.954 271.506 31.0799 271.38L36.4499 266.01C36.5758 265.884 36.7821 265.884 36.9013 266.01C37.0197 266.128 37.0197 266.335 36.9013 266.461L31.5314 271.831Z" fill="#0163BE"/>
<path d="M117.018 185.894C116.899 185.768 116.899 185.561 117.018 185.435L122.395 180.065C122.513 179.939 122.72 179.939 122.846 180.065C122.964 180.185 122.964 180.391 122.838 180.517L117.469 185.887C117.35 186.013 117.136 186.013 117.018 185.894Z" fill="#0163BE"/>
<path d="M4.05518 136.029L4.26907 136.235L8.29202 140.251L26.1909 158.164L63.2171 121.131L64.5849 119.763L63.2313 118.417L61.6344 116.834C61.5161 116.708 61.5161 116.508 61.6344 116.376C61.7679 116.257 61.9743 116.257 62.0926 116.376L63.6828 117.965L64.726 119.001V118.653C64.7108 118.476 64.8594 118.329 65.0364 118.343C65.1254 118.329 65.1992 118.372 65.2579 118.418C65.3166 118.491 65.3611 118.565 65.3611 118.654V119.002L66.3967 117.966L69.0366 115.326C69.1625 115.193 69.3699 115.193 69.4882 115.326C69.6216 115.444 69.6216 115.652 69.4882 115.784L66.8548 118.418L65.4946 119.779L66.8548 121.132C66.9807 121.258 66.9807 121.472 66.8548 121.598C66.7365 121.716 66.5226 121.716 66.3967 121.591L65.3611 120.547V120.895C65.3611 121.08 65.2201 121.228 65.0355 121.228C64.8585 121.228 64.725 121.08 64.725 120.895L64.7099 120.547L63.6819 121.591L62.121 123.151C62.9644 122.723 63.7113 122.775 64.3398 123.403C65.2864 124.35 65.0204 125.563 63.5267 127.049C62.0472 128.544 60.8195 128.817 59.8729 127.87C59.251 127.249 59.1923 126.495 59.6211 125.651L26.648 158.623L31.1008 163.09L36.0267 168.002C43.6599 165.051 51.2779 162.047 58.8808 158.993L69.3538 148.52L74.7237 143.15L79.9753 137.884L80.0936 137.773L80.5887 137.285C80.3076 136.811 80.3076 136.242 80.5887 135.79L79.9753 135.169C79.856 135.043 79.856 134.844 79.9753 134.718C80.0936 134.585 80.3075 134.585 80.4334 134.718L81.0402 135.332C81.5135 135.043 82.0757 135.043 82.5348 135.332L83.1483 134.718L85.4711 132.403L85.7882 132.078L112.326 105.548C112.446 105.414 112.652 105.414 112.778 105.548C112.904 105.674 112.904 105.873 112.785 105.999L86.2558 132.529L85.9226 132.861L83.6006 135.169L82.9939 135.79C83.275 136.242 83.275 136.818 82.9939 137.285L83.6006 137.892L85.19 139.481C85.3159 139.6 85.3159 139.806 85.19 139.925C85.0717 140.051 84.8577 140.051 84.7393 139.925L83.1567 138.343L82.5357 137.736C82.0766 138.01 81.5144 138.01 81.0411 137.736L80.5527 138.231L80.4344 138.343L75.1837 143.601L69.8138 148.971L60.4058 158.372C64.1476 156.863 67.8762 155.294 71.618 153.749L69.2515 151.367C69.119 151.234 69.119 151.041 69.2515 150.923C69.3708 150.797 69.563 150.782 69.6955 150.923L72.2626 153.49C84.7177 148.357 97.1215 143.091 109.458 137.647C109.466 137.647 109.458 137.647 109.466 137.64L111.322 136.811C118.6 133.587 125.848 130.326 133.074 127.012L126.655 120.606C126.528 120.473 126.528 120.28 126.655 120.147C126.781 120.021 126.972 120.021 127.105 120.147L133.681 126.73C139.148 124.231 144.583 121.685 150.012 119.127C150.041 119.068 150.085 119.023 150.145 118.994L151.551 118.402C173.547 107.973 195.292 97.0562 216.726 85.7333L239.345 63.1224L240.557 61.8947L241.977 60.4749L242.591 59.8681C242.303 59.4024 242.303 58.8325 242.591 58.3744L241.977 57.7601L240.394 56.1698C240.268 56.0515 240.268 55.8442 240.394 55.7259C240.528 55.5924 240.72 55.5924 240.838 55.7259L242.436 57.3086L243.042 57.9153C243.509 57.6342 244.078 57.6342 244.537 57.9153L245.151 57.3086L245.927 56.5248L247.842 54.6089L249.735 52.7158L245.734 48.7146C245.616 48.6038 245.601 48.389 245.734 48.2631L249.735 44.2695L248.175 42.701C248.056 42.5827 248.056 42.3678 248.175 42.2495C248.309 42.1312 248.507 42.1312 248.626 42.2495L250.187 43.8104L254.188 39.8092L257.361 36.6363L259.476 34.5283L291.206 2.79808L293.314 0.690054L294.009 0H294.919L294.003 0.921019L294.594 1.52777L296.125 0H297.028L295.053 1.97077L295.659 2.5851L298.241 0H299.144L296.111 3.03662L297.767 4.69312L299.639 2.81417L302.457 0H303.359L300.097 3.25811L297.996 5.37371L295.881 7.48931L294.727 8.62804L289.357 14.0055L283.979 19.3755L266.273 37.0897L264.157 39.2053L262.264 41.0918L266.044 44.8715L310.918 0H311.834L266.281 45.5502L263.115 48.7307L259.106 52.7394L259.373 53.0054L265.393 59.019C297.834 40.4794 329.674 20.7357 360.879 0H361.959C351.612 6.88256 341.258 13.7386 330.776 20.3874L333.624 24.8921C346.413 16.7818 359.06 8.44251 371.641 0H372.78C359.866 8.68294 346.886 17.2523 333.765 25.5651C333.742 25.5803 333.742 25.5945 333.72 25.602C333.713 25.602 333.72 25.6248 333.713 25.6248L331.176 27.2226C331.161 27.2377 331.146 27.2226 331.146 27.2226C312.308 39.1154 293.233 50.5869 273.988 61.6969C273.959 61.7187 273.959 61.7338 273.944 61.7489L271.333 63.2426C271.326 63.2426 271.311 63.2426 271.296 63.2426L270.231 63.8494L278.493 72.1187C317.559 49.6432 355.709 25.5282 392.883 0H394C356.626 25.7052 318.255 49.9802 278.965 72.591L286.229 79.8541C286.347 79.98 286.354 80.1797 286.229 80.3056C286.103 80.4315 285.903 80.4239 285.777 80.3056L278.396 72.9242C264.446 80.9351 250.408 88.7444 236.266 96.3482C236.237 96.4069 236.215 96.4523 236.17 96.4817H236.162L230.912 99.2921C230.896 99.2996 230.896 99.2996 230.896 99.2996C230.105 99.7284 229.314 100.135 228.515 100.557L229.786 102.961C229.815 103.005 229.794 103.05 229.801 103.094C229.801 103.138 229.823 103.183 229.815 103.198C229.801 103.213 229.786 103.227 229.786 103.235C229.779 103.256 229.757 103.271 229.75 103.279C229.727 103.33 229.706 103.376 229.661 103.397L197.496 120.046C197.466 120.061 197.437 120.046 197.422 120.061C197.281 120.09 197.141 120.046 197.053 119.906V119.898L195.825 117.457C195.115 117.798 194.419 118.168 193.709 118.508L194.937 120.963C194.937 120.971 194.937 120.971 194.937 120.971C194.951 121.007 194.945 121.052 194.945 121.096C194.945 121.133 194.966 121.17 194.951 121.208C194.937 121.23 194.914 121.244 194.892 121.259C194.878 121.318 194.849 121.37 194.788 121.393V121.399L161.269 137.76C161.262 137.768 161.254 137.76 161.254 137.76C161.24 137.76 161.254 137.768 161.24 137.775C161.21 137.789 161.166 137.76 161.136 137.775C161.077 137.768 161.047 137.775 161.002 137.76C160.98 137.76 160.958 137.723 160.928 137.694C160.899 137.672 160.862 137.657 160.839 137.612C160.825 137.612 160.839 137.605 160.839 137.605L160.825 137.597L159.774 135.083C159.065 135.43 158.355 135.764 157.63 136.104L158.621 138.478V138.486L158.635 138.501C158.65 138.53 158.635 138.56 158.635 138.598C158.635 138.649 158.65 138.687 158.635 138.738H158.621C158.621 138.76 158.59 138.782 158.576 138.796C158.547 138.819 158.539 138.841 158.517 138.856C158.496 138.871 158.488 138.901 158.473 138.915L158.459 138.908V138.915L149.864 142.917L154.745 147.791C154.865 147.761 154.982 147.747 155.086 147.85C155.16 147.931 155.16 148.049 155.115 148.16L167.393 160.431C167.519 160.557 167.519 160.756 167.393 160.89C167.26 161.015 167.068 161.015 166.934 160.89L154.708 148.648L128.215 175.141C128.081 175.275 127.882 175.275 127.763 175.156C127.637 175.023 127.637 174.817 127.763 174.691L154.257 148.204L149.242 143.197L126.491 153.767C126.425 153.781 126.379 153.781 126.321 153.774C126.291 153.767 126.276 153.781 126.247 153.767C126.203 153.751 126.173 153.714 126.144 153.678C126.114 153.655 126.085 153.641 126.062 153.604L124.96 151.156C124.103 151.548 123.245 151.925 122.394 152.31C98.7326 162.827 74.6214 172.871 50.3767 182.346L74.081 206.066C74.2069 206.184 74.2069 206.383 74.081 206.51C73.9551 206.628 73.7487 206.628 73.6304 206.51L49.7255 182.59C42.4189 185.453 35.1038 188.256 27.7811 191.008L26.8412 191.947L12.7002 206.089L12.0859 206.702C12.3671 207.161 12.3671 207.731 12.0859 208.197L12.7002 208.818C12.8185 208.929 12.8185 209.136 12.7002 209.261C12.5667 209.381 12.367 209.381 12.2411 209.261L11.6344 208.656C11.1611 208.937 10.5988 208.937 10.1407 208.656L9.52631 209.261L6.87122 211.909L0 218.781V217.878L6.42068 211.451L9.07486 208.811L9.68161 208.197C9.40048 207.731 9.40048 207.161 9.68161 206.702L9.07486 206.089L0 197.013V196.111L9.5188 205.629L10.1407 206.251C10.5988 205.955 11.1611 205.955 11.6344 206.251L12.2411 205.629L26.3243 191.555C23.1145 192.739 19.9036 193.929 16.6938 195.105C16.6786 195.105 16.6786 195.135 16.6645 195.142L13.2767 196.37C12.5222 196.636 11.783 196.91 11.0428 197.183C10.8724 197.249 10.6878 197.161 10.6282 196.999C10.6282 196.983 10.6282 196.983 10.6282 196.983L4.50385 180.12C4.48209 180.024 4.48965 179.942 4.51898 179.861C4.56253 179.787 4.62219 179.735 4.69601 179.706L10.3168 177.657C16.5746 175.379 22.9346 172.997 29.2511 170.586L21.9587 163.308L7.15894 178.115C7.03305 178.241 6.82675 178.241 6.70749 178.115C6.57498 177.989 6.57495 177.783 6.69327 177.657L21.5072 162.857L3.60928 144.944L0 141.342V139.633L3.37265 136.245L1.70862 134.589L0 136.297V135.394L1.25705 134.137L0 132.877V131.981L1.93106 133.916L4.05518 136.029ZM60.3036 127.412C60.8952 128.004 61.783 127.701 62.9728 126.502C64.1788 125.304 64.4751 124.416 63.8977 123.847C63.3061 123.27 62.4182 123.551 61.2284 124.757C60.5847 125.393 60.1994 125.941 60.0669 126.361C59.941 126.776 60.0224 127.138 60.3036 127.412ZM82.5368 136.82C82.6106 136.635 82.6106 136.428 82.5368 136.243L82.248 136.539L82.5368 136.82ZM82.0777 137.264L81.7964 136.989L81.5153 137.286C81.6923 137.36 81.9007 137.344 82.0777 137.264ZM81.7964 136.08L82.0852 135.791C81.893 135.717 81.6923 135.717 81.5002 135.791L81.7964 136.08ZM81.042 136.82L81.3384 136.539L81.042 136.243C80.9833 136.427 80.9833 136.628 81.042 136.82ZM11.162 208.18L10.8809 207.905L10.5923 208.194C10.7853 208.268 10.985 208.268 11.162 208.18ZM10.1416 207.158C10.0678 207.335 10.0678 207.55 10.1416 207.742L10.4294 207.447L10.1416 207.158ZM10.5923 206.699L10.8809 206.995L11.1772 206.699C10.985 206.626 10.7853 206.626 10.5923 206.699ZM11.34 207.447L11.6211 207.728C11.7025 207.55 11.7025 207.335 11.6353 207.158L11.34 207.447ZM30.1116 163.838V169.696L30.9615 170.547L30.9692 164.689L30.1116 163.838ZM31.414 172.75L30.5564 171.9V175.835C30.8517 175.724 31.1263 175.621 31.414 175.51V172.75ZM31.5987 165.325L31.6053 171.19L32.4486 172.04L32.4629 166.182L31.5987 165.325ZM32.9068 174.252L32.0492 173.394V175.272C32.3455 175.161 32.6266 175.05 32.9068 174.94V174.252ZM33.9575 167.676L33.0999 166.819V172.684L33.9575 173.542V167.676ZM35.4521 169.171L34.6012 168.32V174.178L34.9117 174.496L35.4512 173.956L35.4521 169.171ZM36.9458 170.665L36.0949 169.815V173.321L36.9458 172.471V170.665ZM36.9752 168.95L37.3897 169.371L37.3974 168.787C37.2563 168.846 37.1162 168.897 36.9752 168.95ZM37.5895 171.309V171.825L37.8488 171.574L37.5895 171.309ZM38.8911 168.202C38.6024 168.314 38.3212 168.423 38.041 168.543V170.007L38.7206 170.695L38.8911 170.518V168.202ZM40.3848 167.61C40.1036 167.729 39.8149 167.839 39.5272 167.95V169.88L40.3848 169.022V167.61ZM41.8794 167.033C41.5907 167.152 41.3096 167.254 41.0218 167.366L41.0293 168.386L41.8803 167.529L41.8794 167.033ZM42.523 166.782V166.894L42.7077 166.716C42.6414 166.73 42.5817 166.759 42.523 166.782ZM42.966 166.604C43.0399 166.604 43.1146 166.626 43.1733 166.693L43.3655 166.893L43.3797 166.449C43.232 166.493 43.1071 166.545 42.966 166.604ZM44.0167 166.19V167.53L44.8601 168.387L44.8754 165.858C44.5933 165.968 44.312 166.094 44.0167 166.19ZM46.369 165.273C46.0879 165.385 45.8068 165.495 45.5114 165.613V169.023L46.28 169.792C46.3027 169.77 46.3321 169.755 46.369 169.74V165.273ZM47.8626 164.682C47.5815 164.8 47.2862 164.911 47.0127 165.021L47.0052 169.489C47.3014 169.377 47.5825 169.26 47.8626 169.148V164.682ZM49.3563 164.097C49.0752 164.208 48.7866 164.318 48.5054 164.437V168.897C48.7648 168.786 49.0157 168.675 49.2892 168.586L49.3554 168.512L49.3563 164.097ZM50.8511 163.505C50.5624 163.623 50.2812 163.734 50.0001 163.845V167.876L50.8511 167.019V163.505ZM50.8511 167.936L50.799 167.987C50.8065 167.979 50.8359 167.965 50.8511 167.958V167.936ZM52.3448 162.921C52.0637 163.032 51.7749 163.143 51.4938 163.261V166.374L52.3448 165.531V162.921ZM52.3448 166.441L51.5014 167.285L51.4938 167.707C51.7825 167.596 52.0561 167.478 52.3448 167.367V166.441ZM53.8385 162.344C53.5573 162.449 53.2762 162.558 52.9951 162.677L52.9798 164.881L53.8374 164.038V162.344H53.8385ZM53.8385 164.948L52.9951 165.791L52.9798 167.115C53.2761 167.003 53.5497 166.879 53.8374 166.768V164.948H53.8385ZM55.3331 161.738C55.051 161.849 54.7699 161.974 54.4897 162.085V163.379L55.3331 162.537V161.738ZM54.4897 164.289L54.4755 166.507C54.7708 166.403 55.0519 166.294 55.334 166.182L55.3482 163.445L54.4897 164.289ZM55.9834 161.486V161.885L56.664 161.213C56.4273 161.301 56.2058 161.398 55.9834 161.486ZM56.8419 161.952L55.9843 162.795V165.931C56.2655 165.798 56.5466 165.702 56.8419 165.584V161.952ZM58.3356 160.539C58.2845 160.554 58.239 160.576 58.1955 160.591L57.478 161.301V165.325C57.7658 165.221 58.0403 165.104 58.3356 164.984V160.539ZM59.8217 159.918C59.5406 160.044 59.252 160.155 58.9708 160.273V164.733C59.2595 164.629 59.533 164.511 59.8217 164.4V159.918ZM61.3163 159.319C61.0352 159.43 60.7541 159.556 60.4664 159.667V164.141C60.7475 164.023 61.0362 163.92 61.3163 163.801V159.319ZM62.8111 158.698C62.5299 158.824 62.2412 158.935 61.9601 159.052V163.542C62.2412 163.431 62.5299 163.313 62.8177 163.21L62.8111 158.698ZM63.4538 158.446V162.944C63.7349 162.825 64.016 162.707 64.3037 162.596L64.3114 158.107C64.016 158.217 63.75 158.336 63.4538 158.446ZM65.806 157.499C65.5248 157.618 65.2286 157.728 64.9484 157.846V162.328C65.2295 162.21 65.5258 162.092 65.806 161.974V157.499ZM67.2997 156.893C67.0044 157.004 66.7374 157.122 66.4421 157.233V161.715C66.7374 161.603 67.0186 161.486 67.3073 161.375L67.2997 156.893ZM68.7943 156.279C68.5208 156.405 68.2321 156.515 67.9509 156.634V161.101C68.2321 160.99 68.5132 160.864 68.7943 160.753V156.279ZM69.438 156.02V160.496C69.7258 160.376 70.0078 160.259 70.2889 160.141L70.2956 155.681C70.0069 155.798 69.7258 155.902 69.438 156.02ZM71.7817 155.059C71.5006 155.185 71.2119 155.295 70.9383 155.42L70.9308 159.88C71.2119 159.762 71.5005 159.644 71.7883 159.533L71.7817 155.059ZM72.4254 154.8V159.267C72.7141 159.156 72.9952 159.03 73.2763 158.92L73.2915 154.46C72.9952 154.578 72.7066 154.696 72.4254 154.8ZM74.7701 153.839C74.4889 153.958 74.2068 154.075 73.9266 154.201V158.654C74.2078 158.535 74.4889 158.424 74.7701 158.299V153.839ZM76.2637 153.202C75.9977 153.328 75.7015 153.447 75.4203 153.564V158.046C75.7015 157.913 75.9977 157.809 76.2637 157.691V153.202ZM77.7726 152.581C77.4914 152.7 77.1961 152.817 76.915 152.943V157.425C77.1961 157.313 77.4772 157.195 77.7726 157.078V152.581ZM79.2672 151.96C78.9719 152.071 78.6975 152.196 78.4097 152.307V156.804C78.6984 156.692 78.9719 156.575 79.2672 156.457V151.96ZM80.7609 151.323C80.4722 151.449 80.1911 151.56 79.9024 151.678V156.182C80.1911 156.078 80.4722 155.946 80.7609 155.827V151.323ZM82.2546 150.695C81.9734 150.821 81.6858 150.932 81.4046 151.057V155.569C81.6858 155.443 81.9668 155.325 82.2546 155.206V150.695ZM83.7493 150.066C83.4606 150.178 83.1795 150.303 82.8917 150.429V154.933C83.1805 154.821 83.4616 154.695 83.7493 154.563V150.066ZM85.244 149.445C84.9628 149.556 84.6665 149.674 84.3864 149.793V154.304C84.6675 154.171 84.9628 154.052 85.244 153.949V149.445ZM86.7367 148.809C86.4556 148.943 86.1602 149.046 85.8932 149.179L85.8791 153.676C86.1745 153.542 86.4556 153.424 86.7519 153.306L86.7367 148.809ZM87.3728 148.55L87.388 153.04C87.654 152.906 87.9502 152.803 88.2314 152.67L88.2465 148.195C87.9502 148.299 87.6691 148.432 87.3728 148.55ZM89.7335 147.552C89.4448 147.685 89.1713 147.804 88.8684 147.921L88.8826 152.396C89.1647 152.292 89.4524 152.159 89.7335 152.056V147.552ZM90.3763 147.293V151.783C90.6574 151.649 90.9461 151.531 91.2197 151.412L91.2272 146.938C90.9461 147.055 90.6574 147.167 90.3763 147.293ZM92.7209 146.302C92.4322 146.406 92.1511 146.538 91.8633 146.664L91.8709 151.154C92.152 151.021 92.4407 150.902 92.7209 150.784V146.302ZM94.2146 145.643C93.9268 145.769 93.6458 145.895 93.3637 146.006L93.357 150.517C93.6457 150.398 93.9268 150.265 94.2146 150.162V145.643ZM95.7017 144.985C95.4357 145.119 95.1545 145.245 94.8507 145.363L94.8583 149.889C95.1394 149.756 95.4206 149.638 95.7169 149.519L95.7017 144.985ZM97.2105 144.349C96.9285 144.475 96.6331 144.587 96.3529 144.712V149.237C96.6341 149.119 96.9294 148.993 97.2105 148.876V144.349ZM98.7043 143.691C98.4231 143.825 98.1269 143.943 97.8457 144.06L97.8608 148.594C98.1268 148.469 98.408 148.335 98.7119 148.232L98.7043 143.691ZM99.348 143.424L99.3403 147.937C99.6366 147.817 99.9178 147.692 100.198 147.574L100.206 143.055C99.9178 143.166 99.6215 143.292 99.348 143.424ZM101.693 142.404C101.41 142.53 101.123 142.641 100.842 142.765L100.835 147.284C101.124 147.174 101.411 147.048 101.693 146.915V142.404ZM103.186 141.746C102.898 141.872 102.616 142.004 102.335 142.13V146.634C102.616 146.516 102.905 146.397 103.186 146.272V141.746ZM104.681 141.11C104.4 141.221 104.119 141.347 103.83 141.472V145.991C104.111 145.858 104.4 145.755 104.681 145.621V141.11ZM106.175 140.451C105.893 140.577 105.612 140.71 105.317 140.813V145.339C105.606 145.213 105.893 145.095 106.19 144.969L106.175 140.451ZM107.668 139.8C107.387 139.926 107.106 140.052 106.811 140.17L106.826 144.696C107.107 144.57 107.388 144.436 107.683 144.334L107.668 139.8ZM109.177 139.157C108.882 139.291 108.586 139.394 108.32 139.527V144.046C108.601 143.913 108.882 143.794 109.177 143.676V139.157ZM115.48 135.673L117.661 140.562L119.71 139.704L118.673 137.256V137.249L117.638 134.772L115.48 135.673ZM133.549 127.492C128.453 129.837 123.319 132.13 118.201 134.423L119.192 136.657L135.057 129.29C135.057 129.29 135.057 129.29 135.072 129.29L135.249 129.201L133.549 127.492ZM137.963 131.014L147.246 140.281C149.435 139.259 151.632 138.232 153.814 137.197L137.963 131.014ZM154.613 136.82C155.344 136.48 156.077 136.139 156.801 135.792L152.275 124.941L151.246 122.486L136.357 129.402L136.846 129.883L154.613 136.82ZM136.493 130.436L135.383 130L128.387 148.913C134.482 146.168 140.546 143.394 146.626 140.562L136.493 130.436ZM150.116 119.764C144.82 122.279 139.502 124.756 134.169 127.211L135.87 128.906L151.003 121.893L150.116 119.764ZM151.802 118.98C151.44 119.172 151.062 119.335 150.701 119.504L151.698 121.916L152.741 124.394L154.908 123.484L152.837 118.558L151.802 118.98ZM153.408 118.241L154.332 120.459L170.145 112.738L170.16 112.731C170.16 112.738 170.168 112.738 170.168 112.738L186.166 104.927L185.071 102.739C174.575 108.004 164.021 113.195 153.408 118.241ZM190.44 112.013L192.199 110.268L190.462 106.806L188.36 107.857L190.44 112.013ZM186.46 105.489L171.143 112.974L184.922 117.545L189.967 112.493L186.46 105.489ZM190.263 113.093L185.604 117.767L190.536 119.41C191.313 119.025 192.075 118.625 192.852 118.241L190.263 113.093ZM185.093 118.27L177.533 125.821C181.609 123.839 185.677 121.835 189.715 119.808L185.093 118.27ZM184.405 118.048L170.486 113.433L163.223 132.753C167.409 130.748 171.595 128.729 175.767 126.688L184.405 118.048ZM185.684 102.501L188.073 107.279L190.175 106.236L189.095 104.105C188.998 104.084 188.903 104.054 188.858 103.944C188.799 103.847 188.829 103.744 188.881 103.655L187.771 101.458L185.684 102.501ZM214.152 89.2091C214.027 89.3284 213.827 89.3284 213.709 89.2091C213.583 89.0832 213.583 88.8844 213.709 88.7585L215.203 87.2639C206.283 91.9381 197.319 96.5536 188.31 101.103L189.419 103.299L220.638 87.1304L219.522 84.9855C218.716 85.4152 217.91 85.8289 217.103 86.2577L214.152 89.2091ZM222.259 90.1415C222.23 90.1197 222.185 90.1046 222.155 90.0601L220.942 87.7003L208.635 94.0679C208.694 94.0679 208.746 94.0906 208.79 94.1275C208.908 94.2459 208.908 94.4522 208.783 94.5857L207.443 95.9175L225.371 101.48C226.126 101.079 226.888 100.681 227.642 100.281L222.259 90.1415ZM222.621 89.4467L224.663 88.3884L222.2 83.6546L220.115 84.7346L222.621 89.4467ZM208.132 94.3282L205.943 95.4594L206.756 95.7112L208.132 94.3282ZM206.926 96.4362L204.316 99.0403L199.182 115.031C207.702 110.727 216.156 106.348 224.567 101.91L206.926 96.4362ZM206.239 96.2214L205.314 95.9326L204.744 97.7151L206.239 96.2214ZM243.057 58.8259C242.983 59.0181 242.968 59.2178 243.057 59.41L243.338 59.1137L243.057 58.8259ZM243.501 58.382L243.796 58.6631L244.078 58.382C243.9 58.3081 243.693 58.3081 243.501 58.382ZM243.796 59.5661L243.501 59.8549C243.693 59.9438 243.9 59.9438 244.078 59.87L243.796 59.5661ZM244.537 58.8259L244.248 59.1146L244.537 59.4109C244.61 59.2178 244.61 59.0181 244.537 58.8259ZM248.294 55.069L246.378 56.9848L245.601 57.761L244.995 58.3602C245.283 58.8335 245.283 59.4033 244.995 59.8539L245.616 60.4749C245.734 60.6083 245.734 60.8005 245.601 60.9339C245.475 61.0598 245.276 61.0598 245.157 60.9339L244.536 60.313C244.078 60.6083 243.508 60.6083 243.041 60.313L242.435 60.9339L241.784 61.5852L242.139 61.9402L241.525 62.5469L241.17 62.1919L241.014 62.3548L239.787 63.5673L218.626 84.7356C219.787 84.1222 220.985 83.5079 222.146 82.8945C222.198 82.8652 222.266 82.8576 222.317 82.8652L227.427 80.0766V80.069C232.642 77.2662 237.849 74.4179 243.063 71.5488C242.56 70.8162 242.589 70.0618 243.232 69.2932L243.839 69.7816C243.602 70.0334 243.47 70.2918 243.424 70.6023C243.395 70.8171 243.483 71.0386 243.624 71.2459C244.363 70.8389 245.096 70.4177 245.835 70.0182C245.828 69.6784 245.806 69.2714 245.761 68.7981C245.628 67.4445 245.791 66.5273 246.257 66.0691L248.646 68.4507C249.503 67.9623 250.354 67.4748 251.219 67.0015L251.161 66.957C251.042 66.8235 251.042 66.6238 251.161 66.5055C251.294 66.3796 251.493 66.3654 251.62 66.4979L251.797 66.6759C254.334 65.2484 256.9 63.8503 259.422 62.4153L254.186 57.1789L250.185 53.1701L248.294 55.069ZM228.287 81.007L228.797 81.9688V80.7335C228.619 80.83 228.457 80.9266 228.287 81.007ZM229.434 80.3861L229.441 83.1671L230.247 84.6684C230.261 84.6618 230.276 84.6466 230.291 84.6391V79.9279C230.01 80.068 229.714 80.2384 229.434 80.3861ZM230.927 79.573V84.2917C231.223 84.144 231.504 83.9812 231.793 83.8335L231.785 79.0997C231.504 79.2625 231.208 79.4102 230.927 79.573ZM232.429 78.7589V83.4776C232.71 83.3299 232.999 83.1671 233.28 83.0119V78.2932C232.999 78.4484 232.71 78.6037 232.429 78.7589ZM233.916 77.9382L233.923 82.6645C234.204 82.5093 234.485 82.3464 234.774 82.2054V77.465C234.485 77.6344 234.204 77.783 233.916 77.9382ZM235.417 77.1176V81.8514C235.706 81.6886 235.987 81.5409 236.267 81.3781V76.666C235.986 76.8288 235.697 76.9689 235.417 77.1176ZM236.903 76.3186V81.0373C237.192 80.8755 237.481 80.7127 237.761 80.564V75.8454C237.481 76.0006 237.192 76.1558 236.903 76.3186ZM238.412 75.497V80.2157C238.693 80.068 238.975 79.9052 239.27 79.7651L239.255 75.0237C238.974 75.1941 238.693 75.3342 238.412 75.497ZM239.907 74.6763V79.395C240.188 79.2474 240.469 79.0845 240.749 78.9369L240.764 74.2182C240.468 74.3659 240.188 74.5362 239.907 74.6763ZM241.401 78.581C241.683 78.4333 241.963 78.2705 242.259 78.1228V73.4041C241.97 73.5594 241.683 73.7146 241.408 73.8699L241.401 78.581ZM242.894 73.0643V77.7764C243.183 77.6136 243.464 77.4659 243.744 77.3031V72.591C243.464 72.7529 243.183 72.8939 242.894 73.0643ZM244.389 72.539V76.9547C244.67 76.7919 244.959 76.6443 245.24 76.4815V72.5465C245.077 72.591 244.893 72.6355 244.7 72.6204C244.595 72.6204 244.492 72.5683 244.389 72.539ZM247.983 68.818L246.488 67.3243C246.422 67.5903 246.399 67.8714 246.422 68.1601L246.496 69.0111C246.518 69.2326 246.518 69.4257 246.54 69.6178C247.015 69.3433 247.488 69.0849 247.983 68.818ZM247.376 70.5644V75.3124C247.673 75.1648 247.939 75.002 248.235 74.8391V70.0911C247.939 70.253 247.657 70.4016 247.376 70.5644ZM246.74 70.9336C246.659 70.9629 246.593 71.0226 246.496 71.0519C246.488 71.1257 246.474 71.1996 246.459 71.2365C246.355 71.6132 246.186 71.9095 245.972 72.131C245.942 72.1461 245.905 72.1603 245.883 72.1831V76.1407C246.164 75.9921 246.46 75.8293 246.74 75.6816V70.9336ZM248.885 71.9691L249.736 71.1115L249.73 69.2553C249.433 69.4181 249.166 69.5733 248.871 69.7286L248.885 71.9691ZM248.871 72.805V74.4842C249.152 74.3138 249.447 74.1586 249.73 74.0109V72.0212L248.982 72.768C248.96 72.805 248.908 72.805 248.871 72.805ZM251.179 69.6765L251.23 69.6169L251.222 68.4185C250.941 68.5662 250.645 68.729 250.379 68.8918V70.4745L251.179 69.6765ZM250.38 71.3851V73.6408C250.661 73.4855 250.942 73.3227 251.23 73.1675L251.222 70.5275L250.38 71.3851ZM252.532 68.3153L252.133 67.9007C252.036 67.9604 251.948 68.0039 251.874 68.0484V68.9808L252.532 68.3153ZM251.874 69.8838V72.805C252.155 72.6497 252.436 72.4869 252.725 72.3317V69.5582C252.688 69.5289 252.658 69.4919 252.658 69.4247V69.0849L251.874 69.8838ZM253.36 69.1436V71.9691C253.648 71.8063 253.929 71.6587 254.217 71.4958V70.0021L253.36 69.1436ZM254.218 69.0849V67.5467L253.434 68.3011L254.218 69.0849ZM253.367 67.4729L253.945 66.9031C253.745 66.9996 253.553 67.1179 253.36 67.2362L253.367 67.4729ZM255.72 70.5938L255.713 66.0379L254.855 66.8813V69.7286L255.72 70.5938ZM254.854 70.6382V71.1267C254.951 71.067 255.068 71.0084 255.172 70.9487L254.854 70.6382ZM256.349 65.557V70.2909C256.638 70.128 256.919 69.9804 257.199 69.8176V65.0762C256.932 65.2238 256.637 65.3942 256.349 65.557ZM257.842 64.6985V69.4541C258.13 69.2913 258.412 69.1436 258.692 68.9808V64.2328C258.412 64.3956 258.13 64.5432 257.842 64.6985ZM259.344 63.8778V68.6116C259.625 68.4488 259.906 68.3011 260.202 68.1383V63.4045C259.921 63.5522 259.625 63.715 259.344 63.8778ZM254.876 40.0468L258.641 43.8113L261.37 41.0899L257.598 37.3254L254.876 40.0468ZM260.165 34.7441L261.821 36.4082L263.714 34.5292L293.086 5.15127L291.428 3.48719L260.165 34.7441ZM264.388 34.7441L264.987 35.3575L294.143 6.20954L293.544 5.59521L264.388 34.7441ZM293.544 1.36496L291.887 3.03662L293.544 4.69312L295.201 3.03662L293.544 1.36496ZM297.317 5.14369L295.659 3.47961L294.003 5.14369L295.659 6.80778L297.317 5.14369ZM283.529 18.9306L288.906 13.5531L294.284 8.18315L295.201 7.26592L294.594 6.65916L265.445 35.8005L266.045 36.4072L283.529 18.9306ZM265.602 36.8521L263.93 35.1956L262.273 36.8521L263.93 38.5238L265.602 36.8521ZM263.486 38.9819L261.593 37.0887L259.706 35.1956L258.042 36.8748L261.822 40.6469L263.486 38.9819ZM265.602 45.3277L261.822 41.5405L259.093 44.2695L262.88 48.034L265.602 45.3277ZM262.435 48.4931L258.641 44.7134L257.124 46.2298C256.991 46.3633 256.799 46.3633 256.68 46.245C256.547 46.1115 256.547 45.9052 256.68 45.7793L258.197 44.2704L254.425 40.4907L250.645 44.2704L254.003 47.6279C254.122 47.7462 254.122 47.946 254.003 48.0794C253.87 48.1978 253.671 48.1978 253.552 48.0794L250.194 44.7219L246.415 48.494L250.194 52.2661L251.304 51.1568C251.43 51.0233 251.636 51.0384 251.754 51.1568C251.874 51.2751 251.874 51.4824 251.754 51.6083L250.638 52.7177L254.418 56.5115L258.427 52.5028L262.435 48.4931ZM265.113 59.64L258.93 53.4494L258.649 53.1834L254.877 56.9631L264.397 66.4676L269.182 63.7159L265.113 59.64ZM260.838 63.8257L260.845 67.7824C261.12 67.6196 261.415 67.4568 261.681 67.3091L261.695 64.6833L260.838 63.8257ZM262.332 65.3204V66.94C262.613 66.7772 262.91 66.6219 263.191 66.4667V66.1704L262.332 65.3204ZM333.084 25.2395L330.244 20.7423L328.262 21.9994L331.087 26.5041C331.753 26.0753 332.419 25.6541 333.084 25.2395ZM330.555 26.8373L327.7 22.3259C309.084 34.0635 290.245 45.4167 271.207 56.3781L273.87 61.0078C292.967 50.0029 311.88 38.6269 330.555 26.8373ZM273.323 61.3334L270.675 56.7255L268.649 57.8869L271.289 62.5166C271.977 62.1172 272.642 61.7177 273.323 61.3334ZM270.734 62.8271L268.094 58.2116L265.868 59.4914L269.772 63.3894C270.084 63.1972 270.408 63.0051 270.734 62.8271ZM277.923 72.45L269.654 64.1883C268.485 64.8537 267.332 65.5495 266.148 66.2149C266.148 66.2149 266.134 66.2149 266.119 66.2149L264.491 67.1397C261.813 68.6703 259.092 70.1792 256.391 71.688C256.385 71.7031 256.385 71.7031 256.37 71.7098C256.356 71.7315 256.325 71.7315 256.296 71.7467C247.842 76.4805 239.329 81.1841 230.816 85.7693L236.12 95.7026C250.157 88.1527 264.092 80.4012 277.923 72.45ZM235.557 96.0074L227.436 80.7855L222.762 83.3602L230.868 98.5518C232.429 97.716 233.989 96.8499 235.557 96.0074ZM230.306 98.8765L225.011 88.9356L222.924 90.0298L228.22 99.9859C228.901 99.6091 229.611 99.2466 230.306 98.8765ZM227.954 100.859C227.377 101.155 226.816 101.458 226.238 101.762L228.857 102.575L227.954 100.859ZM228.664 103.182L225.439 102.19C216.653 106.82 207.807 111.392 198.917 115.888L197.874 119.121L228.664 103.182ZM197.275 118.906L198.111 116.303C197.541 116.584 196.965 116.873 196.388 117.162L197.275 118.906ZM196.106 116.591C196.86 116.198 197.629 115.836 198.377 115.429L203.346 99.9859C203.228 100.06 203.065 100.06 202.97 99.9565C202.836 99.8231 202.836 99.6309 202.97 99.4975L203.747 98.7071L204.56 96.1702L189.701 103.87L190.87 106.199L190.891 106.229L192.674 109.793L197.593 104.867C197.711 104.749 197.925 104.749 198.044 104.867C198.163 104.987 198.163 105.201 198.044 105.326L192.978 110.385L196.106 116.591ZM195.536 116.872L192.503 110.858L190.75 112.619L193.421 117.944C194.124 117.589 194.834 117.234 195.536 116.872ZM193.133 118.803C192.548 119.098 191.979 119.394 191.387 119.691L194.021 120.548L193.133 118.803ZM193.798 121.169L190.581 120.097C185.781 122.501 180.973 124.868 176.15 127.211L171.181 132.174C171.061 132.3 170.855 132.293 170.737 132.182C170.618 132.056 170.603 131.849 170.737 131.73L174.391 128.069C170.574 129.925 166.735 131.781 162.904 133.602L161.684 136.848L193.798 121.169ZM161.1 136.582L162.068 134.009C161.498 134.282 160.929 134.542 160.353 134.808L161.1 136.582ZM160.108 134.224C160.87 133.862 161.639 133.514 162.394 133.144L169.715 113.669L154.583 121.065L160.108 134.224ZM159.538 134.497L155.152 124.069L152.986 124.971L157.386 135.518C158.096 135.17 158.814 134.838 159.538 134.497ZM157.046 136.376C156.506 136.628 155.973 136.886 155.426 137.138L157.748 138.04L157.046 136.376ZM149.376 142.418L157.526 138.638L154.635 137.522C152.334 138.595 150.027 139.689 147.719 140.762L149.376 142.418ZM148.762 142.714L147.105 141.05C140.766 143.993 134.419 146.893 128.075 149.756L126.913 152.855L148.762 142.714ZM126.323 152.618L127.255 150.126C126.677 150.378 126.116 150.636 125.553 150.888L126.323 152.618ZM125.287 150.303C126.041 149.956 126.796 149.622 127.565 149.282L134.621 130.2L119.459 137.248L125.287 150.303ZM122.55 151.546C123.268 151.214 123.985 150.888 124.71 150.57L120.094 140.238L117.92 141.148L122.55 151.546ZM121.825 151.818L117.254 141.324C117.181 141.302 117.107 141.235 117.077 141.153L114.888 135.917L112.093 137.16C111.405 137.478 110.717 137.796 110.022 138.106L112.093 142.744L117.077 153.949L121.825 151.818ZM109.813 139.216L109.821 143.402C110.102 143.276 110.383 143.15 110.657 143.017L110.672 141.124L109.813 139.216ZM111.308 142.567V142.744C111.33 142.736 111.351 142.722 111.382 142.722L111.308 142.567ZM115.79 153.839C115.938 153.78 116.093 153.713 116.234 153.647L115.79 152.649V153.839ZM114.295 154.49C114.576 154.364 114.865 154.238 115.145 154.113V151.206L114.546 149.86C114.472 149.904 114.383 149.934 114.294 149.978L114.295 154.49ZM112.802 155.132C113.09 155.014 113.371 154.896 113.653 154.762V150.251C113.37 150.377 113.09 150.495 112.802 150.614V155.132ZM111.219 156.523C111.618 156.354 112.003 156.169 112.395 156.006C112.003 156.169 111.618 156.332 111.219 156.516C111.219 156.516 111.219 156.516 111.219 156.523ZM112.158 155.407V150.896C111.877 151.021 111.596 151.155 111.308 151.272V155.769C111.597 155.658 111.878 155.533 112.158 155.407ZM109.725 157.167C110.14 156.99 110.553 156.805 110.982 156.627C110.975 156.627 110.975 156.613 110.968 156.627C110.554 156.805 110.147 156.982 109.725 157.16V157.167ZM110.672 156.05V151.546C110.383 151.672 110.102 151.798 109.814 151.923V156.412C110.094 156.294 110.383 156.176 110.672 156.05ZM109.488 157.278C109.488 157.278 109.473 157.263 109.466 157.271C109.059 157.44 108.66 157.625 108.246 157.796C108.231 157.811 108.231 157.825 108.231 157.833C108.645 157.655 109.074 157.463 109.488 157.278ZM109.177 152.197C108.882 152.315 108.601 152.456 108.32 152.574L108.304 157.063C108.601 156.944 108.882 156.826 109.162 156.692L109.177 152.197ZM108.046 157.914C108.024 157.914 108.009 157.936 107.995 157.914C107.995 157.936 107.973 157.914 107.966 157.914C107.551 158.091 107.152 158.268 106.752 158.446C106.738 158.446 106.738 158.462 106.738 158.469C107.166 158.284 107.61 158.098 108.046 157.914ZM107.683 152.855C107.387 152.966 107.106 153.092 106.826 153.218L106.811 157.707C107.107 157.589 107.388 157.471 107.668 157.337L107.683 152.855ZM106.485 158.571C106.485 158.579 106.478 158.565 106.456 158.565C106.056 158.734 105.657 158.919 105.25 159.09C105.25 159.098 105.242 159.098 105.242 159.112C105.657 158.935 106.079 158.757 106.485 158.571ZM106.175 157.987V153.498C105.893 153.617 105.606 153.75 105.317 153.868V158.35C105.612 158.225 105.893 158.113 106.175 157.987ZM104.991 159.215C104.984 159.215 104.976 159.207 104.962 159.207C104.563 159.385 104.163 159.555 103.756 159.74L103.749 159.748C104.156 159.571 104.577 159.393 104.991 159.215ZM104.681 158.624V154.15C104.4 154.276 104.119 154.394 103.83 154.512V159.002C104.111 158.883 104.4 158.757 104.681 158.624ZM103.497 159.866C103.483 159.86 103.483 159.86 103.467 159.845C103.068 160.029 102.662 160.215 102.262 160.377C102.262 160.385 102.255 160.393 102.255 160.393C102.662 160.214 103.068 160.029 103.497 159.866ZM103.186 159.275V154.8C102.905 154.919 102.616 155.038 102.335 155.17V159.646C102.617 159.518 102.905 159.408 103.186 159.275ZM100.76 161.028C101.175 160.857 101.573 160.687 101.988 160.502C101.988 160.502 101.98 160.496 101.98 160.502C101.573 160.665 101.175 160.85 100.76 161.02V161.028ZM101.693 159.918V155.444C101.41 155.57 101.123 155.696 100.842 155.821L100.835 160.28C101.124 160.178 101.411 160.044 101.693 159.918ZM100.494 161.138H100.488C100.288 161.231 100.081 161.316 99.8733 161.405C100.081 161.316 100.287 161.231 100.494 161.138ZM100.199 160.569V156.094C99.9026 156.22 99.6367 156.354 99.348 156.471L99.3403 160.931C99.6366 160.813 99.9177 160.695 100.199 160.569ZM99.0005 161.79L98.993 161.775C98.7336 161.908 98.4677 162.011 98.1941 162.13C98.4677 162.012 98.7336 161.908 99.0005 161.79ZM97.8466 161.575C98.1429 161.457 98.424 161.338 98.7052 161.213V156.753C98.4099 156.865 98.1429 156.991 97.8466 157.108V161.575ZM96.3529 162.226C96.6341 162.107 96.9294 161.989 97.2105 161.849V157.374C96.9143 157.5 96.6331 157.619 96.3529 157.737V162.226ZM94.8507 162.869C95.1394 162.743 95.4357 162.632 95.7017 162.507L95.7169 158.01C95.4206 158.136 95.1545 158.254 94.8507 158.365V162.869ZM94.2146 163.143V158.646C93.941 158.772 93.6458 158.883 93.3637 159.009L93.357 163.512C93.6457 163.395 93.9268 163.269 94.2146 163.143ZM91.8633 164.164C92.152 164.038 92.4331 163.905 92.7209 163.787V159.276C92.4398 159.394 92.1511 159.512 91.8633 159.631V164.164ZM90.3763 164.785C90.6574 164.651 90.9385 164.548 91.2272 164.43V159.903C90.9385 160.029 90.6574 160.14 90.3763 160.266V164.785ZM88.8817 165.399C89.1638 165.273 89.4439 165.162 89.7251 165.037V160.533C89.4439 160.659 89.1694 160.777 88.8675 160.895L88.8817 165.399ZM87.388 166.02C87.6691 165.894 87.9502 165.783 88.2465 165.658L88.2314 161.176C87.9502 161.287 87.6691 161.405 87.3728 161.524L87.388 166.02ZM85.8943 166.642C86.1612 166.508 86.4565 166.405 86.7377 166.273V161.797C86.4565 161.923 86.1612 162.042 85.8801 162.16L85.8943 166.642ZM84.3995 167.255C84.6665 167.129 84.9619 167.019 85.243 166.894V162.432C84.9543 162.544 84.6655 162.669 84.3995 162.795V167.255ZM82.8179 168.594C83.2022 168.438 83.5799 168.276 83.9566 168.113C83.5799 168.276 83.2013 168.423 82.8179 168.586C82.8179 168.594 82.8179 168.594 82.8179 168.594ZM83.7493 167.514L83.7417 163.061C83.4606 163.179 83.1795 163.305 82.8917 163.416V167.861C83.1795 167.751 83.4606 167.625 83.7493 167.514ZM81.3232 169.222C81.7226 169.045 82.1288 168.882 82.551 168.712C82.5368 168.704 82.5368 168.698 82.5368 168.698C82.1288 168.867 81.7302 169.045 81.3232 169.208C81.3232 169.208 81.3232 169.216 81.3232 169.222ZM82.2546 168.135L82.248 163.683C81.9669 163.801 81.6858 163.904 81.4046 164.037V168.475C81.6858 168.357 81.9668 168.239 82.2546 168.135ZM79.8285 169.844C80.228 169.66 80.6426 169.504 81.0562 169.334C81.0421 169.334 81.042 169.327 81.042 169.32C80.6426 169.497 80.2356 169.66 79.8285 169.83C79.8285 169.829 79.8285 169.837 79.8285 169.844ZM80.7609 168.749V164.296C80.4722 164.415 80.1911 164.525 79.9024 164.651V169.096C80.192 168.986 80.4731 168.86 80.7609 168.749ZM78.3359 170.443C78.7353 170.281 79.149 170.111 79.5636 169.956C79.556 169.948 79.5483 169.933 79.5483 169.948C79.1489 170.111 78.7353 170.274 78.3359 170.429C78.3207 170.436 78.3359 170.443 78.3359 170.443ZM79.2672 169.363V164.911C78.9861 165.036 78.6975 165.147 78.4097 165.265V169.717C78.6975 169.608 78.9861 169.482 79.2672 169.363ZM78.0547 170.554C78.0547 170.554 78.0546 170.554 78.0395 170.554C77.6628 170.717 77.2699 170.879 76.8705 171.049C77.2699 170.879 77.6619 170.717 78.0547 170.554ZM77.7726 169.969V165.532C77.4772 165.636 77.2103 165.768 76.915 165.871V170.339C77.2103 170.214 77.4914 170.095 77.7726 169.969ZM75.4213 170.946C75.7024 170.828 75.9987 170.717 76.2646 170.592L76.2799 166.146C75.9836 166.258 75.7025 166.375 75.4223 166.493V170.946H75.4213ZM73.9266 171.568C74.2011 171.449 74.4889 171.331 74.7842 171.213L74.7701 166.746C74.4889 166.879 74.2002 166.983 73.9266 167.115V171.568ZM72.4254 172.196C72.7066 172.063 72.9952 171.96 73.2763 171.826V167.367C72.9952 167.485 72.7141 167.604 72.4254 167.722V172.196ZM70.9317 172.803C71.2129 172.684 71.5016 172.559 71.7893 172.448V167.988C71.5006 168.1 71.2195 168.225 70.9317 168.335V172.803ZM69.438 173.417C69.7258 173.298 70.0079 173.18 70.2956 173.069L70.2889 168.595C70.0078 168.713 69.7267 168.824 69.438 168.95V173.417ZM67.9509 174.031C68.2321 173.912 68.5132 173.794 68.801 173.69V169.208C68.5123 169.334 68.2311 169.445 67.9509 169.563V174.031ZM66.4421 174.644C66.7374 174.533 67.0044 174.415 67.2997 174.304V169.83C67.0261 169.948 66.7374 170.051 66.4421 170.162V174.644ZM64.9484 175.236C65.2295 175.125 65.5258 175.014 65.806 174.896V170.429C65.5248 170.54 65.2286 170.643 64.9484 170.777V175.236ZM63.4689 175.827C63.7349 175.708 64.016 175.598 64.3123 175.487L64.3048 171.027C64.0312 171.138 63.7349 171.249 63.4547 171.367L63.4689 175.827ZM61.9601 176.419C62.2412 176.293 62.5299 176.182 62.8111 176.072V171.611C62.5299 171.737 62.2412 171.848 61.9601 171.966V176.419ZM60.4664 177.003C60.7551 176.892 61.0362 176.782 61.3163 176.663L61.324 172.218C61.0352 172.33 60.7466 172.44 60.4664 172.558V177.003ZM58.9717 177.581C59.2604 177.476 59.5415 177.367 59.8226 177.255V172.81C59.5415 172.921 59.2604 173.031 58.9717 173.157V177.581ZM57.478 178.187C57.7658 178.076 58.0403 177.958 58.3356 177.84V173.417C58.0403 173.521 57.7592 173.631 57.478 173.75V178.187ZM55.9834 178.764C56.2646 178.66 56.5457 178.542 56.841 178.431V173.993C56.5447 174.104 56.2636 174.23 55.9834 174.34V178.764ZM54.4897 179.37C54.7708 179.237 55.052 179.133 55.3482 179.022L55.334 174.6C55.0519 174.703 54.7708 174.836 54.4755 174.94L54.4897 179.37ZM52.906 180.68C53.1133 180.598 53.3131 180.513 53.5128 180.432C53.3131 180.509 53.1133 180.591 52.906 180.664C52.906 180.664 52.9136 180.672 52.906 180.68ZM53.8385 179.607V175.199C53.5498 175.31 53.2762 175.428 52.9809 175.531V179.947C53.2696 179.829 53.5583 179.733 53.8385 179.607ZM52.6259 180.79C52.6259 180.79 52.6259 180.79 52.6259 180.784C52.2264 180.931 51.8204 181.102 51.4133 181.257C51.8194 181.102 52.2264 180.947 52.6259 180.79ZM52.3448 180.199V175.791C52.0637 175.909 51.7749 176.021 51.4938 176.123V180.532C51.7749 180.42 52.0637 180.317 52.3448 180.199ZM114.044 148.72L111.878 143.838C91.0351 153.04 69.7484 161.884 48.5811 170.206L47.6346 171.152L51.347 174.851C72.3449 166.604 93.4309 157.81 114.044 148.72ZM50.0001 181.124C50.2812 181.019 50.5624 180.902 50.8511 180.79V176.382L50.0001 177.241V181.124ZM48.5063 181.715C48.5878 181.678 48.6692 181.664 48.743 181.619L48.5063 181.382V181.715ZM48.5063 180.48L49.3574 181.338V177.877L48.5063 178.735V180.48ZM47.0117 182.307C47.3004 182.188 47.5816 182.085 47.8694 181.975L47.8617 180.732L47.1811 180.059L47.0032 180.221L47.0117 182.307ZM47.8626 179.844V179.378L47.6336 179.607L47.8626 179.844ZM45.518 182.898C45.7916 182.772 46.0879 182.661 46.369 182.558V180.872L45.5114 181.73L45.518 182.898ZM44.0167 183.482C44.2979 183.372 44.5942 183.268 44.8754 183.15L44.8601 182.366L44.0167 183.216V183.482ZM46.7523 179.585C46.6634 179.459 46.6634 179.304 46.7751 179.209C46.8716 179.097 47.0345 179.097 47.1594 179.172L50.9532 175.377L47.1811 171.612L45.288 173.484L42.9509 175.835C42.8326 175.961 42.6253 175.954 42.4918 175.828C42.3735 175.687 42.3735 175.503 42.4918 175.377L44.8365 173.032L46.722 171.147L42.9424 167.367L39.1703 171.139L41.8472 173.831C41.9731 173.949 41.9731 174.163 41.8472 174.283C41.7289 174.409 41.5215 174.401 41.4032 174.283L38.7179 171.591L38.5257 171.79L35.1378 175.177L34.9391 175.377L42.949 183.387L46.7523 179.585ZM42.523 184.067C42.5817 184.045 42.6338 184.03 42.6783 184.015L42.523 183.868V184.067ZM41.8794 184.318V183.209L41.0284 182.365L41.0209 184.65C41.3096 184.541 41.5907 184.429 41.8794 184.318ZM39.5338 185.214C39.8149 185.103 40.0961 184.992 40.3848 184.896V181.715L39.5338 180.872V185.214ZM38.041 185.775C38.3221 185.672 38.6033 185.561 38.8911 185.458V181.027C38.61 181.138 38.3212 181.241 38.0258 181.353L38.041 185.775ZM36.5464 186.345C36.8351 186.234 37.1162 186.123 37.3897 186.013L37.3974 181.589C37.2791 181.64 37.1683 181.678 37.0641 181.73L36.8351 181.952L36.5464 182.247V186.345ZM35.0517 186.907C35.3329 186.795 35.614 186.686 35.8951 186.582L35.9093 182.883L35.0517 183.741V186.907ZM35.0517 182.825L35.5847 182.285C35.4077 182.351 35.2297 182.426 35.0517 182.492V182.825ZM34.4014 187.144L34.4156 184.378L33.558 185.229L33.5429 187.455C33.824 187.351 34.1052 187.248 34.4014 187.144ZM34.4014 183.468V182.736C34.1203 182.84 33.824 182.942 33.558 183.054V184.318L34.4014 183.468ZM32.9068 187.706V185.872L32.212 186.582L32.0643 186.723L32.0492 188.017C32.3303 187.906 32.619 187.817 32.9068 187.706ZM32.0492 185.812L32.9068 184.962V183.305C32.6181 183.409 32.3294 183.52 32.0492 183.63V185.812ZM30.5555 188.585C30.8442 188.482 31.132 188.379 31.4131 188.261V187.365L30.5555 188.215V188.585ZM30.5555 187.307L31.4131 186.448V183.867C31.1244 183.977 30.8508 184.082 30.5555 184.192V187.307ZM29.0609 188.801L29.9118 187.958V184.438C29.6306 184.542 29.3571 184.652 29.0609 184.756V188.801ZM27.5672 189.711C27.8559 189.599 28.137 189.496 28.4248 189.385V185.006C28.1361 185.111 27.8549 185.221 27.5672 185.324V189.711ZM26.0735 190.265C26.3546 190.168 26.6499 190.058 26.932 189.947V185.575C26.6499 185.679 26.3546 185.774 26.0735 185.886V190.265ZM24.5789 190.842C24.86 190.73 25.1563 190.62 25.4365 190.509L25.4213 186.123C25.1553 186.235 24.8589 186.331 24.5778 186.441V190.842H24.5789ZM23.0851 191.404C23.3672 191.286 23.6483 191.189 23.9286 191.072L23.9427 186.687C23.6474 186.79 23.3663 186.893 23.0842 186.997L23.0851 191.404ZM22.4339 191.633V187.233C22.1528 187.337 21.8641 187.447 21.5905 187.551L21.5829 191.96C21.8726 191.848 22.1537 191.744 22.4339 191.633ZM20.0892 192.514C20.3703 192.41 20.6591 192.307 20.9402 192.203V187.803C20.6591 187.899 20.3779 188.002 20.0892 188.106V192.514ZM18.5955 193.083C18.8766 192.971 19.1653 192.869 19.454 192.765V188.341C19.1653 188.445 18.8766 188.563 18.5955 188.652V193.083ZM17.1018 193.645C17.3905 193.541 17.6717 193.423 17.9594 193.319V188.911C17.6707 189 17.3896 189.111 17.1018 189.222V193.645ZM38.5143 179.844L34.3721 175.709C27.2567 178.439 20.0229 181.145 12.8781 183.756L14.6974 188.786C22.538 185.908 30.5403 182.913 38.5143 179.844ZM16.4582 189.459C16.1771 189.556 15.8816 189.658 15.6147 189.77L15.6006 191.286L16.4657 193.645L16.4582 189.459ZM11.1184 178.697V178.911L11.9685 181.263L11.9751 178.378C11.6798 178.476 11.4138 178.586 11.1184 178.697ZM12.1682 183.682L11.9685 183.127C11.9685 183.121 11.9685 183.121 11.9685 183.121L10.2448 178.379L5.21564 180.185L11.1175 196.471L13.0552 195.761C14.0756 195.385 15.1111 194.999 16.1325 194.63L16.0435 194.386L16.036 194.371H16.0435L14.209 189.311L12.1749 183.691C12.1759 183.69 12.1758 183.69 12.1682 183.682ZM13.4698 177.817C13.1744 177.92 12.8924 178.016 12.6112 178.128L12.6264 182.558C12.8924 182.447 13.1886 182.336 13.4698 182.225V177.817ZM14.121 177.581V181.989C14.4021 181.878 14.6833 181.775 14.9645 181.672L14.972 177.262C14.6833 177.373 14.4021 177.476 14.121 177.581ZM15.6006 177.018L15.6147 181.442C15.8958 181.337 16.1771 181.228 16.4582 181.116L16.4657 176.708C16.1628 176.819 15.8959 176.929 15.6006 177.018ZM17.9594 176.161C17.6707 176.265 17.3896 176.36 17.1018 176.471V180.88C17.3905 180.769 17.6717 180.673 17.9594 180.562V176.161ZM19.454 175.598C19.1653 175.717 18.8767 175.82 18.6031 175.924V180.332C18.8852 180.221 19.1663 180.117 19.454 180.014V175.598ZM20.9402 175.05C20.6591 175.154 20.3779 175.25 20.0892 175.361V179.77C20.3703 179.658 20.6591 179.563 20.9402 179.452V175.05ZM22.4339 174.489C22.1528 174.586 21.8716 174.696 21.5838 174.807L21.5915 179.223C21.8726 179.112 22.1537 179.016 22.4491 178.905L22.4339 174.489ZM23.9286 173.912C23.6474 174.023 23.3663 174.133 23.0851 174.252V178.661C23.3672 178.549 23.6483 178.447 23.9437 178.35L23.9286 173.912ZM25.4222 173.349C25.1562 173.468 24.86 173.571 24.5789 173.689V178.091C24.8676 177.987 25.1411 177.877 25.4365 177.773L25.4222 173.349ZM26.932 172.796C26.6499 172.906 26.3622 173.01 26.0735 173.114V177.529C26.3546 177.418 26.6499 177.308 26.932 177.211V172.796ZM28.4248 172.233C28.1361 172.336 27.8549 172.44 27.5672 172.551L27.5747 176.967C27.8558 176.855 28.137 176.746 28.4248 176.634V172.233ZM29.0609 171.974V176.397C29.3496 176.293 29.6306 176.182 29.9118 176.072L29.9194 171.663C29.6383 171.767 29.3496 171.878 29.0609 171.974ZM28.6179 168.202L29.4689 169.052V163.194L28.6102 162.344L28.6179 168.202ZM27.1232 166.715L27.9742 167.558L27.9666 161.686L27.1232 160.85V166.715ZM25.6295 165.206L26.4795 166.064L26.472 160.192L25.7686 159.504L25.6286 159.645L25.6295 165.206ZM24.1349 163.706L24.9849 164.571L24.9774 160.281L24.1339 161.139V163.706H24.1349ZM24.9783 159.37V158.698L24.1349 157.862L24.1207 160.229L24.9783 159.37ZM23.4846 163.07V161.776L22.8334 162.433L23.4846 163.07ZM23.4846 160.865V157.204L22.6412 156.361L22.6261 161.723L23.4846 160.865ZM21.1324 160.724L21.99 161.574V155.709L21.1324 154.858V160.724ZM19.6387 159.23L20.4896 160.074L20.4963 154.223L19.6387 153.364V159.23ZM18.144 157.737L18.995 158.58V152.73L18.144 151.872V157.737ZM16.6579 156.242L17.5089 157.085V151.234L16.6513 150.376L16.6579 156.242ZM15.1566 154.741L16.0141 155.592L15.999 149.734L15.1566 148.884V154.741ZM13.6695 153.254L14.5204 154.104L14.5053 148.24L13.6619 147.389L13.6695 153.254ZM12.1682 151.753L13.0258 152.611L13.0116 146.746L12.1682 145.896V151.753ZM10.667 150.251L11.5179 151.109V145.251L10.667 144.385V150.251ZM10.0233 149.615V143.75L9.1799 142.914L9.17239 148.757L10.0233 149.615ZM7.67868 147.264L8.53629 148.122V142.257L7.67868 141.4V147.264ZM6.18497 145.769L7.03589 146.627L7.04352 141.953L6.18591 142.812L6.18497 145.769ZM5.54126 145.133V143.455L4.69788 144.298L5.54126 145.133ZM0.0530396 140.489L3.82513 144.261L4.03149 144.069L7.41928 140.681L7.60391 140.49L3.82419 136.703L0.0530396 140.489Z" fill="#0163BE"/>
<path d="M0.000892639 302.451L25.7024 276.749C25.8359 276.624 26.0356 276.624 26.1757 276.756C26.2798 276.868 26.2798 277.074 26.1615 277.2L0.000892639 303.354V302.451Z" fill="#0163BE"/>
<path d="M0.000914097 81.2219L3.61782 84.8388C3.73709 84.9571 3.73709 85.1644 3.61782 85.2827C3.49193 85.4162 3.29314 85.4011 3.15967 85.2827L0.000914097 82.1278V81.2219Z" fill="#0163BE"/>
<path d="M206.365 0L211.032 4.66378C211.15 4.76696 211.165 4.98183 211.032 5.10772C210.906 5.22605 210.706 5.22605 210.573 5.10772L205.477 0H206.365Z" fill="#0163BE"/>
</g>
<path opacity="0.32" d="M0.615372 457.685L25.888 432.411L0.615372 407.138V405L26.9529 431.345L76.5374 381.768L26.9605 332.191L0.615372 358.537V356.407L25.8956 331.127L0.615372 305.846V303.717L26.9605 330.062L76.5374 280.488L27.0343 230.988L0.615372 257.408V255.271L25.9704 229.92L0.615372 204.566V202.428L27.0353 228.852L76.5384 179.352L26.9614 129.775L0.615372 156.124V153.986L25.8956 128.706L0.615372 103.425V101.295L26.9605 127.64L76.5374 78.0632L26.9605 28.4863L0.615372 54.8323V52.6949L25.888 27.4185L0.615372 2.14116V0L229.995 229.376L230.535 229.912L0.615372 459.83V457.685ZM28.1077 229.92L77.6033 279.419L127.107 229.92L77.6033 180.42L28.1077 229.92ZM77.6023 79.1328L28.0329 128.706L77.6023 178.283L127.179 128.706L77.6023 79.1328ZM128.253 129.775L78.6757 179.352L128.172 228.852L177.749 179.275L128.253 129.775ZM228.39 229.913L178.821 180.344L129.244 229.921L178.813 279.494L228.39 229.913ZM177.741 280.562L128.171 230.989L78.6682 280.486L128.245 330.063L177.741 280.562ZM127.173 331.13L77.6023 281.557L28.0254 331.127L77.6023 380.703L127.173 331.13Z" fill="#0163BE"/>
</g>
</svg>
