<svg width="240" height="398" viewBox="0 0 240 398" fill="none" xmlns="http://www.w3.org/2000/svg">
<path d="M24.5892 77.7589C25.6486 78.4175 26.7134 79.0674 27.7835 79.7083C37.8271 85.7289 37.8271 85.7289 39.0217 89.9424C39.184 91.1366 39.317 92.335 39.4223 93.5355C39.6876 94.8357 40.0186 96.118 40.3406 97.4051C40.4983 98.0903 40.6539 98.7761 40.8075 99.4622C41.1468 100.973 41.4875 102.483 41.8302 103.993C42.2115 105.674 42.5921 107.355 42.9721 109.036C43.91 113.182 44.8565 117.327 45.8035 121.472C46.0223 122.43 46.241 123.387 46.4596 124.345C47.9517 130.881 49.4653 137.412 50.997 143.938C51.5752 146.406 52.1496 148.874 52.7232 151.343C53.1168 153.036 53.5117 154.728 53.9142 156.419C54.2717 157.926 54.6205 159.434 54.966 160.943C55.0645 161.347 55.1631 161.751 55.2646 162.167C55.9113 165.064 55.4314 166.626 53.956 169.148C53.6537 169.608 53.3515 170.069 53.0401 170.543C52.701 171.063 52.3618 171.583 52.0125 172.119C51.6466 172.675 51.2806 173.231 50.9146 173.786C50.1622 174.935 49.4112 176.085 48.6603 177.236C48.4723 177.523 48.2843 177.81 48.0907 178.106C46.8933 179.939 45.7173 181.785 44.5567 183.641C44.2738 184.093 43.991 184.545 43.6995 185.011C43.1732 185.855 42.6494 186.7 42.1284 187.547C41.8935 187.922 41.6585 188.297 41.4164 188.684C41.2155 189.009 41.0145 189.334 40.8074 189.669C39.4247 191.479 37.9239 191.83 35.7389 192.262C34.8689 192.438 34.8689 192.438 33.9814 192.617C33.5098 192.709 33.5098 192.709 33.0287 192.803C31.6524 193.073 30.2778 193.351 28.9031 193.629C28.1462 193.781 27.3892 193.934 26.6322 194.085C22.1659 194.982 17.7087 195.922 13.2507 196.859C10.3634 197.464 7.47492 198.065 4.58673 198.667C1.81959 199.244 -0.946149 199.828 -3.71074 200.417C-5.38649 200.774 -7.06311 201.126 -8.73994 201.477C-9.51907 201.641 -10.2978 201.808 -11.0761 201.976C-12.1445 202.206 -13.2141 202.43 -14.2842 202.653C-14.8825 202.78 -15.4808 202.907 -16.0972 203.038C-18.7691 203.372 -20.6238 202.767 -22.871 201.339C-23.3203 201.056 -23.7696 200.773 -24.2324 200.482C-24.7097 200.175 -25.187 199.868 -25.6787 199.551C-26.1747 199.235 -26.6708 198.919 -27.1819 198.594C-28.4958 197.754 -29.8067 196.91 -31.117 196.065C-31.9195 195.55 -32.7246 195.039 -33.5308 194.529C-35.0823 193.547 -36.6281 192.557 -38.1726 191.564C-38.6526 191.262 -39.1327 190.959 -39.6273 190.647C-40.0722 190.357 -40.5171 190.068 -40.9755 189.769C-41.5625 189.393 -41.5625 189.393 -42.1613 189.009C-44.3056 187.159 -44.8421 184.694 -45.4354 182.019C-45.5113 181.682 -45.5872 181.345 -45.6654 180.998C-45.9176 179.876 -46.1644 178.752 -46.4115 177.628C-46.5916 176.824 -46.772 176.019 -46.9529 175.214C-47.3413 173.485 -47.728 171.756 -48.1136 170.026C-49.0457 165.852 -50.0005 161.684 -50.9545 157.515C-51.2839 156.075 -51.6126 154.635 -51.9413 153.196C-53.2065 147.658 -54.4883 142.125 -55.7868 136.596C-56.466 133.703 -57.1398 130.81 -57.8117 127.915C-58.2597 125.987 -58.7106 124.059 -59.1683 122.133C-59.5909 120.354 -60.0054 118.573 -60.4136 116.791C-60.563 116.145 -60.7154 115.5 -60.871 114.856C-61.0821 113.98 -61.2815 113.102 -61.4802 112.224C-61.5944 111.737 -61.7086 111.249 -61.8262 110.747C-62.0952 107.051 -59.5745 103.948 -57.6844 100.954C-57.2169 100.212 -57.2169 100.212 -56.7399 99.454C-56.0806 98.4108 -55.4192 97.3688 -54.7561 96.3279C-53.7445 94.7389 -52.7532 93.1375 -51.7596 91.5372C-51.1157 90.5227 -50.4708 89.5089 -49.825 88.4956C-49.5315 88.0177 -49.2381 87.5398 -48.9357 87.0475C-47.0306 84.1083 -45.55 82.6665 -42.1073 81.8984C-41.23 81.6785 -41.23 81.6785 -40.335 81.4541C-39.744 81.3381 -39.1529 81.2221 -38.544 81.1025C-38.2105 81.0358 -37.8771 80.9691 -37.5335 80.9004C-36.8113 80.7563 -36.0887 80.6138 -35.3658 80.4728C-33.7866 80.1646 -32.209 79.8482 -30.6313 79.5323C-29.7813 79.3621 -28.9313 79.1922 -28.0811 79.0228C-23.346 78.0773 -18.6201 77.0883 -13.8944 76.0969C-12.4388 75.792 -10.9829 75.4888 -9.52688 75.1861C-5.4176 74.3303 -1.31156 73.467 2.78227 72.5398C3.69269 72.337 3.69269 72.337 4.62149 72.1301C5.69736 71.8891 6.77177 71.6413 7.84415 71.3852C8.30627 71.2825 8.7684 71.1797 9.24452 71.0739C9.63129 70.9834 10.0181 70.893 10.4165 70.7997C15.3632 70.5865 20.6277 75.2767 24.5892 77.7589Z" fill="#3693E9"/>
<path d="M45.6217 206.652C45.9841 206.888 46.3465 207.125 46.7199 207.368C47.8764 208.124 49.0287 208.885 50.1809 209.647C51.321 210.395 52.4619 211.141 53.6029 211.888C54.3429 212.373 55.0819 212.859 55.82 213.346C57.4116 214.396 59.0041 215.432 60.6446 216.404C61.3904 216.847 61.3904 216.847 62.1513 217.3C62.5738 217.542 62.9964 217.784 63.4317 218.034C65.7936 219.894 66.2619 222.703 66.8882 225.496C66.9782 225.884 67.0682 226.271 67.1609 226.671C67.4571 227.952 67.7478 229.233 68.0384 230.515C68.2471 231.423 68.456 232.33 68.6652 233.238C70.1991 239.91 71.6898 246.592 73.1756 253.275C74.571 259.55 76.0116 265.813 77.4914 272.068C77.8098 273.416 78.1268 274.763 78.4434 276.111C79.2839 279.683 80.1256 283.254 81.0195 286.814C81.2612 287.779 81.4987 288.745 81.7346 289.712C82.0111 290.841 82.2957 291.967 82.5905 293.091C82.7092 293.582 82.8279 294.073 82.9501 294.579C83.0555 294.993 83.1608 295.407 83.2693 295.834C83.4491 299.898 80.998 303.296 78.918 306.604C78.6088 307.099 78.2995 307.593 77.9809 308.102C77.3273 309.141 76.671 310.178 76.012 311.214C75.0106 312.796 74.0309 314.39 73.0509 315.986C72.4112 316.997 71.7702 318.007 71.1279 319.016C70.6957 319.73 70.6957 319.73 70.2548 320.459C68.7632 322.75 67.6779 324.158 64.9939 324.927C64.1317 325.095 63.2662 325.247 62.3982 325.382C61.664 325.543 60.9304 325.707 60.1975 325.875C59.4568 326.026 58.7158 326.176 57.9744 326.325C57.5638 326.409 57.1532 326.493 56.7301 326.579C55.8472 326.759 54.9641 326.938 54.0808 327.117C51.6899 327.6 49.3002 328.089 46.9103 328.577C46.4137 328.678 45.9171 328.779 45.4055 328.884C39.3612 330.117 33.324 331.385 27.2868 332.654C26.8316 332.749 26.3763 332.845 25.9072 332.943C25.4612 333.037 25.0151 333.131 24.5555 333.227C23.2635 333.498 21.9709 333.765 20.6781 334.031C19.0413 334.37 17.4104 334.728 15.7809 335.101C15.3951 335.186 15.0093 335.271 14.6119 335.359C13.8956 335.517 13.1808 335.681 12.4678 335.853C8.26807 336.758 5.42048 334.571 2.03801 332.392C1.61312 332.122 1.18822 331.851 0.750442 331.573C-0.14516 331.002 -1.03976 330.429 -1.93343 329.855C-3.2933 328.982 -4.65636 328.114 -6.02003 327.247C-6.89281 326.69 -7.76541 326.132 -8.6378 325.575C-9.04158 325.317 -9.44536 325.06 -9.86137 324.795C-10.9701 324.081 -12.0677 323.353 -13.1635 322.62C-13.4879 322.416 -13.8123 322.211 -14.1465 322.001C-16.5328 320.381 -17.1606 318.878 -17.7066 316.095C-17.7938 315.707 -17.8811 315.319 -17.971 314.919C-18.2558 313.639 -18.522 312.356 -18.7884 311.072C-18.9872 310.164 -19.1873 309.256 -19.3885 308.348C-19.8058 306.458 -20.2158 304.566 -20.6197 302.673C-21.4625 298.727 -22.3499 294.791 -23.2347 290.855C-23.5216 289.576 -23.8066 288.296 -24.0911 287.016C-25.3813 281.218 -26.7225 275.434 -28.0929 269.656C-28.4091 268.319 -28.723 266.982 -29.0362 265.645C-29.9181 261.884 -30.8042 258.125 -31.7489 254.379C-32.1214 252.893 -32.4819 251.404 -32.84 249.915C-33.0073 249.232 -33.1801 248.551 -33.359 247.871C-33.603 246.943 -33.8259 246.009 -34.0478 245.075C-34.2435 244.299 -34.2435 244.299 -34.4432 243.508C-34.4266 241.09 -33.3757 239.529 -32.1316 237.503C-31.8995 237.119 -31.6674 236.734 -31.4283 236.338C-30.6657 235.096 -29.8871 233.865 -29.1029 232.636C-28.819 232.19 -28.535 231.744 -28.2425 231.284C-27.6463 230.349 -27.049 229.415 -26.4509 228.481C-25.5369 227.051 -24.6296 225.617 -23.7224 224.183C-23.1401 223.272 -22.5574 222.36 -21.9743 221.45C-21.7047 221.022 -21.4352 220.594 -21.1575 220.153C-20.9013 219.756 -20.6451 219.359 -20.3812 218.95C-20.159 218.602 -19.9368 218.253 -19.7079 217.894C-18.3155 216.172 -16.7641 215.349 -14.6202 214.907C-14.2083 214.819 -13.7965 214.732 -13.3722 214.642C-12.7053 214.508 -12.7053 214.508 -12.0249 214.371C-11.5555 214.273 -11.0861 214.175 -10.6024 214.073C-9.06315 213.752 -7.52254 213.438 -5.98183 213.124C-4.91138 212.902 -3.84102 212.68 -2.77076 212.457C-0.596771 212.005 1.57776 211.556 3.75284 211.11C6.99627 210.444 10.2378 209.769 13.479 209.092C15.4592 208.678 17.4396 208.266 19.4207 207.857C22.934 207.132 26.4439 206.397 29.947 205.625C30.8578 205.426 30.8578 205.426 31.7871 205.223C32.8946 204.981 34.0012 204.734 35.1066 204.482C35.5876 204.377 36.0686 204.272 36.5642 204.165C36.9754 204.072 37.3865 203.98 37.8101 203.885C41.0062 203.551 43.0725 204.953 45.6217 206.652ZM35.0897 209.396C34.6808 209.485 34.272 209.574 33.8508 209.665C32.96 209.859 32.0694 210.053 31.1789 210.248C28.7804 210.773 26.3805 211.292 23.9806 211.81C23.4827 211.918 22.9848 212.026 22.4718 212.137C18.0887 213.081 13.6991 213.992 9.30589 214.888C7.46565 215.264 5.62754 215.648 3.79068 216.04C0.0925442 216.824 -3.56019 217.589 -7.32129 217.993C-11.5862 218.503 -14.5756 219.011 -17.3826 222.473C-19.1023 224.903 -20.5412 227.456 -21.9402 230.08C-23.2845 232.52 -24.8509 234.807 -26.3973 237.121C-26.9221 237.907 -27.4413 238.697 -27.953 239.492C-28.1674 239.819 -28.3818 240.146 -28.6027 240.482C-29.6997 242.886 -28.7748 245.433 -28.2106 247.895C-28.1217 248.292 -28.0327 248.689 -27.9411 249.098C-27.6457 250.413 -27.3466 251.726 -27.0472 253.039C-26.8374 253.968 -26.6277 254.897 -26.4181 255.826C-24.859 262.715 -23.2442 269.59 -21.6129 276.462C-20.2258 282.306 -18.8711 288.157 -17.5686 294.021C-17.1744 295.795 -16.7699 297.565 -16.356 299.334C-15.5443 302.831 -14.7543 306.241 -14.4541 309.827C-14.0848 313.488 -13.6243 316.361 -10.7015 318.835C-7.38617 321.419 -3.76761 323.595 -0.0681631 325.582C1.54341 326.449 3.02854 327.331 4.46596 328.467C6.84345 330.296 8.81746 331.616 11.9121 331.414C14.5374 331.063 17.0792 330.401 19.6399 329.739C20.5891 329.515 21.5389 329.294 22.4894 329.076C24.4479 328.623 26.4024 328.157 28.3553 327.681C31.9827 326.803 35.6316 326.041 39.2867 325.289C40.987 324.938 42.6808 324.568 44.3726 324.178C47.9615 323.362 51.3354 322.647 55.0256 322.63C58.9013 322.571 62.6132 321.63 65.5482 318.972C66.5639 317.756 67.4612 316.513 68.3427 315.197C68.6669 314.73 68.9911 314.264 69.3251 313.783C70.3296 312.308 71.2994 310.815 72.2596 309.311C72.5759 308.821 72.8922 308.331 73.218 307.826C77.3429 301.786 77.3429 301.786 78.2828 294.835C77.9408 293.774 77.574 292.72 77.1902 291.673C76.9059 290.548 76.6562 289.418 76.407 288.285C76.1268 287.015 75.8285 285.751 75.5248 284.486C74.8526 281.684 74.1864 278.88 73.5214 276.075C73.4081 275.598 73.2947 275.121 73.178 274.629C72.1397 270.251 71.1293 265.867 70.1303 261.481C69.9652 260.757 69.8002 260.033 69.6351 259.31C68.7698 255.515 67.9088 251.719 67.0492 247.922C66.5855 245.876 66.1205 243.83 65.6553 241.784C65.4308 240.795 65.2069 239.806 64.9837 238.816C64.3796 236.138 63.7596 233.465 63.1236 230.795C62.8728 229.697 62.6536 228.598 62.4427 227.492C61.8431 224.57 61.2723 222.415 58.7112 220.675C57.7337 220.137 56.7523 219.606 55.7685 219.08C54.4449 218.243 53.1472 217.368 51.8457 216.496C51.1471 216.037 50.4479 215.579 49.7482 215.121C48.6677 214.413 47.5875 213.705 46.5084 212.996C45.4518 212.301 44.394 211.608 43.3359 210.916C43.0111 210.701 42.6863 210.487 42.3517 210.267C39.5351 208.429 38.2809 208.69 35.0897 209.396Z" fill="#0163BE"/>
<path d="M132.059 49.6301C132.571 49.9596 132.571 49.9596 133.093 50.2958C134.18 50.9962 135.263 51.7011 136.347 52.4062C137.415 53.0967 138.485 53.7864 139.554 54.4756C140.256 54.9301 140.957 55.3875 141.655 55.8477C143.267 56.9081 144.877 57.927 146.573 58.8492C149.293 60.3607 151.305 61.5634 152.21 64.6768C152.419 65.8015 152.61 66.9297 152.787 68.0599C153.018 69.131 153.268 70.1971 153.517 71.264C153.796 72.4615 154.063 73.661 154.326 74.8619C156.119 83.0307 157.976 91.1818 159.909 99.3182C161.822 107.37 163.664 115.435 165.459 123.514C165.548 123.914 165.637 124.315 165.729 124.727C165.903 125.513 166.077 126.3 166.249 127.086C166.691 129.089 167.152 131.085 167.647 133.075C167.747 133.484 167.846 133.892 167.949 134.313C168.138 135.086 168.332 135.858 168.533 136.628C169.362 140.049 168.908 142.283 167.097 145.327C166.504 146.263 165.905 147.196 165.302 148.125C164.985 148.62 164.668 149.116 164.341 149.626C163.501 150.936 162.655 152.242 161.808 153.548C161.291 154.348 160.777 155.15 160.265 155.954C159.279 157.5 158.286 159.043 157.292 160.584C156.834 161.302 156.834 161.302 156.368 162.033C156.078 162.477 155.789 162.92 155.491 163.377C155.239 163.767 154.988 164.156 154.728 164.558C152.988 166.733 151.086 167.323 148.422 167.874C148.097 167.943 147.771 168.012 147.435 168.083C146.347 168.311 145.258 168.533 144.169 168.755C143.391 168.917 142.614 169.079 141.837 169.242C140.155 169.594 138.472 169.943 136.789 170.289C134.008 170.863 131.23 171.445 128.451 172.029C124.146 172.934 119.839 173.831 115.532 174.726C112.966 175.26 110.402 175.802 107.84 176.356C106.387 176.67 104.933 176.98 103.479 177.29C102.82 177.432 102.16 177.575 101.501 177.721C100.607 177.919 99.7115 178.109 98.8158 178.299C98.0756 178.46 98.0756 178.46 97.3204 178.625C94.8082 178.911 92.8912 178.223 90.7279 176.989C90.0376 176.596 90.0376 176.596 89.3334 176.195C87.51 175.121 85.6943 174.036 83.8917 172.927C82.5313 172.091 81.1661 171.273 79.773 170.492C74.2102 167.34 69.5736 164.62 67.7887 158.186C67.3087 155.933 66.9377 153.683 66.642 151.398C66.3642 149.368 65.8936 147.412 65.3964 145.426C65.2429 144.761 65.0912 144.094 64.9414 143.428C64.6176 141.996 64.2928 140.564 63.9668 139.132C63.5992 137.517 63.2319 135.902 62.8651 134.287C61.8221 129.694 60.7742 125.103 59.7257 120.513C59.6178 120.04 59.5098 119.567 59.3986 119.08C57.5781 111.108 55.7293 103.144 53.8609 95.184C53.7668 94.7825 53.6726 94.381 53.5756 93.9673C53.402 93.2272 53.2281 92.4872 53.0539 91.7473C52.8999 91.091 52.7491 90.4339 52.6019 89.7761C52.388 88.8752 52.1278 87.9856 51.8664 87.0973C51.2851 82.8157 53.8659 79.4083 56.0745 75.9264C56.3862 75.4316 56.6978 74.9367 57.0189 74.4268C57.6769 73.3868 58.3375 72.3484 59.0006 71.3116C60.0111 69.7251 61.0032 68.1282 61.9953 66.5302C62.6386 65.5184 63.2828 64.5072 63.9283 63.4968C64.2217 63.0194 64.515 62.5421 64.8173 62.0502C67.1878 58.41 67.1878 58.41 69.4319 57.7604C70.1322 57.6395 70.8352 57.5335 71.5399 57.4413C72.2857 57.2796 73.0305 57.1132 73.7743 56.9425C74.5862 56.7727 75.3984 56.6044 76.2108 56.4372C76.655 56.3447 77.0992 56.2522 77.5568 56.1569C79.005 55.8556 80.4536 55.5562 81.9022 55.2568C82.915 55.0465 83.9278 54.836 84.9406 54.6254C87.0059 54.1962 89.0714 53.7678 91.137 53.3399C94.3268 52.679 97.5158 52.0145 100.705 51.3489C102.703 50.932 104.701 50.5163 106.701 50.1041C110.129 49.3968 113.553 48.6803 116.97 47.9177C117.529 47.7955 118.089 47.6732 118.665 47.5473C119.671 47.3271 120.674 47.1006 121.676 46.8659C122.11 46.7721 122.544 46.6783 122.991 46.5817C123.357 46.4982 123.724 46.4148 124.101 46.3288C127.132 46.2302 129.624 48.0359 132.059 49.6301ZM121.087 51.9698C120.427 52.1081 120.427 52.1081 119.754 52.2492C118.291 52.5561 116.828 52.8643 115.365 53.1725C114.346 53.3863 113.328 53.6 112.31 53.8136C110.18 54.2604 108.05 54.7077 105.92 55.1553C101.282 56.1296 96.643 57.0988 92.0039 58.0679C90.6061 58.36 89.2083 58.6522 87.8106 58.9445C87.1492 59.0817 87.1492 59.0817 86.4745 59.2217C85.6047 59.405 84.736 59.5941 83.8687 59.789C81.7607 60.2556 79.7298 60.6115 77.5739 60.7551C73.7495 61.0932 71.0581 61.6847 68.4836 64.6986C66.7688 66.9848 65.286 69.3893 63.8558 71.8614C62.9581 73.4129 62.0214 74.9345 61.0743 76.4562C60.4802 77.4314 59.8883 78.4079 59.299 79.386C58.8845 80.0703 58.8845 80.0703 58.4616 80.7684C57.0313 83.2083 57.0313 83.2083 56.6014 85.9476C56.7366 86.4098 56.8718 86.8719 57.0111 87.3481C57.1325 87.9211 57.2539 88.4941 57.379 89.0845C57.5298 89.7345 57.6821 90.3842 57.8356 91.0337C57.9612 91.5729 57.9612 91.5729 58.0893 92.123C58.2714 92.9047 58.4542 93.6862 58.6376 94.4676C59.1409 96.6129 59.6394 98.7593 60.1388 100.906C60.2972 101.585 60.2972 101.585 60.4588 102.279C61.6894 107.565 62.8955 112.857 64.1023 118.149C65.8343 125.744 65.8343 125.744 67.5884 133.334C67.6598 133.643 67.7312 133.952 67.8047 134.27C68.1438 135.734 68.4927 137.194 68.8565 138.652C69.5307 141.402 70.0853 144.099 70.3881 146.913C71.2076 155.487 71.2076 155.487 76.0109 162.277C79.3455 164.796 82.9924 166.771 86.7185 168.643C87.989 169.294 89.1593 170.005 90.3267 170.827C90.6064 171.023 90.886 171.219 91.1741 171.421C91.93 171.962 92.6755 172.517 93.4201 173.073C95.6095 174.061 97.1394 173.693 99.4353 173.207C99.9837 173.103 99.9837 173.103 100.543 172.998C101.705 172.774 102.862 172.531 104.019 172.284C104.453 172.192 104.887 172.101 105.335 172.007C106.757 171.708 108.179 171.406 109.601 171.104C110.598 170.894 111.595 170.684 112.592 170.474C114.147 170.146 115.701 169.819 117.255 169.491C120.954 168.709 124.655 167.936 128.356 167.166C129.379 166.953 130.403 166.74 131.427 166.527C132.9 166.22 134.373 165.914 135.847 165.608C136.545 165.463 136.545 165.463 137.257 165.315C137.708 165.222 138.159 165.128 138.623 165.032C139.896 164.765 141.166 164.49 142.437 164.214C143.754 163.931 145.037 163.703 146.373 163.516C149.171 163.082 150.461 162.439 152.168 160.136C152.771 159.171 153.357 158.195 153.926 157.21C154.397 156.442 154.397 156.442 154.877 155.659C155.524 154.603 156.165 153.544 156.8 152.48C157.71 150.979 158.655 149.51 159.624 148.046C160.062 147.38 160.062 147.38 160.509 146.701C161.061 145.864 161.615 145.028 162.171 144.194C162.415 143.816 162.659 143.438 162.91 143.049C163.124 142.722 163.339 142.395 163.559 142.059C164.587 139.807 163.818 137.56 163.278 135.245C163.2 134.907 163.122 134.57 163.042 134.222C162.781 133.096 162.517 131.97 162.253 130.845C162.065 130.039 161.879 129.233 161.692 128.427C161.394 127.141 161.096 125.855 160.797 124.569C160.053 121.369 159.318 118.166 158.589 114.962C158.483 114.497 158.377 114.032 158.268 113.553C158.052 112.606 157.837 111.66 157.621 110.713C156.326 105.03 155.028 99.3469 153.702 93.6706C153.494 92.7764 153.286 91.8821 153.078 90.9877C152.577 88.8353 152.065 86.6872 151.526 84.544C150.65 81.0152 149.861 77.7037 149.78 74.0484C149.665 70.2897 148.731 66.7086 146.073 63.9261C144.824 62.9348 143.548 62.0552 142.208 61.1914C141.501 60.713 141.501 60.713 140.781 60.2249C131.589 53.3231 131.589 53.3231 121.087 51.9698Z" fill="#0163BE"/>
<path d="M24.5892 77.7589C25.6486 78.4175 26.7134 79.0674 27.7835 79.7083C37.8271 85.7289 37.8271 85.7289 39.0217 89.9424C39.184 91.1366 39.317 92.335 39.4223 93.5355C39.6876 94.8357 40.0186 96.118 40.3406 97.4051C40.4983 98.0903 40.6539 98.7761 40.8075 99.4622C41.1468 100.973 41.4875 102.483 41.8302 103.993C42.2115 105.674 42.5921 107.355 42.9721 109.036C43.91 113.182 44.8565 117.327 45.8035 121.472C46.0223 122.43 46.241 123.387 46.4596 124.345C47.9517 130.881 49.4653 137.412 50.997 143.938C51.5752 146.406 52.1496 148.874 52.7232 151.343C53.1168 153.036 53.5117 154.728 53.9142 156.419C54.2717 157.926 54.6205 159.434 54.966 160.943C55.0645 161.347 55.1631 161.751 55.2646 162.167C55.9113 165.064 55.4314 166.626 53.956 169.148C53.6537 169.608 53.3515 170.069 53.0401 170.543C52.701 171.063 52.3618 171.583 52.0125 172.119C51.6466 172.675 51.2806 173.231 50.9146 173.786C50.1622 174.935 49.4112 176.085 48.6603 177.236C48.4723 177.523 48.2843 177.81 48.0907 178.106C46.8933 179.939 45.7173 181.785 44.5567 183.641C44.2738 184.093 43.991 184.545 43.6995 185.011C43.1732 185.855 42.6494 186.7 42.1284 187.547C41.8935 187.922 41.6585 188.297 41.4164 188.684C41.2155 189.009 41.0145 189.334 40.8074 189.669C39.4247 191.479 37.9239 191.83 35.7389 192.262C34.8689 192.438 34.8689 192.438 33.9814 192.617C33.5098 192.709 33.5098 192.709 33.0287 192.803C31.6524 193.073 30.2778 193.351 28.9031 193.629C28.1462 193.781 27.3892 193.934 26.6322 194.085C22.1659 194.982 17.7087 195.922 13.2507 196.859C10.3634 197.464 7.47492 198.065 4.58673 198.667C1.81959 199.244 -0.946149 199.828 -3.71074 200.417C-5.38649 200.774 -7.06311 201.126 -8.73994 201.477C-9.51907 201.641 -10.2978 201.808 -11.0761 201.976C-12.1445 202.206 -13.2141 202.43 -14.2842 202.653C-14.8825 202.78 -15.4808 202.907 -16.0972 203.038C-18.7691 203.372 -20.6238 202.767 -22.871 201.339C-23.3203 201.056 -23.7696 200.773 -24.2324 200.482C-24.7097 200.175 -25.187 199.868 -25.6787 199.551C-26.1747 199.235 -26.6708 198.919 -27.1819 198.594C-28.4958 197.754 -29.8067 196.91 -31.117 196.065C-31.9195 195.55 -32.7246 195.039 -33.5308 194.529C-35.0823 193.547 -36.6281 192.557 -38.1726 191.564C-38.6526 191.262 -39.1327 190.959 -39.6273 190.647C-40.0722 190.357 -40.5171 190.068 -40.9755 189.769C-41.5625 189.393 -41.5625 189.393 -42.1613 189.009C-44.3056 187.159 -44.8421 184.694 -45.4354 182.019C-45.5113 181.682 -45.5872 181.345 -45.6654 180.998C-45.9176 179.876 -46.1644 178.752 -46.4115 177.628C-46.5916 176.824 -46.772 176.019 -46.9529 175.214C-47.3413 173.485 -47.728 171.756 -48.1136 170.026C-49.0457 165.852 -50.0005 161.684 -50.9545 157.515C-51.2839 156.075 -51.6126 154.635 -51.9413 153.196C-53.2065 147.658 -54.4883 142.125 -55.7868 136.596C-56.466 133.703 -57.1398 130.81 -57.8117 127.915C-58.2597 125.987 -58.7106 124.059 -59.1683 122.133C-59.5909 120.354 -60.0054 118.573 -60.4136 116.791C-60.563 116.145 -60.7154 115.5 -60.871 114.856C-61.0821 113.98 -61.2815 113.102 -61.4802 112.224C-61.5944 111.737 -61.7086 111.249 -61.8262 110.747C-62.0952 107.051 -59.5745 103.948 -57.6844 100.954C-57.2169 100.212 -57.2169 100.212 -56.7399 99.454C-56.0806 98.4108 -55.4192 97.3688 -54.7561 96.3279C-53.7445 94.7389 -52.7532 93.1375 -51.7596 91.5372C-51.1157 90.5227 -50.4708 89.5089 -49.825 88.4956C-49.5315 88.0177 -49.2381 87.5398 -48.9357 87.0475C-47.0306 84.1083 -45.55 82.6665 -42.1073 81.8984C-41.23 81.6785 -41.23 81.6785 -40.335 81.4541C-39.744 81.3381 -39.1529 81.2221 -38.544 81.1025C-38.2105 81.0358 -37.8771 80.9691 -37.5335 80.9004C-36.8113 80.7563 -36.0887 80.6138 -35.3658 80.4728C-33.7866 80.1646 -32.209 79.8482 -30.6313 79.5323C-29.7813 79.3621 -28.9313 79.1922 -28.0811 79.0228C-23.346 78.0773 -18.6201 77.0883 -13.8944 76.0969C-12.4388 75.792 -10.9829 75.4888 -9.52688 75.1861C-5.4176 74.3303 -1.31156 73.467 2.78227 72.5398C3.69269 72.337 3.69269 72.337 4.62149 72.1301C5.69736 71.8891 6.77177 71.6413 7.84415 71.3852C8.30627 71.2825 8.7684 71.1797 9.24452 71.0739C9.63129 70.9834 10.0181 70.893 10.4165 70.7997C15.3632 70.5865 20.6277 75.2767 24.5892 77.7589ZM7.7697 75.961C7.17538 76.0945 6.58106 76.2281 5.96873 76.3657C5.65143 76.4387 5.33412 76.5117 5.00721 76.5869C3.29008 76.9816 1.57007 77.3635 -0.149506 77.7473C-0.505022 77.827 -0.860543 77.9067 -1.22683 77.9888C-4.71083 78.7679 -8.20481 79.4927 -11.7024 80.2085C-12.3231 80.3368 -12.9438 80.4652 -13.5645 80.5938C-17.1521 81.3358 -20.7425 82.0622 -24.3363 82.7744C-26.4126 83.1874 -28.4876 83.6071 -30.5624 84.0276C-31.589 84.2341 -32.6162 84.4377 -33.6439 84.6383C-35.0892 84.9207 -36.5322 85.213 -37.9751 85.5075C-38.4105 85.5901 -38.846 85.6727 -39.2946 85.7577C-41.644 86.2488 -43.0114 86.5945 -44.3981 88.6745C-44.5952 88.962 -44.7923 89.2495 -44.9954 89.5457C-45.7204 90.6164 -46.4214 91.7002 -47.1194 92.7887C-47.376 93.1867 -47.6325 93.5848 -47.8968 93.9949C-48.4374 94.8351 -48.9769 95.6759 -49.5155 96.5174C-50.3374 97.7997 -51.1648 99.0785 -51.9926 100.357C-52.5184 101.176 -53.0439 101.995 -53.569 102.814C-53.8155 103.194 -54.0619 103.574 -54.3159 103.965C-56.701 107.634 -56.701 107.634 -57.1001 111.886C-56.9461 112.479 -56.7921 113.072 -56.6334 113.683C-56.5504 114.015 -56.4674 114.347 -56.3818 114.688C-56.2005 115.409 -56.0152 116.128 -55.8264 116.847C-55.3068 118.827 -54.8171 120.814 -54.3216 122.801C-54.2165 123.218 -54.1114 123.636 -54.0031 124.066C-52.943 128.295 -51.991 132.546 -51.052 136.803C-49.2278 145.072 -47.3398 153.325 -45.3987 161.568C-45.2053 162.389 -45.0119 163.211 -44.8186 164.033C-44.7247 164.431 -44.6308 164.83 -44.534 165.241C-43.9116 167.892 -43.3075 170.547 -42.7133 173.205C-42.4847 174.22 -42.2558 175.235 -42.0268 176.25C-41.8196 177.175 -41.6173 178.102 -41.4151 179.028C-41.2911 179.577 -41.1672 180.125 -41.0395 180.69C-40.9351 181.163 -40.8307 181.636 -40.7231 182.123C-39.6665 185.44 -37.3789 186.736 -34.5688 188.536C-34.1505 188.807 -33.7322 189.079 -33.3012 189.359C-32.4175 189.931 -31.5324 190.501 -30.6459 191.069C-29.292 191.938 -27.9444 192.816 -26.5972 193.695C-25.7367 194.25 -24.8759 194.805 -24.0146 195.36C-23.6129 195.622 -23.2111 195.884 -22.7972 196.155C-19.6427 198.161 -17.5096 198.885 -13.8198 198.085C-13.4408 197.997 -13.0618 197.91 -12.6712 197.819C-12.265 197.73 -11.8587 197.64 -11.4401 197.548C-10.56 197.354 -9.68045 197.158 -8.80138 196.959C-6.91942 196.533 -5.03492 196.12 -3.15041 195.706C-2.16392 195.489 -1.17755 195.271 -0.191304 195.054C5.11632 193.883 10.4393 192.791 15.7648 191.706C16.6312 191.529 17.4975 191.352 18.3639 191.176C18.7828 191.09 19.2017 191.005 19.6333 190.917C20.4617 190.747 21.2897 190.576 22.1174 190.402C24.3347 189.938 26.5531 189.506 28.784 189.111C29.7383 188.931 30.6926 188.752 31.647 188.573C32.0898 188.5 32.5327 188.428 32.989 188.354C35.1173 187.941 36.5259 187.573 37.9015 185.835C38.2929 185.236 38.6715 184.628 39.0371 184.013C39.4227 183.43 39.8085 182.847 40.1945 182.264C40.5827 181.649 40.9692 181.033 41.3542 180.416C41.5625 180.085 41.7708 179.755 41.9854 179.414C42.6433 178.369 43.299 177.323 43.9545 176.276C44.6123 175.228 45.2706 174.181 45.9295 173.134C46.3371 172.486 46.744 171.838 47.1501 171.189C47.4307 170.742 47.4307 170.742 47.7169 170.287C47.8961 170 48.0753 169.713 48.2599 169.418C48.6212 168.864 48.9993 168.32 49.3932 167.789C50.5889 166.175 51.1031 165.209 50.8207 163.201C50.6586 162.317 50.4689 161.437 50.2596 160.563C50.1332 160.027 50.0068 159.492 49.8766 158.94C49.7348 158.35 49.593 157.76 49.447 157.152C49.1343 155.832 48.8236 154.512 48.5127 153.191C48.428 152.833 48.3434 152.475 48.2562 152.105C47.2036 147.643 46.1879 143.173 45.1693 138.703C43.2586 130.314 43.2586 130.314 41.3233 121.931C41.1894 121.353 41.0555 120.774 40.9175 120.179C40.6555 119.062 40.3875 117.946 40.1135 116.832C39.3416 113.644 38.7035 110.48 38.1844 107.242C36.7763 95.108 36.7763 95.108 29.9758 85.6932C28.0096 84.5555 26.0145 83.5876 23.9231 82.7025C21.4019 81.5549 19.1736 79.9784 16.8829 78.433C16.0894 77.9139 15.2929 77.3993 14.4927 76.8905C13.9982 76.5718 13.9982 76.5718 13.4938 76.2466C11.454 75.1601 9.91666 75.4696 7.7697 75.961Z" fill="#0163BE"/>
</svg>
