<svg width="360" height="383" viewBox="0 0 360 383" fill="none" xmlns="http://www.w3.org/2000/svg">
<path d="M359.91 157.205C360.331 154.545 359.273 153.261 356.787 152.345C356.05 152.073 355.356 151.683 354.641 151.349C350.191 149.268 345.634 147.473 340.722 146.876C329.945 145.565 319.498 142.786 309.088 139.85C299.671 137.194 290.266 134.493 280.879 131.727C277.213 130.647 273.614 129.333 270.076 128.157C270.023 127.718 269.952 127.492 269.976 127.274C270.462 122.733 270.202 122.024 265.933 120.89C260.008 119.316 254.023 117.927 248.009 116.739C237.966 114.757 227.852 113.128 217.819 111.099C210.467 109.611 203.201 107.692 195.882 106.029C193.03 105.381 190.138 104.91 187.191 104.346C186.805 95.8483 186.392 87.5582 186.062 79.2632C185.84 73.7059 185.835 68.1402 185.549 62.5876C185.309 57.9356 184.73 53.3026 184.429 48.6542C184.09 43.4308 183.904 38.1979 183.625 32.9709C183.546 31.4954 183.515 29.8016 181.945 29.1467C179.028 27.9289 176.065 26.7158 173.006 25.9607C169.485 25.0923 165.819 24.8216 162.252 24.1166C151.204 21.9349 140.168 19.6924 129.135 17.4284C122.45 16.0555 115.65 15.0356 109.129 13.0949C92.7518 8.21983 76.1918 4.22267 59.3277 1.52093C54.5075 0.749169 49.6157 0.00843218 44.7549 8.24098e-05C35.8398 -0.0154243 27.1846 2.16029 18.5367 4.11891C7.88713 6.52961 -2.75288 8.98918 -13.3893 11.4619C-15.1571 11.8722 -16.8843 12.4579 -18.6318 12.9541C-24.0937 14.5072 -29.5365 16.1342 -35.0271 17.5763C-37.8899 18.3278 -38.4374 18.5723 -38.7356 21.5556C-39.1865 26.0812 -39.6052 30.6211 -39.7531 35.1645C-40.1598 47.6999 -40.6334 60.2365 -40.8696 72.7755C-41.1499 73.3504 -41.336 73.9683 -41.4016 74.7413C-41.4231 74.9977 -41.0855 75.1218 -40.903 74.9846C-40.9412 77.2999 -40.9889 79.6152 -41.0067 81.9304C-41.1391 99.694 -40.8219 117.461 -40.6024 135.226C-40.4903 144.333 -40.1968 153.438 -39.9225 162.543C-39.7591 167.955 -39.4716 173.363 -39.2438 178.685C-47.0961 180.932 -54.9771 183.053 -62.771 185.454C-72.3327 188.401 -81.8288 191.561 -91.3344 194.687C-92.4998 195.07 -93.6377 195.691 -94.6171 196.431C-95.1646 196.844 -95.6286 197.712 -95.6644 198.399C-95.866 202.377 -96.095 206.368 -95.959 210.343C-95.9041 211.941 -95.2421 213.715 -94.3225 215.038C-93.194 216.66 -92.9066 218.183 -92.9865 220.105C-93.4016 230.002 -93.8334 239.905 -93.9181 249.807C-94.0004 259.48 -93.4815 269.156 -93.571 278.829C-93.6903 291.805 -94.1495 304.779 -94.4274 317.753C-94.4465 318.633 -94.4954 319.931 -93.9825 320.329C-91.9523 321.904 -89.7384 323.259 -87.5031 324.538C-87.1261 324.754 -85.9142 324.356 -85.7532 323.966C-84.8359 321.756 -82.9453 319.95 -83.4248 317.135C-83.9186 314.234 -83.9759 311.25 -84.1083 308.297C-84.9671 289.171 -84.4494 270.044 -84.1274 250.914C-83.9556 240.679 -83.9246 230.434 -84.1858 220.201C-84.2598 217.299 -83.6932 215.252 -81.1799 213.659C-80.8519 215.023 -80.6073 216.346 -80.2125 217.624C-79.3835 220.304 -77.2519 221.701 -74.7542 222.295C-72.5558 222.817 -71.2723 221.002 -70.0198 219.535C-69.3566 218.758 -68.8008 217.887 -68.2425 217.029C-67.8417 216.413 -67.5185 215.747 -67.1607 215.105C-66.903 215.297 -66.6453 215.489 -66.3877 215.681C-66.1885 217.25 -66.0954 218.842 -65.7662 220.383C-65.2736 222.681 -64.3992 224.844 -61.7679 225.401C-59.0291 225.981 -56.5457 225.494 -54.7576 223.065C-54.2495 222.376 -53.7282 221.696 -53.0972 220.856C-50.8261 230.08 -50.0961 230.79 -42.5932 231.079C-42.5932 232.28 -42.5503 233.503 -42.5992 234.721C-43.1097 247.461 -43.6107 260.202 -44.1833 272.939C-44.2703 274.871 -43.631 276.147 -41.9873 277.173C-38.2645 279.498 -34.1993 280.931 -29.9803 281.935C-24.3597 283.273 -18.8047 284.808 -13.3261 286.59C-13.6624 287.045 -14 287.498 -14.3292 287.961C-14.4688 288.158 -14.1861 288.451 -13.9881 288.302C-13.431 287.881 -12.9181 287.396 -12.4291 286.879C-10.5361 287.505 -8.65376 288.17 -6.77984 288.859C-6.84306 289.409 -6.86694 289.966 -6.80968 290.539C-6.80373 290.606 -6.70113 290.608 -6.7047 290.539C-6.73214 289.984 -6.67966 289.451 -6.59258 288.928C-4.94768 289.537 -3.30754 290.162 -1.67695 290.824C2.94882 292.703 7.69508 294.294 12.4222 295.912C23.9318 299.853 35.4521 303.767 46.9915 307.622C50.4364 308.773 53.9552 309.701 57.4418 310.725C59.6975 311.387 61.9555 312.039 64.3041 312.722C64.3041 313.64 64.3161 314.313 64.3029 314.986C63.9988 329.548 63.6075 344.11 63.425 358.674C63.3511 364.583 63.6266 370.504 63.9522 376.409C64.0918 378.935 68.3216 382.601 70.805 382.675C71.4456 382.694 72.1971 382.498 72.7279 382.146C74.9883 380.647 76.5413 378.691 76.5055 375.784C76.4316 369.865 76.4853 363.944 76.3219 358.027C75.9628 345.063 75.4976 332.102 75.0861 319.138C75.0479 317.945 75.0813 316.75 75.0813 315.339C76.3028 315.621 77.1723 315.76 77.9834 316.014C77.956 316.152 77.9107 316.285 77.8892 316.424C77.8451 316.706 78.0097 317.056 78.3508 317.031C78.5906 317.013 78.8304 316.996 79.0713 316.978C79.329 316.959 79.484 316.586 79.2144 316.45C79.2037 316.446 79.2049 316.422 79.1954 316.413C84.2279 318.089 89.2473 319.805 94.2882 321.454C95.6731 321.908 95.908 322.931 95.9116 324.116C95.9187 326.619 95.9415 329.124 95.8412 331.624C95.4858 340.5 95.0039 349.362 96.075 358.242C96.3422 360.46 97.0889 361.883 98.9664 362.819C102.119 364.391 105.298 365.911 108.446 367.494C110.061 368.306 111.328 367.996 112.835 366.959C115.232 365.311 117.886 364.038 121.19 362.18C120.928 345.887 120.657 329.088 120.385 312.144C122.811 311.411 125.009 310.856 127.131 310.087C136.537 306.675 145.898 303.139 155.318 299.768C167.932 295.253 180.593 290.87 193.219 286.388C199.97 283.991 206.708 281.556 213.42 279.051C229.835 272.926 246.229 266.747 262.633 260.595C264.923 259.736 267.149 258.523 269.732 259.486C270.052 258.723 270.418 258.219 270.464 257.687C272.13 238.25 271.08 218.828 269.839 199.273C288.805 193.59 307.575 187.964 326.482 182.298C326.283 185.841 325.883 189.34 325.934 192.832C325.988 196.721 326.135 200.607 326.281 204.494C325.987 205.107 325.769 205.725 325.695 206.342C325.665 206.589 326.019 206.64 326.133 206.46C326.2 206.355 326.273 206.254 326.34 206.149C326.449 209.106 326.551 212.062 326.6 215.02C326.813 227.884 326.872 240.751 327.027 253.617C327.104 259.994 327.292 266.369 327.345 272.745C327.365 275.244 328.311 277.123 330.396 278.476C331.731 279.341 333.043 280.241 334.346 281.152C336.042 282.336 337.7 282.134 339.472 281.253C343.006 279.497 346.591 277.844 350.577 275.947C350.577 274.38 350.66 272.457 350.563 270.543C350.039 260.198 349.35 249.86 348.95 239.51C348.402 225.297 348.097 211.078 348.482 196.852C348.682 189.46 348.901 182.069 349.126 174.679C349.139 174.243 349.268 173.811 349.387 173.121C352.377 172.695 354.574 169.863 357.993 170.598C358.328 170.669 359.077 170.035 359.211 169.598C359.597 168.324 360.119 166.939 359.954 165.681C359.587 162.836 359.455 160.071 359.91 157.205ZM-31.451 19.7652C-23.6118 17.9139 -15.7976 15.9493 -7.92735 14.2424C1.41129 12.217 10.7738 10.2834 20.172 8.55858C27.2467 7.26079 34.14 5.39522 40.8807 2.93919C45.5673 1.23106 50.2026 2.35708 54.6804 3.43659C70.0488 7.14269 85.4111 10.9085 100.652 15.1012C119.426 20.2662 138.433 24.3516 157.479 28.2986C160.596 28.9452 163.765 29.3376 166.901 29.8994C167.642 30.0318 168.346 30.3718 169.094 30.936C147.445 36.1606 126.104 42.2249 105.013 49.1409C105.071 49.4009 105.13 49.6609 105.188 49.921C107.623 49.5023 110.088 49.21 112.488 48.6458C130.543 44.4018 148.593 40.1386 166.621 35.786C169.366 35.1228 172.101 34.1936 174.64 32.9721C176.878 31.895 179.034 31.4381 181.763 31.8998C181.763 36.2238 181.715 40.5203 181.771 44.8145C181.997 62.0019 182.347 79.1881 182.465 96.3767C182.531 105.936 182.15 115.496 182.122 125.057C182.104 130.853 182.345 136.651 182.539 142.446C182.573 143.437 182.957 144.416 183.347 146.146C184.092 144.821 184.704 144.14 184.866 143.364C185.284 141.368 185.673 139.338 185.769 137.306C186.249 127.189 186.629 117.067 187.053 106.947C187.076 106.394 187.178 105.844 187.276 105.025C188.915 105.566 190.411 106.031 191.886 106.554C203.91 110.81 216.121 114.425 228.6 117.077C234.276 118.283 240.051 119.03 245.702 120.335C252.767 121.966 259.749 123.958 266.981 125.851C267.086 130.633 267.247 135.046 267.26 139.458C267.274 144.123 267.22 148.791 267.053 153.452C266.956 156.177 267.12 159.098 266.186 161.557C265.153 164.278 261.707 164.285 259.336 165.484C248.003 171.213 235.75 174.412 223.693 178.115C214.559 180.919 205.32 183.38 196.161 186.106C181.004 190.617 165.811 195.02 150.754 199.846C138.412 203.801 126.238 208.28 114.008 212.58C108.967 214.353 103.945 216.188 98.9724 218.14C96.6214 219.063 94.3777 219.047 91.9861 218.452C84.8231 216.671 77.6375 214.982 70.4627 213.246C69.8007 213.086 69.1315 212.906 68.5112 212.634C61.2684 209.462 53.5019 208.101 45.937 206.035C38.4401 203.989 30.9361 201.949 23.4797 199.761C24.4089 197.897 25.5409 196.109 26.6193 194.346C27.5866 192.764 28.7031 191.085 28.7902 189.18C28.8128 188.674 28.0268 188.675 28.0041 189.18C27.9003 191.491 26.1362 193.529 25.0256 195.462C24.5187 196.344 24.038 197.247 23.5692 198.148C23.432 198.413 23.2113 199.005 22.9525 199.604C20.8722 198.992 18.7943 198.374 16.7236 197.733C9.46044 195.489 2.39058 192.623 -4.82362 190.208C-7.91662 189.173 -11.0215 188.172 -14.1229 187.163C-12.3563 184.593 -10.4001 182.175 -8.63708 179.594C-6.26932 176.125 -4.29401 172.405 -1.82606 169.002C2.94167 162.428 7.61395 155.963 10.7236 148.396C10.8608 148.062 10.293 147.821 10.1368 148.149C6.45333 155.884 1.53294 162.406 -3.37911 169.357C-5.69797 172.639 -7.57188 176.21 -9.87045 179.506C-11.5953 181.979 -13.5825 184.243 -14.9841 186.882C-16.8879 186.264 -18.788 185.633 -20.6941 185.019C-18.9156 183.23 -17.8015 180.795 -16.4525 178.691C-13.839 174.613 -10.443 171.093 -7.46813 167.285C-4.60535 163.621 -1.44077 160.125 1.10471 156.224C3.18023 153.044 5.92731 149.754 6.61199 145.936C6.67879 145.564 6.11338 145.402 6.03942 145.779C5.29391 149.587 2.32139 153.128 0.137329 156.272C-2.50001 160.069 -5.68244 163.508 -8.56908 167.116C-11.0633 170.233 -13.8342 173.127 -16.1841 176.359C-18.1582 179.074 -19.6373 182.064 -21.7116 184.691C-21.8774 184.637 -22.0421 184.585 -22.2079 184.531C-21.8536 183.812 -21.5446 183.123 -21.2822 182.55C-19.4083 178.449 -17.2087 174.158 -17.2314 169.562C-17.2326 169.369 -17.5153 169.373 -17.5284 169.562C-17.8087 173.71 -19.9856 177.216 -21.6281 180.94C-22.0074 181.8 -22.4917 183.015 -23.0703 184.253C-25.8185 183.369 -28.5668 182.486 -31.315 181.599C-31.1147 181.354 -30.9214 181.092 -30.7425 180.787C-29.3242 178.356 -27.8857 175.999 -26.1943 173.737C-23.8515 170.605 -20.2564 167.102 -19.481 163.119C-19.3928 162.663 -20.0846 162.465 -20.1836 162.926C-21.1188 167.314 -25.4392 170.985 -27.9787 174.472C-29.4244 176.457 -30.6053 178.527 -31.9139 180.587C-32.063 180.822 -32.2502 181.033 -32.4494 181.235C-32.9719 181.067 -33.4956 180.9 -34.018 180.731C-34.655 180.525 -35.3063 180.361 -36.3046 180.076C-35.8204 176.54 -35.7154 173.051 -35.7762 169.591C-33.9214 165.273 -31.1278 161.381 -29.1119 157.106C-26.9362 152.491 -23.9971 148.288 -21.8846 143.64C-21.6401 143.101 -22.4345 142.627 -22.6873 143.171C-24.9883 148.131 -28.2113 152.571 -30.5779 157.498C-31.717 159.872 -32.9373 162.149 -34.3854 164.349C-34.9245 165.167 -35.4589 165.946 -35.8657 166.768C-36.0112 163.093 -36.2736 159.443 -36.4132 155.798C-36.3249 155.939 -36.1066 156.005 -35.9897 155.859C-34.6621 154.213 -33.9238 152.16 -32.9588 150.296C-31.7087 147.88 -30.0996 145.788 -28.3807 143.704C-27.442 142.566 -26.8396 141.638 -26.5378 140.194C-25.9832 137.543 -24.0496 134.659 -22.7327 132.178C-22.7184 132.152 -22.7184 132.127 -22.71 132.101C-22.5824 133.161 -22.0444 133.36 -20.1717 133.769C-16.728 134.522 -13.2533 135.132 -9.81082 135.888C-0.932632 137.837 7.92889 139.858 16.8095 141.792C19.2834 142.331 20.147 141.576 20.2842 139.046C20.549 134.162 20.7386 129.271 21.081 124.393C21.4639 118.949 21.8551 113.5 22.4885 108.082C22.8738 104.785 22.6507 104.162 19.4718 103.368C11.7507 101.439 4.04027 99.4709 -3.68089 97.5457C-8.08002 96.4483 -12.4672 95.2817 -16.9069 94.3739C-20.7335 93.5926 -21.9609 94.8034 -21.9192 98.593C-21.8619 103.82 -21.9049 109.049 -21.9049 114.276C-22.0194 114.276 -22.1339 114.275 -22.2484 114.275C-22.413 119.733 -22.5907 125.193 -22.7351 130.653C-22.747 131.114 -22.7458 131.473 -22.7303 131.788C-22.8699 131.517 -23.2886 131.397 -23.4782 131.743C-24.0675 132.815 -24.4993 134 -25.1374 135.041C-25.8794 136.252 -26.706 137.019 -27.2666 138.334C-27.838 139.673 -27.1664 139.939 -28.1457 141.647C-28.7732 142.741 -29.9063 143.561 -30.6924 144.541C-32.1894 146.404 -33.4466 148.509 -34.4904 150.65C-35.2156 152.139 -36.2653 153.721 -36.4275 155.395C-36.4657 154.329 -36.4955 153.261 -36.5026 152.195C-36.5277 148.809 -36.5277 145.422 -36.5218 142.036C-36.2903 141.706 -36.0792 141.375 -35.8896 141.084C-34.3782 138.764 -33.9631 136.187 -32.2574 133.941C-28.8089 129.4 -27.634 123.74 -24.3931 119.085C-24.0949 118.656 -24.7891 118.263 -25.0885 118.679C-28.1505 122.931 -29.36 128.182 -32.4721 132.393C-33.7627 134.138 -34.8017 135.501 -35.515 137.567C-35.7715 138.309 -36.1055 139.178 -36.517 140.026C-36.5086 137.133 -36.5027 134.241 -36.4955 131.348C-35.6629 130.433 -35.1011 129.355 -34.5858 128.126C-33.5528 125.666 -32.719 123.583 -31.3079 121.314C-30.7914 120.485 -30.6352 119.749 -30.3632 118.813C-29.8741 117.129 -29.0952 115.678 -28.3926 114.088C-27.4348 111.917 -26.799 109.82 -26.9445 107.438C-26.9648 107.113 -27.4109 107.122 -27.4431 107.438C-27.7497 110.45 -28.8757 112.805 -30.2773 115.439C-30.7389 116.306 -31.0133 117.115 -31.383 118.007C-31.9449 119.361 -32.6892 120.585 -33.3918 121.867C-34.6609 124.183 -35.3158 126.77 -36.4919 129.105C-36.4872 125.401 -36.4991 121.696 -36.5384 117.991C-36.2724 117.531 -36.0005 117.079 -35.7035 116.651C-34.3258 114.661 -32.812 112.761 -31.6288 110.644C-29.2097 106.319 -28.0408 101.433 -26.2229 96.8527C-26.1561 96.6857 -26.4281 96.5747 -26.5116 96.7309C-28.9604 101.32 -30.2916 106.455 -33.121 110.844C-34.0025 112.211 -35.3313 113.725 -36.5659 115.324C-36.6231 111.953 -36.8033 108.584 -37.0001 105.217C-36.7651 104.636 -36.548 104.045 -36.2844 103.501C-35.0152 100.882 -33.5958 98.3544 -32.4137 95.6908C-31.2459 93.0595 -30.1127 90.4281 -28.6897 87.9208C-27.6149 86.0278 -26.5235 84.3387 -26.1716 82.1559C-26.1299 81.8934 -26.5223 81.7742 -26.5784 82.0437C-27.1593 84.8457 -29.0499 86.9403 -30.4419 89.3593C-31.7874 91.6961 -32.849 94.1795 -34.0478 96.5914C-35.0307 98.5691 -36.1365 100.486 -37.1551 102.446C-37.309 99.8037 -37.4414 97.1616 -37.5237 94.5183C-36.7484 92.871 -35.9337 91.3514 -34.7707 89.8019C-33.4001 87.9769 -31.865 86.1709 -31.0705 83.9976C-30.6113 82.7404 -30.5934 81.334 -30.0018 80.1233C-29.4244 78.9388 -28.4666 77.944 -27.8272 76.7858C-27.2463 75.7313 -26.6416 74.5755 -26.2802 73.3791C-26.1859 73.3552 -26.1012 73.3039 -26.0798 73.187C-25.3987 69.6205 -23.0297 67.2599 -21.1522 64.3005C-20.8969 63.8985 -21.5351 63.5275 -21.7892 63.9283C-23.2826 66.2818 -25.3831 68.4277 -26.2635 71.0757C-26.5008 71.0256 -26.7871 71.1544 -26.8014 71.4705C-26.9159 74.1949 -29.0177 76.5806 -30.455 78.7158C-31.7612 80.6565 -31.8029 82.9371 -32.9278 84.9757C-34.0431 86.9963 -36.1901 89.0683 -37.6251 91.3156C-37.6955 88.3776 -37.7873 85.4385 -37.8875 82.5006C-35.8919 79.7201 -33.9381 76.6868 -32.4613 73.6307C-31.4892 71.6208 -30.8594 70.038 -29.3159 68.4384C-28.5083 67.601 -28.092 66.9461 -27.9072 65.7772C-27.8857 65.6436 -28.0634 65.5923 -28.1099 65.7211C-28.7875 67.5771 -30.2439 68.1521 -31.3675 69.568C-31.3878 69.5942 -31.4022 69.624 -31.4224 69.6503C-30.4193 67.298 -28.6276 65.5195 -26.9947 63.5335C-25.7517 62.021 -24.671 60.3916 -23.5235 58.8087C-22.1589 56.9276 -20.6226 55.1766 -19.2794 53.28C-18.9991 52.8839 -18.7451 52.4724 -18.4922 52.0609C-18.491 55.6143 -18.4886 59.1677 -18.4886 62.72C-18.7486 62.72 -19.0075 62.72 -19.2675 62.7188C-19.2675 67.8348 -19.2198 72.952 -19.2842 78.0681C-19.3272 81.5213 -19.4095 81.575 -16.0099 82.3348C-7.69594 84.1944 0.627594 86.0099 8.95232 87.8182C12.7312 88.6388 16.5148 89.4404 20.3104 90.1752C22.6519 90.6285 23.5668 89.9426 23.7016 87.6977C23.9867 82.9288 24.1501 78.1515 24.4829 73.3874C24.8789 67.7179 25.2821 62.0437 25.9179 56.3968C26.2709 53.2633 26.0157 52.5022 23.1624 51.7949C15.9971 50.0176 8.83421 48.2271 1.66891 46.4451C1.20013 46.3282 0.730171 46.2161 0.261391 46.0992C1.89555 44.2372 3.41163 42.2177 4.95992 40.4404C6.8577 38.2623 8.8068 35.8504 9.77061 33.0998C9.85172 32.8684 9.49983 32.7837 9.41037 33.0007C7.37183 37.982 2.91306 41.7847 -0.826454 45.832C-2.31152 45.4622 -3.7954 45.0865 -5.28524 44.737C-5.36993 44.7167 -5.45461 44.6952 -5.54049 44.6749C-3.85741 42.6615 -2.44275 40.3843 -0.911163 38.2826C0.919823 35.7705 3.89236 33.8811 5.30228 31.0708C8.78294 31.8843 12.266 32.6894 15.7132 33.6234C21.31 35.1407 26.8554 36.8512 32.4152 38.5021C39.8202 40.7016 47.1907 43.0288 54.6279 45.1103C63.4954 47.5926 72.4058 49.9269 81.3281 52.2052C83.8557 52.8505 86.4812 53.1416 89.0791 53.4601C90.0095 53.5746 90.9888 53.2883 92.196 53.1583C91.299 50.8192 89.5467 50.6092 87.9388 50.2609C82.1596 49.0096 76.3278 47.9731 70.5963 46.5369C61.3412 44.2181 52.2375 41.2265 42.9096 39.2881C31.7174 36.9621 21.0798 32.9352 10.2024 29.6561C-0.727448 26.3615 -11.7897 23.8613 -23.0977 22.3429C-25.9462 21.96 -28.729 21.094 -31.5417 20.451C-31.5047 20.2244 -31.4773 19.9942 -31.451 19.7652ZM-18.0353 129.221C-18.0353 118.634 -18.0353 108.216 -18.0353 97.2809C-12.4815 98.6896 -7.36552 99.9874 -2.11709 101.319C-2.69322 112.53 -3.2515 123.386 -3.83836 134.808C-4.73299 134.216 -5.28285 133.998 -5.61923 133.601C-7.03989 131.928 -8.88876 131.244 -10.9977 130.959C-12.7941 130.717 -14.5774 130.346 -16.3475 129.95C-16.9893 129.806 -17.5773 129.425 -18.0353 129.221ZM0.161209 102.037C0.954437 104.05 0.157616 125.206 -1.18789 134.652C-2.01929 129.417 -0.931419 105.092 0.161209 102.037ZM1.01047 132.79C1.34088 122.952 1.68442 112.766 2.03391 102.353C8.04456 103.754 13.8703 105.113 19.838 106.505C19.1402 116.5 18.4472 126.411 17.7076 137.013C11.8902 135.541 6.66923 134.22 1.01047 132.79ZM1.47092 30.163C2.48721 30.4087 3.50467 30.6473 4.52215 30.8859C3.77186 32.1062 1.48882 34.2854 1.25502 34.5013C0.131378 35.5438 -0.820496 36.5697 -1.72227 37.8043C-2.90675 39.4241 -4.16161 40.9652 -5.29241 42.6221C-5.7254 43.2567 -6.20251 43.8328 -6.688 44.397C-8.32097 43.9986 -9.95277 43.593 -11.5941 43.2447C-10.3953 41.9016 -9.29195 40.4631 -8.1874 39.238C-6.63554 37.5156 -4.61369 36.3896 -2.98309 34.7697C-1.49445 33.2906 -0.616539 30.9574 1.44824 30.1583C1.4554 30.1594 1.46257 30.1618 1.47092 30.163ZM-3.35644 49.6108C-3.0141 49.3472 -2.6813 49.0633 -2.35326 48.7723C-1.13897 49.0812 0.0753021 49.3914 1.30391 49.7039C0.730156 60.8568 0.16835 71.7902 -0.406593 82.9574C-0.890877 82.7749 -1.4169 82.7439 -1.634 82.4696C-3.65703 79.9157 -6.5544 79.4613 -9.50068 79.002C-9.86687 78.9448 -10.2307 78.8732 -10.5945 78.7993C-9.35514 74.7258 -6.64862 71.3548 -4.91306 67.5056C-4.05542 65.6042 -3.37911 63.6253 -2.40696 61.7776C-1.67695 60.3916 -0.912346 59.2489 -0.611755 57.6875C-0.50798 57.1483 -1.28688 56.9181 -1.44314 57.4584C-2.01808 59.4469 -3.33377 61.0894 -4.2093 62.9478C-5.18384 65.0174 -5.98305 67.1465 -7.09119 69.1553C-8.83271 72.3115 -10.7043 75.0526 -11.0406 78.7086C-12.2716 78.4414 -13.4787 78.1146 -14.6417 77.8474C-14.6417 67.2813 -14.6417 57.0362 -14.6417 46.0801C-14.4962 45.9763 -14.3567 45.8606 -14.2147 45.7497C-12.4195 46.2065 -10.6947 46.6467 -9.00208 47.0785C-9.14999 47.2598 -9.30387 47.4339 -9.44582 47.6224C-9.6152 47.8478 -9.28359 48.1663 -9.05934 48.0089C-8.74085 47.7858 -8.44622 47.5401 -8.14801 47.2956C-6.46613 47.7238 -4.80216 48.1484 -3.15368 48.5683C-3.33498 48.8033 -3.51866 49.0383 -3.69043 49.2769C-3.82999 49.4689 -3.54967 49.7588 -3.35644 49.6108ZM3.44147 50.4458C3.70032 50.4613 3.95917 50.4768 4.21801 50.4923C3.63591 61.3435 3.05499 72.1946 2.45858 83.3189C1.33971 80.332 2.17709 55.2362 3.44147 50.4458ZM5.24146 50.7106C11.4847 52.1563 17.3057 53.5042 23.2722 54.8867C22.5374 65.1724 21.8289 75.0943 21.081 85.5661C17.9486 84.662 15.384 83.8628 12.786 83.1901C10.2728 82.5388 7.7261 82.0187 4.69633 81.328C4.07487 71.4562 5.67564 61.2409 5.24146 50.7106ZM-35.5734 21.9743C-35.2478 20.5847 -34.1719 20.0658 -32.9671 20.8148C-27.5553 24.1798 -21.4528 25.0983 -15.4111 26.2351C-15.9873 27.3909 -16.8712 28.2736 -17.6262 29.3436C-18.4254 30.4768 -19.0755 31.7423 -19.7733 32.9399C-21.417 35.7621 -22.7625 38.749 -24.4158 41.5581C-25.7947 43.9008 -27.7402 45.9882 -28.9294 48.4204C-29.7477 50.0939 -30.195 53.3289 -32.1536 54.072C-32.4387 54.1805 -32.3325 54.6004 -32.026 54.5336C-30.4145 54.1841 -29.7382 52.3913 -29.1024 51.0494C-27.8022 48.3023 -26.1024 46.0133 -24.4694 43.4487C-22.5144 40.3796 -21.0878 37.0003 -19.3021 33.8298C-18.3324 32.1085 -17.3912 30.3825 -16.2401 28.7746C-15.633 27.9265 -15.1582 27.2442 -14.8791 26.3341C-13.6243 26.5738 -12.3718 26.8243 -11.1313 27.113C-7.27964 28.0088 -3.44113 28.9666 0.400955 29.9006C-0.407784 30.4231 -0.992264 31.1555 -1.6507 31.9761C-3.25625 33.9777 -4.98106 35.3637 -6.93371 37.0051C-8.68954 38.4818 -9.83347 40.3915 -11.408 42.0233C-11.7539 42.3823 -12.1345 42.7175 -12.5006 43.0622C-13.072 42.9501 -13.6434 42.8392 -14.2183 42.7497C-17.4962 42.2439 -18.4981 43.3294 -18.4874 46.6968C-18.4838 47.9289 -18.4874 49.1623 -18.4863 50.3945C-18.9622 51.2283 -19.4596 52.049 -20.0321 52.8327C-21.6973 55.1157 -23.551 57.2497 -25.203 59.5459C-27.6233 62.9108 -31.8435 66.302 -32.3814 70.6499C-32.3993 70.7918 -32.3087 70.8693 -32.1989 70.9027C-32.682 71.8224 -33.0721 72.8053 -33.5576 73.7059C-34.8613 76.1214 -36.6017 78.284 -37.9412 80.6708C-38.051 77.4752 -38.1547 74.2808 -38.2287 71.0841C-37.9853 70.7811 -37.742 70.4781 -37.5034 70.1572C-36.3691 68.6292 -35.6617 66.8495 -34.5417 65.3072C-33.5468 63.9391 -32.3397 62.7331 -31.3759 61.3411C-31.2912 61.2182 -31.228 61.0846 -31.1493 60.9594C-29.7405 59.1809 -28.5143 57.1829 -27.1139 55.3889C-25.1207 52.8339 -23.3613 50.1488 -21.6031 47.4327C-18.0985 42.0173 -13.8855 37.1053 -10.4931 31.6123C-10.2235 31.1757 -10.907 30.7785 -11.1802 31.2115C-14.5285 36.5291 -18.6592 41.2766 -22.1554 46.488C-23.8563 49.024 -25.5108 51.573 -27.3537 54.0124C-27.7545 54.5432 -28.1755 55.0585 -28.5966 55.5738C-28.7505 55.4461 -28.9664 55.4187 -29.1298 55.6239C-30.2153 56.9873 -30.7031 58.6 -31.6192 60.0612C-32.7715 61.8981 -34.4462 63.3653 -35.7023 65.1271C-36.6195 66.4142 -37.4104 67.7095 -38.2633 68.9906C-38.305 66.6289 -38.3265 64.2659 -38.3098 61.9029C-35.645 59.1725 -34.2041 55.2636 -32.1727 52.1253C-30.6984 49.8482 -29.2026 47.6331 -28.0205 45.1807C-27.1569 43.3879 -25.5943 41.6034 -25.1494 39.6973C-25.0289 39.182 -25.8149 38.9625 -25.9438 39.4778C-26.1871 40.4571 -27.294 41.6666 -27.7986 42.5768C-28.2531 43.3986 -28.6121 44.2789 -29.0499 45.1115C-30.158 47.2157 -31.5071 49.1409 -32.8228 51.115C-34.8076 54.0947 -36.3249 57.3499 -38.2931 60.326C-38.2585 57.7877 -38.1667 55.2493 -38.0283 52.7098C-36.2283 49.6323 -34.55 46.4833 -32.5306 43.5441C-31.3473 41.8217 -30.4932 39.9394 -29.4209 38.1538C-28.4058 36.4647 -27.2869 35.1013 -26.8694 33.1343C-26.7823 32.7264 -27.3787 32.5558 -27.498 32.9614C-28.1529 35.1836 -29.8527 36.949 -31.0049 38.9267C-32.0654 40.747 -33.1735 42.4384 -34.3735 44.1644C-35.416 45.6626 -36.2414 47.2633 -37.0776 48.882C-37.3329 49.3758 -37.6156 49.8613 -37.9042 50.3456C-37.7706 48.3858 -37.6656 46.4224 -37.5726 44.459C-35.4792 41.081 -33.8581 37.5609 -31.8649 34.1232C-30.8534 32.3781 -29.9576 30.5435 -28.8292 28.8712C-27.968 27.5949 -27.0746 26.5213 -26.7716 24.9862C-26.6666 24.4518 -27.4801 24.2204 -27.5934 24.7595C-27.9704 26.5559 -29.2884 27.8406 -30.2355 29.3447C-31.3818 31.165 -32.4578 33.0711 -33.5146 34.9463C-34.8888 37.3832 -36.4991 40.2496 -37.5082 42.999C-37.2971 38.2182 -37.1396 33.4326 -36.8426 28.6565C-36.7066 26.4128 -36.0923 24.1834 -35.5734 21.9743ZM-88.214 320.839C-90.8752 319.894 -91.8509 318.316 -91.8008 315.866C-91.6231 307.224 -91.6875 298.574 -91.3392 289.94C-90.9122 279.354 -91.0827 268.797 -91.5229 258.213C-91.9475 247.988 -91.734 237.736 -91.7913 227.496C-91.808 224.432 -91.7937 221.369 -91.7937 217.924C-90.447 217.985 -89.4032 218.033 -88.214 218.087C-88.214 252.401 -88.214 286.474 -88.214 320.839ZM-73.2679 219.433C-74.5454 220.711 -77.2984 219.537 -78.0881 217.253C-78.8217 215.13 -79.1127 212.844 -79.4956 210.612C-79.6221 209.872 -79.4265 209.076 -79.3513 207.897C-75.4699 209.115 -71.8365 210.255 -67.9264 211.482C-69.1097 214.791 -71.0683 217.235 -73.2679 219.433ZM-57.1003 221.355C-57.9628 222.597 -59.2176 223.007 -60.6621 222.76C-62.0613 222.52 -62.8104 221.522 -63.0478 220.222C-63.445 218.04 -63.7193 215.836 -64.1464 212.955C-60.4248 213.876 -57.4976 214.6 -54.4594 215.351C-54.7111 217.838 -55.8884 219.609 -57.1003 221.355ZM-40.7384 231.102C-40.7909 228.184 -38.7857 226.355 -37.7873 223.84C-37.6466 224.531 -37.5297 225.228 -37.3615 225.913C-36.8235 228.105 -36.5289 230.405 -35.6593 232.459C-35.4744 232.894 -35.2693 233.281 -35.045 233.622C-35.7536 234.921 -36.2593 236.301 -37.0895 237.546C-37.4092 238.026 -39.214 240.309 -40.6656 242.31C-40.6609 238.573 -40.6728 234.836 -40.7384 231.102ZM-40.6668 244.562C-38.6295 242.238 -36.8295 239.389 -35.4685 236.816C-35.057 236.037 -34.6454 235.303 -34.2267 234.576C-32.7154 235.949 -30.6709 235.81 -28.5036 234.129C-28.4904 234.119 -28.4785 234.106 -28.4654 234.097C-28.8352 236.135 -31.0395 238.114 -32.0403 239.804C-33.5432 242.341 -34.9567 244.682 -36.7818 246.992C-38.169 248.748 -39.0446 250.756 -40.4831 252.489C-40.5606 252.582 -40.6322 252.671 -40.7038 252.761C-40.6883 250.028 -40.6752 247.295 -40.6668 244.562ZM-29.4221 230.877C-30.6829 232.436 -31.6753 232.728 -32.5842 231.811C-32.5556 231.763 -32.5282 231.718 -32.4995 231.67C-31.9317 230.739 -31.6324 230.402 -31.7027 229.229C-31.7326 228.735 -32.4912 228.725 -32.4793 229.229C-32.4638 229.865 -32.7715 230.467 -33.1758 231.045C-33.325 230.8 -33.4717 230.523 -33.6184 230.208C-34.0907 229.195 -34.4617 228.088 -34.6252 226.987C-35.0403 224.207 -35.3122 221.405 -35.6927 218.165C-32.125 219.525 -28.9139 220.749 -25.4714 222.061C-25.7684 225.692 -27.4193 228.402 -29.4221 230.877ZM-34.748 277.221C-34.1814 274.377 -32.2359 272.083 -30.9345 269.519C-29.428 266.552 -28.073 263.472 -26.8193 260.391C-26.6595 259.996 -27.3274 259.714 -27.5111 260.1C-29.2395 263.749 -30.9429 267.479 -33.0721 270.912C-34.1814 272.702 -35.6223 274.723 -35.8442 276.884C-36.3762 276.717 -36.9094 276.55 -37.4402 276.38C-40.4843 275.407 -40.5428 275.337 -40.6382 272.059C-40.7038 269.813 -40.7229 267.566 -40.7312 265.318C-37.5022 260.985 -35.5472 255.754 -32.2824 251.443C-31.0407 249.803 -30.0662 248.218 -29.0809 246.405C-27.931 244.291 -27.0423 241.802 -25.2734 240.132C-24.9048 239.784 -25.4595 239.233 -25.8292 239.576C-27.3883 241.026 -28.166 242.883 -29.205 244.707C-30.5672 247.101 -32.0677 249.185 -33.6948 251.395C-36.2224 254.828 -39.0386 259.097 -40.7348 263.228C-40.7348 262.418 -40.7384 261.608 -40.7372 260.799C-40.7348 259.015 -40.7253 257.23 -40.7157 255.447C-40.3996 253.556 -38.1511 251.76 -37.216 250.01C-36.09 247.901 -34.4403 246.244 -33.2808 244.155C-32.0272 241.898 -30.9477 239.61 -29.4173 237.525C-28.4666 236.229 -27.4479 234.988 -27.5958 233.315C-27.5958 233.309 -27.5994 233.305 -27.6006 233.299C-27.176 232.86 -26.7788 232.389 -26.3935 231.919C-25.7625 231.149 -25.2364 230.293 -24.1438 228.729C-24.1438 231.153 -24.0818 232.773 -24.1545 234.387C-24.3466 238.645 -24.5518 242.903 -24.7569 247.162C-27.5338 250.634 -29.2371 254.898 -31.7003 258.573C-33.0315 260.561 -33.9309 262.833 -35.1261 264.91C-35.8418 266.154 -36.5969 267.375 -37.4032 268.561C-37.9674 269.391 -39.3845 270.668 -39.2414 271.732C-39.2712 271.512 -39.5718 271.439 -39.6457 271.677C-39.6946 271.833 -39.7436 271.988 -39.7925 272.144C-39.8951 272.471 -39.4919 272.632 -39.2664 272.45C-35.2585 269.204 -33.6423 264.252 -31.1338 259.946C-28.9115 256.132 -26.9517 252.197 -24.8106 248.332C-25.0181 252.662 -25.2221 256.991 -25.4082 261.32C-25.5573 264.788 -25.0301 265.598 -21.7033 266.966C-20.78 267.345 -19.8461 267.693 -18.9181 268.055C-20.0298 269.71 -21.4087 271.183 -22.4285 272.914C-23.4293 274.611 -24.4957 278.124 -26.2324 279.392C-27.2356 279.153 -28.2388 278.918 -29.2467 278.696C-31.0992 278.294 -32.929 277.776 -34.748 277.221ZM-2.53815 240.544C-4.78186 242.061 -7.24266 240.838 -7.41323 238.05C-7.61005 234.828 -7.32856 231.577 -7.24626 227.976C-3.96241 228.911 -1.05907 229.724 1.83472 230.571C2.9023 230.883 3.17188 231.703 2.97149 232.709C2.29277 236.13 0.237549 238.669 -2.53815 240.544ZM-0.748917 243.062C-1.32505 244.314 -2.23639 245.413 -2.77197 246.7C-3.46857 248.375 -3.9278 250.126 -4.45742 251.857C-5.59299 255.57 -7.38103 259.012 -8.64781 262.67C-8.75278 262.974 -8.31144 263.129 -8.14922 262.88C-6.12379 259.771 -4.55523 256.213 -3.45425 252.671C-2.91509 250.936 -2.50477 249.16 -1.87138 247.454C-1.59344 246.706 -0.271797 242.959 0.705132 242.667C1.09041 242.551 1.01884 242.081 0.719437 241.969C1.78821 241.05 2.79019 239.968 3.96035 238.898C4.52337 241.028 4.85496 242.983 5.51101 244.778C5.11499 245.894 4.87285 246.675 3.99374 247.888C2.86413 249.447 2.7735 250.748 2.19736 252.531C0.868553 256.643 -2.72066 259.783 -2.2149 264.378C-2.17316 264.752 -1.56721 264.923 -1.49087 264.476C-0.79306 260.414 1.65103 257.427 3.08481 253.68C3.451 252.725 3.54046 251.767 3.79811 250.795C4.13806 249.516 4.71422 248.969 5.46212 247.833C5.79015 247.336 5.9798 246.798 6.13367 246.252C8.7388 251.414 13.3968 251.991 17.8162 247.65C18.1204 247.35 18.2564 246.879 18.8039 246.512C19.9502 249.663 21.5008 252.056 24.8861 252.52C24.2992 259.009 23.729 265.305 23.1171 272.068C21.7358 271.757 20.4547 271.495 19.1867 271.178C11.2509 269.193 3.3019 267.261 -4.60772 265.177C-8.55836 264.137 -12.4124 262.73 -16.3559 261.656C-18.1606 261.164 -18.6938 260.062 -18.6652 258.424C-18.5876 253.874 -18.5339 249.323 -18.3991 244.775C-18.3455 242.966 -18.1033 241.164 -17.928 239.151C-14.2457 240.458 -12.6092 237.621 -10.2211 234.989C-10.2211 236.46 -10.2534 237.214 -10.2164 237.964C-9.94919 243.26 -5.1731 245.826 -0.748917 243.062ZM6.48793 231.679C10.992 232.713 15.0357 233.642 19.3358 234.629C18.7036 238.375 17.7207 241.725 15.9923 244.8C15.1311 246.331 13.7141 247.395 11.802 247.262C9.95669 247.132 9.07516 245.741 8.41553 244.255C6.66209 240.302 6.98534 236.08 6.48793 231.679ZM26.9258 248.746C25.0507 250.205 23.2901 249.791 22.1342 247.651C21.5104 246.495 21.0404 245.108 21.0058 243.811C20.9354 241.131 21.2026 238.442 21.3553 235.274C25.1831 236.474 28.579 237.539 32.2565 238.693C31.5468 240.874 31.0374 243.186 30.0343 245.259C29.3782 246.613 28.1437 247.799 26.9258 248.746ZM29.7325 264.728C29.7325 266.816 29.7325 268.903 29.7325 270.99C29.6538 270.988 29.5763 270.987 29.4975 270.986C29.4975 268.899 29.4975 266.811 29.4975 264.722C29.5763 264.725 29.655 264.726 29.7325 264.728ZM27.1405 273.163C26.7385 273.169 26.3365 273.175 25.9346 273.182C25.8081 272.261 25.5421 271.334 25.5779 270.419C25.8021 264.85 26.123 259.284 26.3497 253.715C26.4153 252.093 27.2932 251.606 28.8379 251.562C28.2677 258.818 27.7047 265.99 27.1405 273.163ZM27.15 278.934C25.3202 278.032 25.5636 277.056 25.9954 276.034C26.2817 276.024 26.5679 276.015 26.8542 276.004C26.9401 276.852 27.0248 277.7 27.15 278.934ZM-0.703598 287.245C1.1751 286.416 2.4884 283.746 3.41403 282.222C4.46133 280.498 5.60642 278.812 6.7742 277.166C6.93761 276.936 7.11416 276.71 7.29427 276.488C9.11452 277.025 10.9336 277.569 12.7503 278.119C12.1145 279.101 11.4537 280.054 10.8036 280.959C8.81754 283.724 6.94955 286.63 4.80008 289.273C2.96671 288.594 1.13216 287.917 -0.703598 287.245ZM9.26363 274.073C9.57377 273.633 9.8505 273.176 10.0557 272.679C10.2883 272.113 9.37457 271.873 9.14078 272.427C8.938 272.908 8.63265 273.353 8.29031 273.782C2.49319 272.029 -3.90157 269.924 -9.20844 268.013C-9.06292 267.651 -8.93649 267.288 -8.85538 266.927C-8.75399 266.477 -9.4315 266.286 -9.5484 266.736C-9.63667 267.078 -9.76669 267.419 -9.90864 267.759C-15.175 265.845 -19.252 264.153 -20.3697 263.25C-19.3641 263.055 -18.6747 262.703 -18.1224 262.853C-16.3773 263.328 -14.7074 264.068 -12.9682 264.569C-6.3242 266.481 0.334145 268.347 6.9913 270.218C9.88748 271.031 12.7872 271.831 15.6858 272.636C15.2981 273.607 14.827 274.576 14.3033 275.531C12.7216 275.09 11.0266 274.6 9.26363 274.073ZM-11.7026 270.718C-13.0088 272.417 -14.6095 273.993 -15.8549 275.311C-17.353 276.896 -19.3427 278.823 -19.9403 281.016C-21.683 280.537 -23.4329 280.078 -25.1899 279.648C-23.8313 278.485 -22.9593 275.993 -22.2973 274.73C-21.1164 272.477 -19.3749 270.558 -18.0986 268.38C-15.9801 269.195 -13.8485 269.978 -11.7026 270.718ZM16.4456 272.848C17.9939 273.28 19.5434 273.708 21.0893 274.15C23.2936 274.783 23.2781 274.838 22.7915 277.543C21.143 277.304 18.4627 276.666 15.2325 275.786C15.7204 274.814 16.1391 273.828 16.4456 272.848ZM-13.8497 234.284C-15.6962 237.018 -18.9932 236.584 -19.9796 233.457C-20.959 230.351 -21.887 227.151 -21.3383 223.345C-17.6453 224.58 -14.1467 225.752 -10.1162 227.1C-11.5499 229.909 -12.4744 232.249 -13.8497 234.284ZM-19.8532 241.033C-20.2325 247.282 -20.4377 253.541 -20.7645 259.794C-20.8039 260.537 -21.1689 261.263 -21.6186 261.974C-23.143 253.501 -22.4309 244.973 -22.9295 236.115C-20.2564 237.282 -19.722 238.872 -19.8532 241.033ZM-19.2663 281.2C-17.3531 278.603 -15.3241 276.27 -13.2211 273.807C-12.509 272.973 -11.6883 272.009 -10.9404 270.987C-8.65855 271.762 -6.36355 272.498 -4.05543 273.197C-5.00372 275.585 -7.41444 277.469 -8.65498 279.751C-9.4005 281.121 -10.2605 282.393 -11.1563 283.639C-13.8438 282.773 -16.5467 281.959 -19.2663 281.2ZM-5.32343 283.121C-5.48088 283.888 -5.70631 284.637 -5.93414 285.382C-7.34167 284.895 -8.75397 284.422 -10.1687 283.96C-9.35635 282.707 -8.63589 281.393 -7.97984 280.143C-6.72498 277.752 -4.27731 275.936 -3.38985 273.391C-1.86185 273.849 -0.332649 274.302 1.20609 274.731C2.88798 275.2 4.5639 275.693 6.23981 276.183C6.23266 276.193 6.22553 276.202 6.21838 276.21C5.1842 277.678 4.12852 279.154 3.15041 280.661C1.67607 282.933 0.547684 285.299 -1.7151 286.876C-2.99977 286.409 -4.28683 285.954 -5.57627 285.506C-5.31505 284.764 -5.06696 284.015 -4.90593 283.236C-4.85106 282.964 -5.26736 282.849 -5.32343 283.121ZM64.6346 308.3C63.9201 308.3 63.363 308.422 62.8811 308.281C57.208 306.635 51.5075 305.067 45.8893 303.248C37.672 300.59 29.4808 297.85 21.3004 295.079C22.6006 292.453 24.904 290.403 25.4813 287.361C25.5684 286.903 24.8682 286.707 24.7787 287.168C24.2431 289.954 21.5116 292.174 20.3903 294.771C18.7561 294.216 17.1196 293.672 15.4866 293.114C12.0608 291.944 8.66246 290.697 5.2653 289.443C7.78931 287.096 9.69185 284.281 11.6898 281.476C12.3709 280.519 13.0783 279.488 13.7463 278.417C19.0376 280.024 24.3219 281.657 29.6299 283.203C36.5054 285.206 43.4381 287.008 50.3398 288.925C55.2542 290.289 60.1591 291.693 65.4469 293.187C65.1797 298.166 64.9125 303.117 64.6346 308.3ZM31.6065 277.266C41.1479 279.617 50.3874 281.985 59.3563 285.308C60.9535 285.9 62.5686 286.444 64.1908 286.964C65.5339 287.394 65.5339 288.25 65.0604 289.631C60.2855 288.26 55.6287 286.888 50.9505 285.59C45.1438 283.978 39.3181 282.434 33.503 280.852C31.2259 280.232 31.2283 280.223 31.6065 277.266ZM65.3765 284.406C53.9265 281.016 42.6866 277.69 31.1663 274.279C31.1663 267.362 31.1663 260.239 31.1663 253.115C30.9695 253.11 30.7714 253.106 30.5746 253.101C30.5746 255.958 30.5746 258.816 30.5746 261.672C30.3301 261.677 30.0868 261.682 29.8423 261.688C29.8423 260.561 29.8351 259.432 29.8435 258.305C29.8614 256.147 29.9973 253.982 29.8756 251.833C29.7862 250.246 30.4196 249.343 32.0681 248.559C32.2685 250.082 32.2816 251.443 32.6549 252.695C33.1297 254.292 33.6211 256.007 34.5897 257.309C36.7869 260.262 40.524 260.462 43.2436 257.948C44.3017 256.971 45.17 255.788 46.5191 254.249C47.2551 258.21 48.4706 261.128 51.9596 262.579C55.8482 264.195 57.7925 261.521 59.9074 258.86C60.697 260.323 61.0966 261.711 62.002 262.56C62.9193 263.422 64.3351 263.753 65.9419 264.509C65.7629 270.838 65.5733 277.483 65.3765 284.406ZM49.2853 245.666C52.89 246.572 56.02 247.36 59.6819 248.282C58.5452 251.542 57.6839 254.455 56.4816 257.218C56.0534 258.201 54.7484 259.497 53.923 259.443C52.785 259.368 51.5397 258.313 50.688 257.366C50.0702 256.678 49.8292 255.499 49.7457 254.512C49.5107 251.722 49.4415 248.917 49.2853 245.666ZM65.3097 260.835C63.2425 259.376 62.8035 257.589 62.7391 255.655C62.6735 253.721 62.7332 251.783 62.6485 249.849C62.5936 248.626 62.3741 247.411 62.2405 246.287C56.3575 245.14 51.0686 242.623 44.613 242.63C46.1231 244.19 46.6098 245.572 45.7605 247.124C44.3482 249.705 43.1422 252.429 41.4687 254.829C39.949 257.008 37.8962 256.782 36.5674 254.492C35.9626 253.45 35.6119 252.173 35.4736 250.964C35.1253 247.916 34.9678 244.844 34.7269 241.783C34.6303 240.545 34.5169 239.308 34.4179 238.155C28.5767 234.228 22.1497 232.44 15.5809 230.898C8.28435 229.183 1.00214 227.363 -6.1906 225.259C-13.1114 223.235 -19.883 220.711 -26.7716 218.568C-29.4638 217.731 -32.2932 217.339 -35.2383 216.704C-35.5269 215.988 -35.9229 215.008 -36.5468 213.462C-37.2374 214.564 -37.6919 215.133 -37.9794 215.777C-39.2342 218.578 -40.4187 221.411 -41.6783 224.209C-42.0481 225.032 -42.4918 225.853 -43.0548 226.553C-44.7463 228.656 -46.9494 228.523 -48.3462 226.265C-50.1796 223.302 -50.0854 219.945 -50.0746 216.66C-50.0722 216.049 -49.0559 215.441 -48.4416 214.757C-49.6011 213.788 -50.6985 212.868 -51.7911 211.953C-52.5139 212.229 -53.2869 212.831 -53.9382 212.72C-57.0753 212.189 -60.2279 211.629 -63.2649 210.711C-64.1917 210.431 -64.7678 208.987 -65.7042 207.827C-67.1141 210.166 -69.0954 209.278 -70.9824 208.803C-73.4063 208.194 -76.0365 207.907 -78.1478 206.718C-79.7915 205.791 -81.4531 205.629 -83.1015 205.094C-84.9266 204.503 -86.6693 203.662 -88.7126 203.406C-86.3937 204.732 -84.0761 206.057 -81.7477 207.387C-82.0339 211.311 -84.0188 213.821 -87.546 215.14C-90.1321 216.108 -92.5547 214.871 -92.903 212.148C-93.4338 207.996 -93.67 203.808 -94.0421 199.496C-92.3066 198.764 -90.9062 197.949 -89.3973 197.571C-79.5601 195.107 -70.1296 191.448 -60.7051 187.8C-58.1572 186.813 -55.9302 187.222 -53.498 187.913C-45.1888 190.271 -36.7472 192.208 -28.5406 194.873C-13.5122 199.753 1.41844 204.945 16.3204 210.201C21.8897 212.165 27.1799 214.93 32.7599 216.857C39.0866 219.042 45.5995 220.688 52.0264 222.585C60.7459 225.156 69.4476 227.794 78.1838 230.307C84.7384 232.193 91.3371 233.924 97.9144 235.734C99.0774 236.054 100.226 236.423 101.402 236.776C101.196 237.233 101.156 237.534 101.022 237.587C94.9812 239.906 88.9467 242.239 82.8812 244.489C78.3079 246.185 73.6905 247.762 69.0993 249.409C67.7872 249.88 67.7096 250.954 67.6548 252.179C67.5236 255.146 66.5097 257.879 65.3097 260.835ZM108.6 271.641C108.527 271.573 108.375 271.603 108.371 271.734C108.254 274.609 107.76 277.307 106.501 279.906C105.656 281.652 104.539 283.245 103.768 285.03C102.565 287.811 101.539 290.651 100.245 293.402C99.8932 294.148 99.4948 294.878 99.1048 295.612C99.1107 292.994 99.1167 290.375 99.1227 287.757C100.572 283.4 103.887 279.666 105.434 275.268C106.329 272.726 107.718 270.219 108.637 267.614C108.622 268.957 108.613 270.299 108.6 271.641ZM106.308 270.886C105.292 272.984 104.597 275.186 103.632 277.304C102.404 279.998 100.275 282.637 99.1275 285.47C99.1287 284.627 99.1322 283.783 99.1334 282.939C99.1346 282.197 99.1358 281.455 99.137 280.713C100.426 278.924 101.035 276.614 101.816 274.56C103.54 270.03 106.119 265.943 107.643 261.305C107.69 261.164 107.589 260.979 107.441 260.951L106.94 260.849C106.605 260.781 106.462 261.27 106.797 261.367C107.264 261.501 101.777 272.037 101.325 273.03C100.527 274.784 99.904 276.554 99.1418 278.262C99.1453 276.039 99.1501 273.814 99.1525 271.591C99.4138 271.083 99.663 270.565 99.9362 270.077C101.721 266.891 103.943 263.835 105.373 260.475C106.071 258.835 106.696 257.189 107.661 255.684C108.016 255.13 108.493 254.586 108.744 253.961C108.758 254.26 108.777 254.56 108.774 254.863C108.742 258.29 108.7 261.715 108.66 265.142C108.14 267.139 107.229 268.987 106.308 270.886ZM107.811 252.589C108.666 253.244 106.722 255.297 106.464 255.686C105.175 257.626 104.56 259.932 103.416 261.953C102.267 263.982 100.955 265.921 99.7955 267.947C99.5963 268.296 99.3827 268.747 99.1573 269.232C99.1608 266.953 99.1644 264.675 99.1692 262.395C100.123 260.89 101.14 259.416 101.995 257.89C102.693 256.645 103.556 255.445 104.255 254.183C105.415 253.664 106.596 253.134 107.811 252.589ZM97.584 259.178C95.7912 260.576 94.8297 262.59 93.3721 264.31C91.7666 266.205 90.0787 268.03 88.4708 269.924C86.8819 271.796 85.1392 273.728 83.5182 275.737C83.542 274.108 83.5647 272.484 83.5885 270.856C84.9615 268.965 86.2438 267.072 87.8147 265.314C90.8684 261.899 93.8361 258.427 96.6201 254.787C96.9183 254.399 96.2396 253.869 95.9355 254.259C92.7089 258.409 89.0517 262.155 85.7273 266.211C84.9722 267.132 84.2887 268.102 83.6136 269.079C83.6637 265.649 83.7126 262.218 83.7615 258.794C84.1671 258.702 84.4366 258.547 84.5738 258.625C87.8469 260.466 89.3117 260.345 91.5745 257.524C92.7578 256.048 93.5212 254.236 94.6079 252.344C95.7339 253.351 96.9505 254.439 97.7199 255.126C97.6781 256.481 97.6376 257.82 97.5958 259.17C97.5923 259.176 97.5876 259.176 97.584 259.178ZM83.542 247.147C86.598 246.045 89.2222 245.098 91.8417 244.153C93.9363 249.269 92.128 254.737 87.3221 257.509C83.8211 254.822 85.3026 250.471 83.542 247.147ZM102.836 254.821C101.851 256.476 100.758 258.087 99.7823 259.677C99.5819 260.002 99.378 260.324 99.1716 260.643C99.174 259.325 99.1752 258.007 99.1787 256.69C99.1787 256.482 99.3433 256.275 99.2849 256.413C100.494 255.87 101.666 255.344 102.836 254.821ZM105.54 249.77C105.485 249.945 105.416 250.107 105.342 250.267C105.214 250.219 105.044 250.259 104.99 250.413C104.879 250.728 104.75 251.04 104.62 251.35C102.873 253.222 99.5068 253.379 97.4706 251.464C94.9728 249.116 94.6818 246.197 95.0027 242.815C98.8519 241.189 102.774 239.532 107.062 237.72C107.716 242.154 106.725 246.013 105.54 249.77ZM71.2404 343.101C71.3168 353.789 71.7748 364.475 72.079 375.161C72.1219 376.664 72.2889 378.174 70.5414 378.968C68.646 378.715 67.5033 377.663 67.2647 375.679C66.9259 372.867 66.2628 370.056 66.2735 367.247C66.32 354.85 66.5717 342.454 66.722 330.057C66.8055 323.234 66.722 316.408 66.9224 309.588C67.1431 302.098 67.6595 294.617 67.9232 287.127C68.0067 284.769 67.613 282.398 67.5689 280.029C67.4747 275.025 67.2719 270.009 67.5236 265.019C67.6202 263.107 68.8369 261.251 69.6385 259.115C72.3665 261.536 72.2794 264.279 72.0635 267.381C71.5422 274.861 71.3323 282.374 71.2834 289.876C71.1677 307.619 71.1128 325.361 71.2404 343.101ZM71.9167 257.916C71.1915 256.065 70.7823 254.088 70.2456 252.22C73.8157 249.465 77.8224 248.954 81.6514 247.576C83.1364 251.66 82.6176 255.205 80.3942 258.527C77.8308 262.356 73.465 261.864 71.9167 257.916ZM74.4276 264.038C76.7393 263.432 79.2693 262.769 81.9889 262.055C81.7778 265.389 81.5643 268.763 81.3484 272.162C80.659 273.021 79.9981 273.907 79.7154 274.954C79.6606 275.158 79.9492 275.284 80.0566 275.099C80.3834 274.536 80.8128 274.032 81.2613 273.54C81.1409 275.447 81.0192 277.371 80.8963 279.307C80.4466 279.994 80.0172 280.686 79.6391 281.393C79.4792 281.693 79.855 281.984 80.1055 281.754C80.3381 281.54 80.5576 281.309 80.7842 281.086C80.6303 283.52 80.4741 285.98 80.3166 288.47C79.8944 288.854 79.4447 289.188 78.995 289.532C77.4538 289.277 76.0642 289.045 74.4288 288.775C74.4276 280.394 74.4276 272.141 74.4276 264.038ZM79.9683 292.903C80.1603 292.964 80.0995 293.83 80.2415 295.056C77.8892 293.953 76.2598 293.188 74.6292 292.423C76.6678 291.469 78.2995 292.378 79.9683 292.903ZM95.7959 317.882C94.2178 317.497 92.7959 317.203 91.4051 316.801C87.5666 315.692 83.7376 314.554 79.9051 313.424C81.2983 309.877 84.0585 304.421 84.4032 303.86C84.7336 303.322 83.8939 302.837 83.5599 303.368C82.1667 305.578 81.1432 307.929 80.0948 310.315C79.6868 311.241 79.255 312.173 78.8721 313.121C78.3711 312.973 77.8701 312.827 77.368 312.68C76.1238 312.315 74.9728 311.922 74.9835 310.269C75.0121 305.748 74.993 301.229 74.993 296.416C77.3656 297.386 79.6964 298.337 81.8124 299.202C83.4645 297.98 83.2354 296.588 83.2533 295.216C83.2581 294.827 83.2641 294.439 83.2688 294.052C84.2231 291.906 85.3969 289.853 86.8175 288.004C87.5678 287.028 88.3885 286.112 89.029 285.056C89.994 283.466 90.4115 281.651 91.6258 280.197C91.9586 279.799 91.3932 279.221 91.0496 279.621C90.056 280.781 89.6039 282.059 88.9288 283.416C87.9554 285.371 86.4167 286.892 85.1642 288.658C84.4795 289.624 83.8521 290.637 83.2999 291.685C83.3249 289.78 83.3512 287.876 83.3762 285.971C84.6036 284.188 86.0971 282.621 87.1968 280.734C89.1889 277.313 93.1156 274.414 93.384 270.1C93.4174 269.568 92.6039 269.577 92.5598 270.1C92.3892 272.123 90.7777 274.709 89.425 276.245C88.0831 277.77 87.093 278.868 86.0422 280.647C85.3217 281.867 84.3173 282.864 83.4036 283.935C83.4299 281.984 83.4549 280.032 83.4824 278.082C85.5758 275.504 87.4843 272.695 89.5765 270.221C91.058 268.469 92.5658 266.739 94.0365 264.978C95.283 263.483 96.1884 261.683 97.5589 260.32C97.5279 261.34 97.4969 262.358 97.4646 263.377C96.7251 264.691 96.1394 266.068 95.9581 267.648C95.9211 267.975 96.4233 268.016 96.5128 267.724C96.7466 266.965 97.0555 266.237 97.3979 265.523C97.3227 267.99 97.2464 270.464 97.1712 272.922C96.8384 273.358 96.4818 273.722 96.0953 273.938C95.8114 274.097 96.0023 274.554 96.3172 274.463C96.6225 274.375 96.8885 274.244 97.1367 274.093C97.0544 276.788 96.972 279.478 96.8885 282.166C96.885 282.171 96.8826 282.176 96.879 282.181C96.7955 282.288 96.8098 282.431 96.8778 282.525C96.5187 294.3 96.1597 306.039 95.7959 317.882ZM116.28 360.931C114.919 361.439 113.581 362.009 112.365 362.498C112.103 351.677 111.843 340.97 111.583 330.263C111.303 330.261 111.021 330.257 110.741 330.255C108.69 341.289 109.435 352.463 109.374 363.882C106.683 362.615 103.988 361.321 101.27 360.078C101.164 360.029 101.075 359.973 100.983 359.919C102.121 357.818 102.508 355.353 103.412 353.109C104.994 349.183 106.525 345.275 107.989 341.296C108.127 340.919 107.527 340.758 107.389 341.13C105.93 345.062 104.344 348.894 102.754 352.768C101.836 355.003 101.447 357.37 100.487 359.54C99.9147 358.959 99.7632 358.172 99.731 357.289C99.5068 351.267 99.0964 345.244 99.0773 339.22C99.0737 338.251 99.0797 337.281 99.0773 336.311C100.046 333.952 101.79 331.783 102.851 329.469C104.017 326.931 105.265 324.444 106.462 321.923C107.486 319.768 108.171 317.477 109.156 315.311C109.414 318.089 109.784 320.32 110.246 321.243C111.429 318.997 111.337 307.599 110.342 300.298C110.367 299.49 110.367 298.683 110.354 297.891C110.35 297.631 109.98 297.628 109.944 297.865C109.819 297.23 109.685 296.653 109.542 296.156C109.006 297.51 108.755 301.075 108.737 305.126C108.464 305.9 108.137 306.679 107.749 307.477C106.732 309.574 106.713 311.831 105.739 313.931C103.985 317.717 100.4 320.501 100.014 324.866C99.9815 325.232 100.552 325.293 100.645 324.951C101.922 320.239 106.239 317.024 107.251 312.27C107.513 311.035 107.573 309.848 108.061 308.664C108.261 308.176 108.507 307.713 108.749 307.247C108.781 309.47 108.878 311.747 109.031 313.818C108.515 314.916 107.851 316 107.464 317.002C106.408 319.733 105.078 322.267 103.799 324.893C102.663 327.222 101.749 329.675 100.51 331.954C100.059 332.783 99.5509 333.575 99.0797 334.389C99.069 328.533 99.069 322.677 99.0773 316.82C100.227 315.853 100.969 314.439 101.587 313.078C103.203 309.521 105.063 306.038 106.61 302.463C107.833 299.636 108.659 296.639 109.778 293.771C110.414 292.141 110.763 290.88 109.491 289.555C109.284 289.34 108.968 289.661 109.165 289.88C110.771 291.658 108.404 295.275 107.721 297.246C106.81 299.867 105.861 302.367 104.504 304.798C103.407 306.76 102.459 308.721 101.579 310.791C101.479 311.027 100.097 313.751 99.0786 315.403C99.0822 312.711 99.0797 310.019 99.0869 307.325C99.4077 306.54 99.6428 305.695 99.9422 304.981C100.683 303.217 101.826 301.739 102.847 300.142C103.69 298.824 103.8 297.847 104.116 296.362C104.531 294.405 105.666 293.113 106.352 291.299C106.986 289.625 107 287.804 107.445 286.081C107.972 284.038 108.781 282.178 107.091 280.512C106.813 280.239 106.398 280.656 106.664 280.939C108.208 282.583 106.417 287.306 105.958 289.236C105.355 291.766 103.58 293.654 103.091 296.213C102.551 299.04 100.947 300.693 99.6559 303.173C99.4328 303.601 99.2574 304.108 99.0928 304.646C99.0988 302.051 99.1036 299.455 99.1107 296.86C100.104 295.168 101.121 293.527 101.94 291.673C103.054 289.156 103.852 286.492 105.037 284.014C106.868 280.18 108.346 277.088 108.595 272.964C108.583 274.325 108.565 275.684 108.557 277.045C108.55 278.25 108.802 279.456 109.281 280.65C110.855 271.267 110.017 261.8 110.484 252.166C112.668 251.47 114.802 250.79 117.357 249.977C117.443 251.987 117.588 253.727 117.579 255.466C117.577 256.072 117.571 256.679 117.569 257.285C117.429 257.543 117.282 257.79 117.15 258.058C116.645 259.082 115.889 259.97 115.759 261.109C115.745 261.238 115.938 261.25 115.975 261.139C116.265 260.259 117.021 259.303 117.561 258.415C117.472 275.306 117.318 292.198 117.306 309.09C117.3 318.765 117.586 328.438 117.694 338.115C117.769 344.939 117.742 351.764 117.813 358.588C117.818 359.789 117.392 360.516 116.28 360.931ZM118.706 249.713C120.499 249.038 122.305 248.406 124.116 247.789C124.074 247.868 124.031 247.947 123.984 248.035C123.104 249.625 121.916 250.898 120.844 252.348C120.232 253.177 119.648 253.976 119.092 254.79C118.971 253.098 118.859 251.407 118.706 249.713ZM131.077 245.541C129.571 248.575 128.111 251.576 126.116 254.407C124.637 256.506 123.348 258.721 121.96 260.88C121.203 262.059 120.319 263.161 119.64 264.375C119.52 261.484 119.354 258.589 119.159 255.693C119.654 254.962 120.181 254.251 120.718 253.512C121.551 252.365 122.464 251.276 123.301 250.135C123.737 249.541 124.216 248.432 124.743 247.576C126.843 246.869 128.954 246.193 131.077 245.541ZM120.369 310.089C120.016 295.148 120.26 280.359 119.686 265.53C120.778 263.755 122.15 262.139 123.261 260.367C124.525 258.349 125.745 256.314 127.121 254.368C129.134 251.517 130.513 248.407 131.937 245.277C137.186 243.68 142.512 242.196 147.934 240.656C147.798 260.068 147.921 279.193 149.496 298.308C139.797 302.231 130.259 306.088 120.369 310.089ZM179.273 238.924C178.913 237.552 178.749 236.924 178.531 236.102C178.531 253.231 178.531 270.122 178.531 287.435C170.107 290.639 161.443 293.932 152.367 297.383C150.609 277.976 150.186 259.055 150.121 239.932C159.789 237.012 169.311 234.137 179.273 231.129C179.273 233.782 179.273 235.943 179.273 238.924ZM180.692 281.582C180.618 281.585 180.544 281.588 180.47 281.591C180.47 277.012 180.47 272.432 180.47 267.852C180.544 267.848 180.618 267.842 180.692 267.837C180.692 272.419 180.692 277 180.692 281.582ZM183.813 284.746C182.891 266.794 181.969 248.87 181.032 230.622C182.431 230.269 183.508 229.997 185.006 229.619C185.084 231.267 185.177 232.69 185.215 234.115C185.65 250.036 186.074 265.959 186.51 281.881C186.577 284.259 186.601 284.257 183.813 284.746ZM210.158 275.292C203.298 277.875 196.437 280.458 189.541 283.055C188.806 280.082 187 235.325 187.301 228.966C194.805 226.26 202.344 223.54 210.158 220.723C210.158 239.05 210.158 257.062 210.158 275.292ZM267.731 226.647C267.603 235.412 267.303 244.174 267.136 252.937C267.107 254.43 266.493 255.21 265.109 255.656C263.167 256.281 261.269 257.044 259.352 257.747C251.559 260.601 243.784 263.506 235.967 266.291C228.904 268.808 221.798 271.196 214.705 273.628C214.401 273.732 214.054 273.71 213.314 273.794C212.925 255.911 212.539 238.125 212.142 219.813C214.971 218.739 218.205 217.513 221.914 216.106C221.914 220.08 221.867 223.554 221.924 227.027C222.087 237.038 222.272 247.048 222.493 257.059C222.568 260.454 223.34 261.09 226.677 260.28C234.839 258.3 243.036 256.436 250.619 252.594C252.622 251.579 254.887 251.063 257.05 250.378C260.117 249.404 260.948 248.635 260.839 245.584C260.549 237.516 260.048 229.459 259.677 221.394C259.394 215.267 259.183 209.137 258.925 202.655C261.818 201.721 264.584 200.828 267.655 199.835C267.73 200.937 267.825 201.673 267.824 202.408C267.807 210.487 267.848 218.568 267.731 226.647ZM234.791 235.769C234.839 236.185 235.515 236.379 235.6 235.879C236.418 231.037 236.924 226.259 238.134 221.473C238.683 219.302 239.581 217.255 240.165 215.1C240.698 213.128 240.512 211.011 241.219 209.112C244.106 208.042 247.026 206.959 250.034 205.843C250.279 218.354 250.511 230.263 250.745 242.17C244.835 244.073 239.14 245.909 232.682 247.989C231.875 236.248 231.09 224.856 230.284 213.165C233.598 211.936 236.907 210.709 240.267 209.465C239.824 210.874 239.832 212.255 239.48 213.772C238.895 216.294 237.694 218.658 237.032 221.169C235.823 225.756 234.245 230.985 234.791 235.769ZM232.508 252.563C238.231 250.386 243.922 248.122 249.625 245.892C250.254 245.647 250.892 245.406 251.545 245.246C254.598 244.499 254.735 244.399 254.619 241.087C254.383 234.383 254.108 227.679 253.796 220.978C253.644 217.692 253.412 214.408 253.14 211.13C252.982 209.223 252.67 207.328 252.376 205.022C253.364 204.679 254.569 204.261 256.01 203.761C256.16 207.815 256.25 211.446 256.441 215.07C256.858 223 257.364 230.926 257.756 238.858C257.885 241.455 257.777 244.065 257.777 246.784C246.998 250.884 236.911 255.627 225.491 257.401C223.99 243.593 224.578 229.721 223.408 215.654C224.898 215.109 226.453 214.539 228.548 213.773C228.671 220.59 228.681 227.011 228.933 233.423C229.18 239.758 229.669 246.083 230.064 252.596C231.016 252.597 231.851 252.813 232.508 252.563ZM328.088 181.252C330.108 180.477 332.182 179.682 334.447 178.814C333.173 180.495 331.522 182.029 330.36 183.583C329.82 184.306 329.035 185.212 328.38 186.193C328.282 184.562 328.183 182.92 328.088 181.252ZM328.494 188.076C329.451 185.917 331.127 183.911 332.535 182.172C333.525 180.949 334.716 179.728 335.618 178.367C335.699 178.336 335.774 178.307 335.855 178.275C335.907 179.705 335.932 181.128 335.968 182.555C335.216 183.527 334.338 184.363 333.551 185.392C332.832 186.332 332.352 187.45 331.692 188.432C330.815 189.74 329.72 190.961 328.744 192.246C328.663 190.866 328.579 189.472 328.494 188.076ZM328.837 193.878C330.228 191.99 331.735 190.194 332.968 188.185C333.873 186.708 335.004 185.431 336.007 184.068C336.047 185.99 336.077 187.907 336.096 189.821C334.428 192.924 332.276 195.891 330.349 198.758C330.018 199.251 329.609 199.776 329.177 200.319C329.077 198.181 328.962 196.034 328.837 193.878ZM331.932 197.831C333.253 195.523 334.861 193.283 336.11 190.897C336.129 192.97 336.141 195.041 336.145 197.107C335.304 199.236 333.361 201.108 332 202.878C331.207 203.91 330.272 205.035 329.43 206.216C329.371 204.816 329.324 203.416 329.263 202.016C329.262 201.985 329.259 201.954 329.258 201.921C330.198 200.593 331.121 199.251 331.932 197.831ZM339.888 277.177C339.78 275 339.651 272.883 339.572 270.763C339.361 265.078 339.223 259.391 338.94 253.709C338.853 251.962 338.396 250.232 337.908 248.522C335.816 258.43 337.714 268.46 336.673 279.009C334.743 277.568 332.947 276.561 331.635 275.117C330.928 274.339 330.857 272.815 330.824 271.619C330.621 264.225 330.483 256.829 330.377 249.433C330.268 241.925 330.3 234.414 330.125 226.908C329.978 220.631 329.755 214.355 329.504 208.081C331.286 205.562 333.178 203.114 335.012 200.64C335.43 200.077 335.815 199.517 336.148 198.949C336.149 201.009 336.15 203.065 336.149 205.119C334.96 207.212 333.713 209.303 332.74 211.483C332.084 212.951 331.493 214.428 330.786 215.866C330.366 216.721 330.277 216.933 330.445 217.892C330.527 218.36 331.229 218.225 331.244 217.784C331.28 216.785 332.321 215.532 332.723 214.637C333.255 213.454 333.625 212.221 334.189 211.047C334.807 209.758 335.474 208.489 336.147 207.222C336.143 217.32 336.189 227.351 336.8 237.367C337.102 237.382 337.404 237.396 337.706 237.41C337.821 236.005 338.14 234.582 338.017 233.197C337.455 226.836 337.765 220.507 337.975 214.131C338.339 203.09 337.913 192.025 337.778 180.968C337.778 180.964 337.778 180.958 337.778 180.953C337.775 180.633 337.769 180.315 337.765 179.995C337.759 179.43 337.7 178.864 337.636 177.845C340.547 176.694 343.544 175.51 346.803 174.222C346.803 178.061 347.182 181.568 346.732 184.965C345.439 194.7 345.226 204.455 345.428 214.244C345.515 218.45 345.663 222.666 345.48 226.865C344.882 240.656 346.326 254.375 346.77 268.127C346.963 274.034 348.33 275.016 339.888 277.177ZM355.926 161.384C356 163.759 355.943 166.138 355.943 168.766C354.96 169.087 354.027 169.416 353.08 169.697C346.109 171.775 339.032 173.551 332.18 175.97C313.812 182.455 295.079 187.69 276.388 193.118C264.052 196.702 251.964 201.158 239.824 205.393C229.512 208.989 219.222 212.666 209.034 216.598C192.128 223.123 174.727 228.059 157.389 233.216C143.867 237.239 130.414 241.495 116.93 245.641C114.666 246.336 112.395 247.007 109.789 247.79C109.789 245.761 109.841 244.067 109.773 242.38C109.71 240.805 109.518 239.237 109.383 237.678C118.184 234.921 126.827 232.158 135.505 229.513C143.986 226.928 152.616 224.785 160.975 221.859C170.13 218.656 179.544 216.486 188.861 213.934C195.481 212.121 201.723 209.415 207.904 206.51C208.173 206.384 208.377 206.118 209.274 205.348C204.354 206.687 200.203 207.788 196.067 208.947C187.197 211.434 178.329 213.93 169.472 216.464C159.965 219.185 150.421 221.793 140.986 224.747C131.659 227.667 122.439 230.93 113.196 234.111C111.417 234.723 109.846 234.847 107.944 234.328C103.119 233.012 98.172 232.151 93.3041 230.983C89.66 230.109 86.0302 229.145 82.4494 228.042C71.0388 224.527 59.7726 220.465 48.2237 217.493C36.7105 214.528 25.6841 210.377 14.6027 206.218C6.84579 203.306 -1.17477 201.098 -9.05934 198.518C-14.1396 196.855 -19.1351 194.911 -24.2583 193.402C-32.8729 190.866 -41.5602 188.578 -50.2142 186.176C-50.8583 185.997 -51.4822 185.742 -52.3219 185.45C-47.9025 183.924 -43.724 182.483 -40.0955 181.231C-38.002 182.265 -36.4883 183.229 -34.8387 183.794C-34.816 183.802 -34.7922 183.81 -34.7695 183.818C-34.8101 183.936 -34.8566 184.052 -34.8769 184.181C-34.9234 184.48 -34.5464 184.812 -34.3007 184.516C-34.179 184.369 -34.0538 184.237 -33.9285 184.105C-30.8678 185.153 -27.8082 186.199 -24.7521 187.258C-25.2841 188.007 -25.8627 188.626 -26.4853 188.979C-26.706 189.105 -26.5581 189.491 -26.3088 189.399C-25.4404 189.083 -24.677 188.38 -24.0066 187.519C-14.2994 190.89 -4.64469 194.399 4.80725 198.514C11.864 201.586 19.4635 203.406 26.8113 205.818C37.3022 209.261 47.8873 212.355 58.7086 214.592C60.9368 215.052 63.196 215.359 65.423 215.819C69.537 216.669 73.6189 217.689 77.7497 218.44C83.4538 219.477 89.1721 220.482 94.9239 221.175C96.7525 221.395 98.7338 220.689 100.599 220.223C115.407 216.524 129.859 211.667 144.356 206.934C155.605 203.26 166.95 199.871 178.29 196.481C199.871 190.028 221.473 183.645 243.079 177.273C252.624 174.458 261.529 170.205 270.612 165.402C272.041 153.921 270.353 142.389 270.147 130.862C270.371 130.783 270.607 130.601 270.762 130.655C280.658 134.05 290.522 137.54 300.445 140.851C308.208 143.442 315.953 146.172 323.875 148.174C331.02 149.979 338.396 150.87 345.666 152.184C347.218 152.464 348.756 152.83 351.115 153.327C349.872 153.858 349.382 154.167 348.85 154.28C340.228 156.119 332.143 159.513 324.038 162.839C313.824 167.029 303.445 170.745 293.02 174.385C281.218 178.506 269.706 183.46 258.08 188.082C257.164 188.446 256.345 189.054 255.679 190.158C258.851 189.277 262.089 188.577 265.189 187.487C288.369 179.335 311.691 171.574 334.409 162.143C338.798 160.32 343.487 159.21 348.062 157.849C349.582 157.397 351.266 157.404 352.709 156.803C353.978 156.274 355.017 155.189 356.329 154.222C358.026 156.805 355.853 159.049 355.926 161.384Z" fill="#EFEFEF"/>
<path d="M116.929 152.173C118.363 151.819 119.822 151.558 121.245 151.162C133.917 147.636 146.737 144.605 159.023 139.777C161.797 138.687 162.022 138.726 162.016 135.972C162.007 132.222 162.019 128.469 161.908 124.721C161.751 119.384 161.479 114.048 161.283 108.71C161.232 107.3 161.276 105.887 161.276 104.206C159.265 104.3 157.54 104.175 155.902 104.498C152.002 105.266 148.117 106.15 144.272 107.16C137.466 108.946 130.702 110.888 123.905 112.71C121.164 113.445 118.372 113.992 115.624 114.704C112.961 115.394 112.682 115.751 112.505 118.396C112.437 119.415 112.546 120.444 112.511 121.466C112.398 124.866 112.305 128.268 112.115 131.664C111.798 137.339 111.34 143.007 111.1 148.685C111.032 150.311 111.516 151.96 111.737 153.529C113.979 152.94 115.449 152.538 116.929 152.173ZM159.142 107.255C158.969 116.543 158.802 125.529 158.635 134.515C158.417 134.515 158.2 134.516 157.981 134.516C157.928 133.869 157.849 133.223 157.824 132.575C157.529 125.091 157.307 117.603 156.909 110.124C156.812 108.313 157.08 107.248 159.142 107.255ZM156.048 107.863C156.048 117.603 156.048 126.938 156.048 136.263C151.461 137.369 146.979 138.451 142.315 139.576C140.821 130.22 143.421 120.827 140.85 111.048C146.054 109.958 150.897 108.943 156.048 107.863ZM139.364 111.398C139.582 112.908 139.951 114.19 139.921 115.464C139.79 120.902 139.494 126.335 139.352 131.772C139.261 135.271 139.335 138.774 139.335 142.668C137.998 142.993 136.812 143.281 135.243 143.663C134.96 141.156 134.517 138.941 134.497 136.722C134.441 130.492 134.579 124.262 134.595 118.031C134.6 116.351 134.441 114.672 134.347 112.788C135.939 112.346 137.429 111.933 139.364 111.398ZM114.566 125.294C114.628 123.593 114.573 121.888 114.57 120.186C114.564 117.188 114.776 116.834 117.609 116.248C122.596 115.215 127.6 114.263 133.418 113.116C132.995 123.506 132.591 133.443 132.177 143.61C126.384 145.236 120.316 146.939 114.045 148.698C113.922 148.096 113.71 147.58 113.728 147.07C113.992 139.811 114.3 132.554 114.566 125.294Z" fill="#EFEFEF"/>
<path d="M118.05 96.9827C125.863 94.9739 133.787 93.3374 141.486 90.9696C148.185 88.9096 155.076 87.4102 161.517 84.477C164.683 83.0349 164.77 83.2723 164.732 80.1745C164.689 76.6521 164.76 73.1261 164.652 69.6049C164.445 62.9251 164.146 56.2477 163.861 48.9177C162.772 48.9177 161.639 48.7293 160.593 48.95C155.488 50.0247 150.377 51.0935 145.324 52.3865C139.823 53.794 134.404 55.5176 128.912 56.9645C125.512 57.8604 122.03 58.4425 118.609 59.2643C115.652 59.974 115.33 60.4261 115.208 63.4404C115.167 64.4615 115.306 65.4885 115.272 66.5107C115.17 69.6848 115.071 72.8601 114.886 76.0295C114.55 81.817 114.091 87.5987 113.818 93.3886C113.737 95.1111 113.658 97.0005 115.148 98.3269C116.261 97.8009 117.113 97.2236 118.05 96.9827ZM161.87 51.9249C161.709 61.0488 161.55 70.0391 161.392 79.0282C161.183 79.0413 160.974 79.0545 160.765 79.0676C160.695 78.3865 160.589 77.7078 160.562 77.0255C160.257 69.5417 160.02 62.0543 159.632 54.5753C159.536 52.7133 159.994 51.8116 161.87 51.9249ZM158.784 52.5106C158.784 62.2989 158.784 71.5528 158.784 80.8795C154.279 81.9697 149.803 83.054 145.055 84.2039C143.548 74.8008 146.158 65.3334 143.616 55.6691C148.79 54.5908 153.704 53.5686 158.784 52.5106ZM142.15 56.033C142.352 57.598 142.685 58.8946 142.656 60.1816C142.551 64.8253 142.26 69.4654 142.163 74.1102C142.074 78.3996 142.144 82.6926 142.144 87.2241C140.825 87.5677 139.564 87.8969 137.923 88.3239C137.656 85.6031 137.25 83.2592 137.227 80.9117C137.17 74.9082 137.303 68.9035 137.315 62.9001C137.318 61.211 137.173 59.522 137.075 57.394C138.739 56.9479 140.232 56.5471 142.15 56.033ZM116.642 79.9169C116.775 74.5861 117.131 69.2626 117.272 63.9318C117.32 62.083 118.202 61.2957 119.868 60.9713C125.087 59.955 130.297 58.9017 135.844 57.796C136.657 68.1318 134.247 78.1229 135.311 88.1343C128.791 89.9545 122.811 91.6232 116.619 93.3505C116.619 88.7247 116.532 84.3184 116.642 79.9169Z" fill="#EFEFEF"/>
<path d="M74.8285 63.7073C67.5463 61.9037 60.27 60.0739 52.9914 58.2537C50.898 57.73 48.8106 57.1873 46.7124 56.6851C43.7387 55.973 40.7829 55.1308 37.7722 54.6406C34.5718 54.1193 33.4613 55.3014 33.4697 58.6234C33.484 63.9649 33.4733 69.3076 33.4733 74.649C33.3611 74.649 33.2478 74.6478 33.1357 74.6478C32.9711 80.1074 32.791 85.5646 32.649 91.0253C32.587 93.4158 32.6824 93.5589 35.2398 94.1195C38.6835 94.8734 42.157 95.4841 45.6007 96.2403C54.4777 98.1894 63.3404 100.211 72.221 102.145C74.6806 102.68 75.5323 101.915 75.6694 99.3656C75.9319 94.4809 76.1239 89.5904 76.4674 84.7117C76.8515 79.2677 77.2451 73.82 77.8785 68.4022C78.259 65.1363 78.0205 64.4981 74.8285 63.7073ZM51.5577 94.7708C51.0531 94.6622 50.607 94.704 50.4531 94.5119C48.1605 91.642 44.8111 91.376 41.5642 90.7915C40.0445 90.5184 38.5595 90.046 37.2819 89.7216C37.2819 87.281 37.2819 84.8691 37.2819 82.4656C38.6239 79.1579 40.2223 76.0542 42.0115 72.9433C43.5872 70.2034 44.5117 67.2905 45.5649 64.3621C45.6234 64.1987 45.4981 63.9852 45.3299 63.9494C45.1593 63.9136 44.99 63.8778 44.8194 63.8421C44.526 63.78 44.291 64.2237 44.6011 64.3585C44.8635 64.473 40.4584 73.3357 39.9718 74.1027C38.9877 75.6534 37.9797 77.4224 37.2807 79.2712C37.2807 72.1847 37.2807 65.1863 37.2807 58.0902C42.955 58.2524 47.7919 60.5999 53.2503 61.6806C52.6825 72.8001 52.1243 83.724 51.5577 94.7708ZM54.0721 95.0117C53.5545 84.1093 54.5075 73.2546 55.3055 62.382C56.1381 64.0424 54.9942 90.8619 54.0721 95.0117ZM73.0858 97.3592C67.2731 95.8909 62.0522 94.5704 56.3886 93.139C56.719 83.3078 57.0602 73.1198 57.4097 62.7005C63.4108 64.0997 69.2377 65.4583 75.2138 66.8515C74.5171 76.8379 73.8253 86.7491 73.0858 97.3592Z" fill="#EFEFEF"/>
<path d="M72.2448 151.025C72.339 148.866 72.3235 146.7 72.4631 144.544C72.8806 138.072 73.3267 131.602 73.8122 125.136C73.9482 123.326 74.1795 121.515 74.5028 119.73C75.005 116.954 74.5076 116.081 71.7963 115.398C63.8664 113.395 55.9437 111.362 48.003 109.401C43.6027 108.314 39.2024 107.19 34.7472 106.381C31.0363 105.707 30.0093 106.837 30.0462 110.533C30.0987 115.759 30.0594 120.986 30.0594 126.212C29.8005 126.212 29.5417 126.212 29.2828 126.212C29.2828 131.328 29.3329 136.445 29.2661 141.56C29.2196 145.099 29.1361 145.153 32.4498 145.893C40.7638 147.754 49.0861 149.574 57.4108 151.384C61.1897 152.205 64.9745 153 68.7713 153.733C71.2917 154.219 72.1351 153.525 72.2448 151.025ZM48.139 146.447C47.669 146.28 47.0297 146.255 46.7673 145.928C44.8063 143.481 42.0174 143.066 39.1916 142.601C37.3248 142.293 35.4939 141.761 33.8478 141.377C33.8478 130.679 33.8478 120.388 33.8478 109.806C39.6234 109.782 44.4889 112.309 49.8388 113.301C49.265 124.512 48.708 135.362 48.139 146.447ZM50.7238 146.766C49.8722 142.334 51.009 116.731 52.1779 114.006C52.6908 115.506 51.4181 144.173 50.7238 146.766ZM69.6385 148.999C64 147.545 58.8875 146.227 53.2013 144.76C52.6825 135.037 54.1282 124.82 53.8109 114.298C60.0267 115.737 65.8465 117.085 71.7999 118.464C71.0842 128.584 70.3757 138.59 69.6385 148.999Z" fill="#EFEFEF"/>
<path d="M93.8993 217.218C94.46 216.151 95.1112 215.289 95.3653 214.323C95.6206 213.358 95.4906 212.288 95.5084 211.264C95.7589 196.816 95.994 182.367 96.2707 167.918C96.3029 166.217 96.4758 164.509 96.7287 162.826C97.1629 159.934 97.9299 157.074 98.1613 154.17C98.568 149.068 98.7028 143.945 98.8937 138.828C98.9736 136.672 98.9068 134.512 98.9068 132.354C98.7183 132.351 98.5299 132.348 98.3402 132.345C98.0074 133.844 97.6758 135.342 97.3442 136.842C96.8384 135.6 96.8039 134.398 96.8445 133.196C97.151 124.096 97.6055 114.999 97.7582 105.896C97.9884 92.131 98.0659 78.3635 98.0766 64.5959C98.079 61.8238 97.4981 59.0504 97.1868 56.2783C96.8862 56.3117 96.5856 56.3439 96.285 56.3761C96.285 57.7371 96.2504 59.0982 96.2898 60.458C96.78 77.1921 96.4496 93.9155 95.4262 110.62C94.9109 119.022 93.8493 127.398 93.5284 135.804C92.926 151.605 92.6207 167.42 92.3094 183.232C92.1185 192.904 92.1232 202.581 92.0946 212.256C92.0922 213.889 91.8357 215.697 93.8993 217.218Z" fill="#EFEFEF"/>
<path d="M206.62 144.328C217.737 141.96 228.826 139.443 239.983 137.286C248.577 135.624 256.298 131.937 263.914 127.628C260.83 127.998 257.672 128.064 254.675 128.794C244.524 131.268 234.426 133.958 224.318 136.606C218.386 138.16 212.511 139.954 206.543 141.345C200.464 142.762 194.214 143.47 188.414 145.981C186.996 146.594 185.382 146.904 184.403 148.735C185.432 148.654 186.207 148.677 186.943 148.522C193.506 147.142 200.061 145.726 206.62 144.328Z" fill="#EFEFEF"/>
<path d="M100.645 69.7074C100.564 69.7062 100.481 69.7038 100.4 69.7026C100.4 74.0242 100.4 78.3458 100.4 82.6674C100.481 82.6722 100.564 82.677 100.645 82.6817C100.645 78.3566 100.645 74.0326 100.645 69.7074Z" fill="#EFEFEF"/>
<path d="M100.039 88.6465C99.9886 88.6477 99.9385 88.6477 99.8884 88.6489C99.8884 89.7105 99.8884 90.7733 99.8884 91.8349C99.9385 91.8349 99.9886 91.8337 100.039 91.8337C100.039 90.7709 100.039 89.7093 100.039 88.6465Z" fill="#EFEFEF"/>
<path d="M5.79262 73.9987C6.37233 71.1168 8.71981 67.988 10.1381 65.4688C11.7794 62.5523 13.1356 60.1631 13.212 56.7552C13.2227 56.3067 12.5559 56.3174 12.5225 56.7552C12.1754 61.2045 9.21485 65.0215 7.07135 68.8099C6.28766 70.1959 4.56998 72.2965 5.22842 73.9987C5.32385 74.2408 5.73059 74.31 5.79262 73.9987Z" fill="#EFEFEF"/>
<path d="M8.61832 76.0973C8.31653 76.2845 8.50739 76.7903 8.86523 76.6841C10.0294 76.3394 10.5042 75.2206 11.035 74.2007C12.0095 72.3279 13.3681 70.7844 14.4142 68.9701C15.3721 67.3097 15.9947 65.6123 17.0552 63.9889C17.9426 62.6303 19.1712 61.0438 19.5839 59.4669C19.6197 59.3321 19.5398 59.1401 19.3848 59.1174C19.1378 59.0805 18.8921 59.0435 18.6452 59.0065C18.3804 58.9671 18.273 59.319 18.5331 59.4132C18.8682 59.5349 16.9442 62.3714 16.5506 62.9285C15.7371 64.0807 14.9582 64.9133 14.3451 66.1789C13.3908 68.1483 12.2696 69.6071 11.1328 71.4488C10.2859 72.823 9.99603 75.2396 8.61832 76.0973Z" fill="#EFEFEF"/>
<path d="M41.3459 81.1855C40.9845 82.036 40.4919 85.5405 39.7404 85.8089C39.3563 85.946 39.379 86.6093 39.843 86.5711C40.0625 86.552 40.2819 86.5341 40.5014 86.5162C40.7126 86.4983 40.901 86.3814 40.9595 86.1667C41.9841 82.4523 43.8843 79.5728 45.5113 76.1649C46.2866 74.5403 47.4651 73.0218 48.1236 71.3518C48.6138 70.1101 48.6651 68.73 49.1148 67.4609C49.2245 67.1495 48.7319 66.942 48.5804 67.2354C47.854 68.6453 47.6965 70.2354 46.9224 71.6214C46.0528 73.1805 45.0735 74.5832 44.2731 76.1899C43.4095 77.9291 42.1093 79.3867 41.3459 81.1855Z" fill="#EFEFEF"/>
<path d="M58.6991 86.3852L59.3754 86.291C59.4685 86.2778 59.5448 86.1812 59.5686 86.0977C60.4334 83.1276 62.5245 79.7221 64.4795 77.3126C65.9407 75.5114 67.6989 73.9894 68.0401 71.5811C68.114 71.0586 67.3363 70.8141 67.2278 71.3568C66.6433 74.2506 63.7435 76.1961 62.2525 78.6653C61.4497 79.9953 60.5587 81.3062 59.8883 82.7113C59.5913 83.334 59.2513 85.7494 58.5858 85.9797C58.3245 86.0703 58.4343 86.4222 58.6991 86.3852Z" fill="#EFEFEF"/>
<path d="M62.3431 88.3382C61.5248 89.809 60.8533 91.0352 60.7793 92.7219C60.7626 93.1059 61.2755 93.1119 61.4008 92.8053C62.2584 90.6952 63.6087 88.8881 64.489 86.8054C65.2202 85.0758 65.6711 83.3307 66.7196 81.7431C68.5398 78.9841 70.6845 76.5519 71.2976 73.212C71.3919 72.7015 70.6189 72.4784 70.5127 72.9949C69.6766 77.0458 66.4178 79.4743 64.6512 83.0337C63.7864 84.7717 63.295 86.6265 62.3431 88.3382Z" fill="#EFEFEF"/>
<path d="M8.44057 109.071C7.96225 115.692 1.46613 121.117 2.03988 127.871C2.05777 128.079 2.39295 128.164 2.43469 127.924C3.581 121.38 9.06204 115.848 9.12049 109.071C9.12526 108.628 8.47158 108.638 8.44057 109.071Z" fill="#EFEFEF"/>
<path d="M14.9177 111.522C14.9117 113.06 13.1284 114.883 12.4557 116.303C11.6219 118.06 11.0302 119.759 9.99368 121.415C8.42393 123.925 7.03668 126.502 6.85298 129.505C6.83151 129.853 7.31936 129.874 7.42672 129.583C8.73286 126.029 10.7881 123.065 12.334 119.672C13.1404 117.901 13.565 116.153 14.6612 114.522C15.3864 113.444 15.767 112.846 15.7216 111.522C15.7049 111.007 14.9201 111.003 14.9177 111.522Z" fill="#EFEFEF"/>
<path d="M36.0366 135.305C36.726 133.524 38.1562 132.31 39.1212 130.714C40.1447 129.02 40.419 127.055 41.2182 125.27C41.9208 123.7 43.2544 122.52 43.8937 120.926C44.5701 119.243 44.3613 117.373 44.3028 115.61C44.2873 115.13 43.5525 115.127 43.5561 115.61C43.5633 116.94 43.7124 118.487 43.3438 119.785C42.9466 121.179 42.0245 122.019 41.2373 123.156C40.4512 124.291 40.0206 125.401 39.5661 126.697C38.817 128.837 37.9868 130.278 36.7105 132.085C35.959 133.149 35.5738 133.927 35.4628 135.227C35.433 135.58 35.9268 135.589 36.0366 135.305Z" fill="#EFEFEF"/>
<path d="M38.8075 141.008C38.8456 141.271 39.2369 141.188 39.25 140.949C39.3669 138.759 41.0631 137.015 41.9208 135.097C42.7593 133.219 43.1661 131.187 43.97 129.297C45.3561 126.042 47.5819 123.376 47.5819 119.696C47.5819 119.196 46.8554 119.211 46.8161 119.696C46.4606 123.98 43.2341 127.692 41.8742 131.741C40.9128 134.604 38.353 137.869 38.8075 141.008Z" fill="#EFEFEF"/>
<path d="M61.5452 127.639C62.1046 126.064 62.7022 124.639 62.8692 122.965C62.8859 122.801 62.645 122.79 62.5961 122.928C61.3615 126.419 59.9528 130.74 57.8284 133.766C56.5473 135.59 54.523 137.775 55.1791 140.185C55.2376 140.4 55.5835 140.363 55.5739 140.131C55.4654 137.254 58.9198 134.704 60.0578 132.242C60.7317 130.787 61.0096 129.145 61.5452 127.639Z" fill="#EFEFEF"/>
<path d="M65.5543 126.235C65.7022 128.863 62.7189 131.06 61.9102 133.515C61.3698 135.156 60.6625 136.612 59.8025 138.112C59.2478 139.081 58.9401 140.704 58.3162 141.575C58.0502 141.946 58.6037 142.293 58.9102 142.033C59.8514 141.237 59.9146 140.214 60.5193 139.133C61.4641 137.446 62.2943 136.113 62.8501 134.244C63.6589 131.526 66.759 129.188 66.4441 126.235C66.3857 125.678 65.5209 125.654 65.5543 126.235Z" fill="#EFEFEF"/>
<path d="M120.176 87.133C122.628 83.8468 123.529 80.4782 124.623 76.6445C125.675 72.9598 127.807 69.6831 128.372 65.8172C128.418 65.4963 127.971 65.3508 127.873 65.68C126.821 69.212 124.908 72.4052 123.727 75.868C123.039 77.8838 122.809 79.8866 121.901 81.8464C121.116 83.539 120.27 85.1445 119.695 86.9314C119.596 87.2356 120.009 87.356 120.176 87.133Z" fill="#EFEFEF"/>
<path d="M123.099 86.7602C122.386 88.0985 121.828 88.8262 122.179 90.3315C122.228 90.5403 122.589 90.5606 122.623 90.3315C122.896 88.4457 124.434 87.1037 125.219 85.4087C126.229 83.2318 126.632 80.8056 127.417 78.5476C128.894 74.294 130.975 70.3529 131.002 65.7486C131.006 65.1915 130.201 65.2118 130.149 65.7486C129.665 70.8932 127.158 75.1767 125.67 80.035C124.943 82.4076 124.269 84.5618 123.099 86.7602Z" fill="#EFEFEF"/>
<path d="M146.368 78.0811C148.436 71.9047 153.477 65.1461 152.826 58.3912C152.803 58.1538 152.492 58.161 152.462 58.3912C151.927 62.5195 150.24 66.0193 148.424 69.7158C147.12 72.3746 145.895 75.0012 145.832 78.0083C145.825 78.3268 146.274 78.3662 146.368 78.0811Z" fill="#EFEFEF"/>
<path d="M148.231 82.7222C148.036 83.0812 148.551 83.5332 148.825 83.1802C150.883 80.5357 151.33 76.5815 152.551 73.5004C153.387 71.3891 153.705 69.1084 154.675 67.0568C155.224 65.8949 155.499 65.4333 155.5 64.1129C155.5 63.5904 154.729 63.6 154.695 64.1129C154.593 65.716 153.711 66.4806 153.131 67.8643C152.361 69.6989 152.013 71.6694 151.231 73.5207C149.981 76.4789 149.746 79.9405 148.231 82.7222Z" fill="#EFEFEF"/>
<path d="M117.843 141.861C118.236 140.171 119.083 138.701 119.588 137.053C120.12 135.314 120.425 133.524 121.013 131.796C122.268 128.109 123.856 124.491 123.591 120.513C123.565 120.123 122.917 119.972 122.858 120.414C122.274 124.694 120.745 128.336 119.433 132.407C118.877 134.129 118.613 135.938 118.031 137.648C117.524 139.138 116.953 140.173 117.137 141.767C117.18 142.138 117.743 142.289 117.843 141.861Z" fill="#EFEFEF"/>
<path d="M120.54 144.281C120.611 144.482 120.941 144.524 120.992 144.281C121.966 139.665 123.628 135.398 125.181 130.949C125.902 128.883 127.381 126.876 127.884 124.776C128.027 124.178 127.932 123.559 128.038 122.966C128.293 121.53 129.016 120.504 129.238 119.128C129.27 118.927 129.189 118.663 128.952 118.623C128.71 118.584 128.467 118.544 128.225 118.505C127.743 118.426 127.524 119.142 128.019 119.253C127.987 119.246 126.17 125.847 126.098 125.976C125.058 127.85 124.352 129.57 123.626 131.606C122.354 135.169 119.165 140.378 120.54 144.281Z" fill="#EFEFEF"/>
<path d="M144.729 135.298C145.819 131.662 147.184 128.24 148.463 124.669C149.113 122.853 149.663 121.072 150.457 119.307C151.038 118.016 151.475 117.061 151.455 115.608C151.447 115.034 150.579 115.034 150.564 115.608C150.512 117.686 149.188 119.238 148.463 121.075C147.685 123.045 147.046 125.038 146.195 126.985C145.062 129.581 143.559 132.409 144.213 135.297C144.272 135.565 144.656 135.541 144.729 135.298Z" fill="#EFEFEF"/>
<path d="M148.145 136.862C148.182 137.288 148.871 137.463 148.954 136.972C149.429 134.189 150.588 131.726 151.613 129.115C152.797 126.098 153.309 122.871 154.626 119.899C154.831 119.435 154.168 119.023 153.932 119.493C152.384 122.564 151.68 125.944 150.313 129.091C149.201 131.649 147.894 133.986 148.145 136.862Z" fill="#EFEFEF"/>
<path d="M239.721 234.951C239.957 230.37 241.602 225.258 243.192 220.981C243.95 218.943 244.359 217.079 244.77 214.99C245.076 213.439 245.672 213.359 245.474 211.935C245.4 211.405 244.479 211.525 244.533 212.063C244.615 212.879 244.046 213.066 243.874 213.723C243.596 214.786 243.629 215.958 243.363 217.02C242.787 219.319 241.69 221.478 240.991 223.742C239.92 227.214 238.322 231.383 238.874 235.064C238.949 235.567 239.697 235.411 239.721 234.951Z" fill="#EFEFEF"/>
<path d="M9.09189 169.718C13.4493 163.605 18.409 157.822 21.347 150.842C21.4841 150.516 20.9151 150.272 20.7696 150.599C17.7076 157.471 12.5904 163.162 8.21755 169.207C5.69234 172.697 2.98938 176.016 0.353236 179.417C-1.78908 182.18 -3.36956 185.345 -5.38781 188.201C-5.59656 188.496 -5.13615 188.84 -4.89162 188.583C-2.2519 185.827 -0.626068 182.319 1.75242 179.353C4.28598 176.195 6.73964 173.018 9.09189 169.718Z" fill="#EFEFEF"/>
<path d="M19.6639 165.457C20.7899 163.89 22.0174 162.438 23.0253 160.79C24.2527 158.785 25.2476 156.706 27.0106 155.091C27.3445 154.786 26.8507 154.3 26.5167 154.597C23.8663 156.943 22.3454 160.392 20.2174 163.179C17.9188 166.191 15.8696 169.352 13.7344 172.48C11.3309 176.001 8.88915 179.513 6.34009 182.931C4.6582 185.187 2.8451 189.084 0.451097 190.546C0.160048 190.724 0.346126 191.208 0.687274 191.107C2.66021 190.518 3.97112 187.971 5.09357 186.414C7.55079 183.003 10.0617 179.645 12.4461 176.179C14.8879 172.631 17.1506 168.953 19.6639 165.457Z" fill="#EFEFEF"/>
<path d="M25.2022 169.888C26.2853 167.893 28.2403 165.341 27.8217 162.953C27.7728 162.675 27.3254 162.741 27.3326 163.018C27.3994 165.592 24.8682 169.133 23.3915 171.164C21.5199 173.739 19.3001 175.932 17.7005 178.706C16.1141 181.458 14.0278 183.462 12.1109 185.932C10.9277 187.457 10.0199 191.818 7.88953 192.172C7.57343 192.224 7.65099 192.736 7.9647 192.727C10.051 192.668 10.9122 190.184 11.697 188.611C13.3038 185.392 16.3037 183.191 18.0846 180.034C20.1315 176.405 23.2221 173.532 25.2022 169.888Z" fill="#EFEFEF"/>
<path d="M28.0673 174.269C25.8606 177.825 22.7771 180.621 20.3843 184.052C18.409 186.883 14.7303 188.702 14.2341 192.371C14.1876 192.714 14.6671 192.875 14.7697 192.519C15.8242 188.864 19.5517 186.757 21.5712 183.63C23.6765 180.371 26.6681 177.975 28.7281 174.657C28.9906 174.236 28.3274 173.85 28.0673 174.269Z" fill="#EFEFEF"/>
<path d="M111.415 320.779C111.266 323.447 109.368 325.845 108.638 328.414C107.934 330.89 106.608 332.78 105.482 335.071C104.444 337.183 103.705 339.359 102.341 341.291C101.257 342.826 100.129 344.031 100.16 345.979C100.163 346.127 100.281 346.241 100.428 346.246L101.148 346.268C101.325 346.273 101.338 346.031 101.187 345.975C100.162 345.597 104.22 340.106 104.538 339.47C105.719 337.114 106.67 334.744 107.996 332.457C109.178 330.42 109.369 328.105 110.321 325.967C111.111 324.193 112.047 322.764 112.134 320.778C112.154 320.315 111.441 320.319 111.415 320.779Z" fill="#EFEFEF"/>
<path d="M138.262 244.761C138.309 244.395 137.666 244.304 137.613 244.672C137.268 247.033 135.196 249.416 134.047 251.509C133.152 253.14 132.109 254.683 131.217 256.313C129.657 259.163 128.507 263.251 125.526 264.947C125.244 265.107 125.432 265.565 125.748 265.472C128.934 264.535 130.29 259.924 131.62 257.294C132.714 255.131 134.055 253.094 135.206 250.957C136.296 248.937 137.961 247.08 138.262 244.761Z" fill="#EFEFEF"/>
<path d="M140.095 250.194C137.664 252.884 137.359 256.699 135.078 259.55C133.371 261.682 131.329 263.962 132.039 266.877C132.089 267.085 132.367 267.018 132.387 266.829C132.754 263.288 135.119 261.357 136.951 258.551C138.552 256.101 138.678 253.005 140.671 250.769C141.018 250.38 140.448 249.804 140.095 250.194Z" fill="#EFEFEF"/>
<path d="M189.804 241.71C191.647 238.622 193.241 235.411 195.38 232.503C196.325 231.218 197.391 230.028 198.342 228.749C199.322 227.43 200.151 225.097 201.734 224.491C201.905 224.425 201.897 224.146 201.689 224.152C200.718 224.179 200.335 224.466 199.696 225.188C198.214 226.866 197.017 228.896 195.582 230.643C192.955 233.845 190.433 237.465 189.008 241.373C188.835 241.847 189.558 242.124 189.804 241.71Z" fill="#EFEFEF"/>
<path d="M196.955 237.287C195.747 239.074 193.864 240.252 192.694 242.059C191.526 243.864 191.1 246.025 189.944 247.852C189.733 248.184 190.223 248.568 190.493 248.275C191.871 246.783 192.134 245.141 193.061 243.389C194.082 241.459 195.864 240.262 197.17 238.563C198.531 236.793 199.473 234.877 200.898 233.124C202.245 231.467 202.906 229.389 204.416 227.867C204.768 227.512 204.226 226.97 203.867 227.318C202.313 228.825 201.681 230.869 200.29 232.515C198.957 234.092 198.112 235.574 196.955 237.287Z" fill="#EFEFEF"/>
<path d="M201.375 242.124C200.487 243.875 199.6 245.758 198.285 247.239C197.984 247.576 197.617 247.865 197.385 248.26C197.124 248.706 197.21 249.202 196.716 249.409C196.469 249.513 196.459 249.951 196.786 249.927C197.007 249.918 197.226 249.895 197.445 249.859C197.606 249.838 197.736 249.764 197.786 249.599C198.145 248.428 199.111 247.624 199.779 246.61C200.639 245.305 201.325 243.895 202.004 242.491C202.205 242.072 201.587 241.703 201.375 242.124Z" fill="#EFEFEF"/>
<path d="M36.1331 184.951C37.5347 183.432 38.4186 181.565 39.8035 180.031C41.4567 178.202 43.3032 176.509 45.0376 174.754C45.4109 174.377 44.8312 173.798 44.4555 174.172C42.7068 175.91 40.8436 177.59 39.1713 179.401C37.8747 180.803 37.0218 182.526 35.7419 183.933C34.165 185.666 32.2016 187.06 30.6485 188.812C29.2851 190.351 28.7221 192.33 27.4148 193.916C27.2573 194.108 27.4589 194.441 27.6987 194.285C29.1038 193.372 29.5332 192.188 30.3957 190.822C31.8354 188.54 34.3189 186.917 36.1331 184.951Z" fill="#EFEFEF"/>
<path d="M52.4928 177.96C52.779 177.455 52.0037 177.002 51.7151 177.505C49.228 181.841 45.8833 185.683 42.3967 189.246C40.7041 190.977 38.7968 192.51 37.2031 194.337C35.7384 196.016 34.5324 197.906 33.1571 199.657C32.9949 199.864 33.243 200.125 33.4481 199.948C35.1479 198.493 36.4063 196.686 37.9081 195.044C39.782 192.994 41.9243 191.212 43.8197 189.181C47.0451 185.723 50.156 182.089 52.4928 177.96Z" fill="#EFEFEF"/>
<path d="M55.1718 187.198C52.7695 189.047 51.8021 191.745 50.5031 194.393C48.7556 197.958 46.2006 201.419 43.7291 204.506C43.5072 204.783 43.8674 205.171 44.1287 204.905C46.506 202.485 48.4574 199.523 50.2204 196.639C52.0347 193.671 52.7897 190.038 55.6537 187.822C56.0068 187.549 55.5309 186.922 55.1718 187.198Z" fill="#EFEFEF"/>
<path d="M68.0962 188.151C66.1364 191.269 62.6569 194.242 62.5341 198.168C62.5269 198.398 62.8525 198.426 62.9193 198.221C64.1456 194.472 66.7459 191.838 68.8071 188.567C69.091 188.117 68.3777 187.703 68.0962 188.151Z" fill="#EFEFEF"/>
<path d="M74.6257 191.728C75.0193 194.653 71.3132 196.12 71.3764 198.984C71.3848 199.356 71.9871 199.473 72.0539 199.076C72.5311 196.226 75.865 194.634 75.3557 191.526C75.2758 191.042 74.5624 191.257 74.6257 191.728Z" fill="#EFEFEF"/>
<path d="M154.458 169.252C154.158 169.068 153.785 169.436 153.972 169.736C154.471 170.538 154.997 171.442 155.162 172.386C155.432 173.93 154.012 173.877 152.912 173.958C151.772 174.041 150.663 174.382 150.51 172.862C150.369 171.464 151.263 170.137 151.362 168.74C151.395 168.282 150.693 168.291 150.654 168.74C150.498 170.489 148.923 172.581 150.087 174.301C150.829 175.397 152.554 175.018 153.673 174.98C155.049 174.932 156.334 174.39 156.356 172.802C156.373 171.653 155.44 169.852 154.458 169.252Z" fill="#EFEFEF"/>
<path d="M159.749 158.784C159.351 159.423 159.022 160.103 158.658 160.766C158.368 160.749 158.139 160.587 157.967 160.322C157.629 159.804 156.811 160.271 157.132 160.81C157.374 161.218 157.656 161.584 158.102 161.772C158.479 161.93 159.097 162.038 159.428 161.731C160.145 161.07 160.477 159.78 160.282 158.853C160.229 158.598 159.874 158.582 159.749 158.784Z" fill="#EFEFEF"/>
<path d="M171.445 161.838C172.031 161.838 172.032 160.928 171.445 160.928C170.859 160.929 170.858 161.838 171.445 161.838Z" fill="#EFEFEF"/>
<path d="M232.581 154.555C232.138 154.826 231.879 155.687 231.322 155.565C231.409 155.416 231.496 155.267 231.583 155.118C231.935 154.515 231.004 153.972 230.648 154.572C230.467 154.878 230.286 155.184 230.104 155.49C229.99 155.684 230.008 155.998 230.189 156.151C230.782 156.649 231.548 156.858 232.26 156.458C232.797 156.156 233.478 155.29 233.04 154.676C232.936 154.53 232.748 154.454 232.581 154.555Z" fill="#EFEFEF"/>
<path d="M31.6375 16.2449C33.5006 17.5618 37.0684 17.0596 39.151 16.7817C41.1955 16.5097 43.2329 16.0374 45.2488 15.6056C48.4085 14.9305 50.8037 13.5611 53.713 12.2514C54.0101 12.1178 54.053 11.637 53.8192 11.4319C52.9043 10.6291 52.395 10.449 51.1926 10.6387C50.7775 10.7043 50.9111 11.3102 51.2868 11.3353C51.6029 11.4832 51.9202 11.6299 52.2363 11.7766C46.6658 14.2613 40.2222 16.7316 33.9921 15.8907C31.7782 15.5925 31.183 14.2016 33.5543 12.6844C35.0716 11.7134 37.0338 11.4033 38.749 10.9464C41.811 10.1305 45.5637 9.81442 48.0674 7.76276C48.1294 7.71147 48.0459 7.60173 47.9803 7.64944C45.7032 9.32178 41.7156 9.57705 38.9196 10.1854C36.8692 10.6327 34.5706 10.9166 32.7635 12.0808C31.3428 12.9969 29.8208 14.9603 31.6375 16.2449Z" fill="#EFEFEF"/>
<path d="M63.8556 16.4735C64.5999 16.4425 65.3669 16.4114 66.0874 16.2039C66.4058 16.112 66.3975 15.6624 66.0874 15.5669C65.6627 15.4345 65.2214 15.3821 64.7789 15.3737C64.8015 15.2735 64.8194 15.1709 64.8301 15.0683C64.8814 14.553 63.9904 14.4254 63.9176 14.9443C63.8806 15.2103 63.8305 15.3475 63.5896 15.4906C63.1542 15.7506 63.3188 16.4961 63.8556 16.4735Z" fill="#EFEFEF"/>
<path d="M71.7212 17.2063C72.2544 17.223 72.673 17.4592 73.0583 17.8195C73.3995 18.1379 73.978 17.7288 73.7204 17.3089C73.2611 16.5586 72.5955 16.2282 71.7212 16.202C71.0735 16.1805 71.0747 17.1861 71.7212 17.2063Z" fill="#EFEFEF"/>
<path d="M216.402 129.124C216.884 129.144 217.008 128.351 216.518 128.267C214.235 127.881 212.015 128.694 209.746 128.963C208.503 129.11 207.315 129.435 206.084 129.64C204.249 129.947 202.274 130.194 201.608 128.252C201.115 126.816 201.216 126.971 202.261 126.18C202.84 125.742 203.447 125.377 204.08 125.029C205.63 124.176 207.267 123.379 208.977 122.914C210.121 122.603 217.248 121.255 217.788 123.036C217.869 123.302 218.33 123.268 218.297 122.967C218.271 122.74 218.245 122.514 218.22 122.289C218.205 122.147 218.132 122.018 217.984 121.979C214.471 121.039 210.253 121.353 206.872 122.649C204.892 123.408 200.081 125.123 199.615 127.74C198.522 133.857 214.353 129.037 216.402 129.124Z" fill="#EFEFEF"/>
<path d="M226.49 127.615C227.51 127.679 228.582 127.661 229.568 127.367C229.877 127.275 229.878 126.832 229.568 126.739C228.582 126.444 227.51 126.427 226.49 126.49C226.116 126.452 225.939 126.753 225.957 127.053C225.939 127.354 226.116 127.653 226.49 127.615Z" fill="#EFEFEF"/>
<path d="M225.6 188.955C224.493 189.29 223.094 189.853 223.224 191.278C223.438 193.623 227.776 194.006 229.457 193.541C229.591 193.504 229.735 193.382 229.76 193.238C229.826 192.851 229.836 192.748 229.749 192.371C229.689 192.117 229.373 192.125 229.241 192.304C228.909 192.756 229.082 192.773 228.446 192.772C227.95 192.77 227.46 192.698 226.974 192.6C226.224 192.447 224.747 192.167 224.392 191.368C223.896 190.252 225.697 189.731 226.426 189.404C227.78 188.796 228.697 187.535 230.298 187.616C230.382 187.621 230.405 187.479 230.318 187.466C228.56 187.207 227.218 188.464 225.6 188.955Z" fill="#EFEFEF"/>
<path d="M21.6119 282.93C20.487 283.965 19.4683 285.013 18.8481 286.434C18.2218 287.867 18.0107 289.274 16.8429 290.422C16.7189 290.544 16.8847 290.778 17.0338 290.671C18.0334 289.951 18.5678 289.147 19.0234 288.019C19.7689 286.176 20.7602 284.871 22.1057 283.424C22.4134 283.095 21.9435 282.625 21.6119 282.93Z" fill="#EFEFEF"/>
<path d="M303.134 151.072C303.442 151.016 303.448 150.495 303.134 150.444C300.66 150.046 295.128 151.085 293.292 148.816C295.729 148.186 297.937 147.98 300.503 147.804C302.738 147.65 305.889 146.868 307.768 148.488C308.017 148.704 308.382 148.349 308.134 148.122C306.49 146.623 303.999 146.868 301.93 146.973C300.327 147.054 298.763 146.952 297.167 146.989C295.459 147.029 294.01 147.617 292.351 147.993C292.094 148.052 291.906 148.369 291.994 148.622C293.236 152.202 300.278 151.592 303.134 151.072Z" fill="#EFEFEF"/>
</svg>
