<svg width="198" height="171" viewBox="0 0 198 171" fill="none" xmlns="http://www.w3.org/2000/svg">
<path d="M71.36 140.73L71.53 135.9L77.7 135.88C78.18 135.88 79.14 135.22 79.24 134.75C79.34 134.28 78.61 133.24 78.06 133.24L71.5 133.18V127.53L82.65 127.52C83.21 127.52 84.12 126.94 84.25 126.48C84.38 126.02 83.67 124.87 83.14 124.86L71.49 124.78L71.44 118.99L77.69 118.92C78.21 118.92 79.12 118.29 79.21 117.82C79.3 117.35 78.62 116.3 78.1 116.3L71.47 116.23L71.5 110.49L82.97 110.46C83.47 110.46 84.23 109.59 84.27 109.12C84.31 108.65 83.41 107.75 82.85 107.75L71.53 107.77L71.45 102L77.71 101.97C78.24 101.97 79.18 101.32 79.22 100.84C79.28 100.11 78.43 99.3 77.69 99.3H71.47L71.48 93.53H82.86C83.46 93.53 84.25 92.65 84.26 92.18C84.27 91.71 83.47 90.83 82.98 90.83L71.47 90.79V84.97L77.99 84.89C78.45 84.89 79.26 83.94 79.22 83.49C79.18 83.04 78.37 82.27 77.86 82.26L71.45 82.17L71.47 76.61L82.59 76.57C83.33 76.57 84.27 75.86 84.25 75.23C84.23 74.4 83.43 73.75 82.61 73.75H71.45L71.49 67.93L77.93 67.84C78.33 67.84 79.02 67.2 79.17 66.86C79.35 66.45 78.73 65.27 78.2 65.25L71.48 65.11L71.46 59.39H82.63C83.18 59.4 84.16 58.75 84.24 58.27C84.33 57.76 83.62 56.75 83.08 56.75L71.43 56.67L71.5 50.96L77.98 50.9C78.44 50.9 79.25 49.98 79.23 49.52C79.21 48.99 78.23 48.21 77.68 48.21H71.47V42.45L82.63 42.43C83.05 42.43 83.89 41.98 84.14 41.64C84.43 41.24 83.85 39.8 83.24 39.79L71.48 39.75L71.45 34.12L77.98 34.02C78.44 34.02 79.26 33.08 79.22 32.62C79.18 32.16 78.33 31.39 77.81 31.39L71.49 31.33L71.44 25.66L82.83 25.59C83.34 25.59 84.19 24.8 84.24 24.33C84.29 23.86 83.51 22.91 83.01 22.91L71.45 22.87L71.43 17.13L77.64 17.11C78.13 17.11 79.12 16.5 79.18 16.03C79.24 15.56 78.63 14.67 78.22 14.48L71.51 14.18L92.99 0.119995V161.94L87.53 162.22L87.49 155.91C87.49 155.42 86.88 154.52 86.41 154.42C85.94 154.31 84.84 155.06 84.84 155.67L84.79 162.13L79.03 162.17L79 151.02C79 150.49 78.52 149.63 78.11 149.43C77.7 149.23 76.35 149.79 76.35 150.3L76.27 162.13L70.52 162.18L70.48 156.01" fill="white"/>
<path d="M197.77 170.46L154.78 165.62C130.41 162.87 106.18 162.34 81.64 162.88C63.52 163.28 46.13 165.37 28.22 167.22L0 170.14C10.92 167.08 23.81 164.63 33.87 159.7C32.97 158.94 32.59 158.56 32.6 157.79L33.01 126.12H44.5V123.63H32.97L33.05 96.77L62.83 96.86L62.76 104.74L52.45 104.77C52.09 104.77 51.59 105.55 51.67 105.8C51.76 106.06 52.39 106.59 52.74 106.59H62.75L62.82 117.91H52.21V120.4H62.77L62.84 134.94H50.49V137.44H62.76L62.78 147.28H50.49V149.77H62.77L62.87 159.45C64.93 159.49 66.68 159.4 68.78 158.95L93.65 158.14C95.25 158.45 96.57 158.46 98.28 158.12L98.77 79.09L99.02 59.14L122.22 59.16L122.19 74L111.7 74.09C111.35 74.09 110.7 74.25 110.42 74.37C110.06 74.52 110.53 75.96 111 75.96L122.04 76.11L122.07 92.3L108.67 92.22C108.39 93.47 108.39 95.16 108.67 96.51L121.99 96.6L121.97 111.33L111.12 111.42C110.7 111.42 110.15 112.35 110.26 112.64C110.4 113.02 111.16 113.38 111.68 113.39L122.04 113.56L121.97 129.91H110.47C109.96 129.93 110 131.85 110.66 131.85L121.93 131.94L121.87 146.66L110.43 146.77C109.98 146.77 110.03 148.63 110.48 148.63L121.77 148.76L121.88 159.07L128.23 159.38L128.4 136.76L141.48 136.85V132.61L128.34 132.58L128.43 116.39L137.41 116.37L137.73 115.16C137.82 114.8 136.7 114.39 136.25 114.38L128.47 114.29L128.6 107.8L160.58 107.96L160.55 120.98H149.59C148.7 120.98 147.98 121.7 147.98 122.59C147.98 123.24 148.35 123.79 148.89 124.04C148.89 124.04 148.93 124.09 148.95 124.1H149.01L160.51 124.14V124.21L160.43 138.75H149.59C148.7 138.75 147.98 139.48 147.98 140.36C147.98 141.24 148.71 141.97 149.59 141.97H160.4L160.46 149.83H149.59C148.7 149.83 147.98 150.56 147.98 151.44C147.98 152.32 148.71 153.05 149.59 153.05H160.36L160.38 160.77L183.56 166.38L197.76 170.45L197.77 170.46Z" fill="white"/>
<path d="M128.65 103.09V85.51L136.67 85.31C136.94 85.31 137.86 85.09 137.82 84.83L137.61 83.65L128.62 83.6L128.7 59.49L158.22 73.55C159.48 74.15 160.33 75.13 160.34 76.58L160.5 84.62L160.69 103.22L128.64 103.08L128.65 103.09Z" fill="white"/>
<path d="M55.52 82.6V86.4H62.84L62.78 92.32L32.93 92.16L33.24 63.75C33.27 61.78 34.09 60.25 36.21 59.62L59.65 47.06C60.52 46.59 62.75 45.44 62.8 46.82L62.89 69.12L49.41 69.21C49.34 70.45 49.35 71.4 49.46 72.48L62.87 72.57L62.84 82.6H55.53H55.52Z" fill="white"/>
<path d="M108.48 35.15L108.44 39.43L122.18 39.49L122.21 54.58L98.93 54.52L98.38 0L120.16 13.2C121.77 13.9 122.5 15.41 122.4 17.13L122.21 35.18L108.48 35.15Z" fill="white"/>
<path d="M160.52 124.13V124.2H149.6C149.39 124.2 149.2 124.17 149.02 124.09L160.52 124.13Z" fill="white"/>
</svg>
