<svg width="387" height="224" viewBox="0 0 387 224" fill="none" xmlns="http://www.w3.org/2000/svg">
<path opacity="0.18" d="M-290.249 224L-324.244 210.585L-237.436 176.335L-150.628 210.591L-184.611 224H-180.882L-148.764 211.326L-116.647 224H-112.918L-146.9 210.59L-60.221 176.386L26.4567 210.59L-7.52631 224H-3.79599L28.3199 211.326L60.4388 224H64.1691L30.187 210.59L116.995 176.335L203.803 210.59L169.82 224H173.549L205.667 211.326L237.785 224H241.514L207.532 210.59L294.34 176.33L381.148 210.585L347.15 224H350.881L383.011 211.321L387 212.895V211.423L384.876 210.585L387 209.747V208.275L383.011 209.85L296.203 175.594L382.882 141.39L386.999 143.015V141.543L384.746 140.654L386.999 139.765V138.293L382.882 139.918L296.074 105.663L382.868 71.4128L386.998 73.0427V71.5608L206.597 0.372944L205.665 0L-327.055 210.217L-328 210.585L-294.004 224H-290.249ZM28.3209 209.854L-58.3568 175.65L28.4509 141.395L115.129 175.599L28.3209 209.854ZM30.3151 140.659L117.123 106.399L203.802 140.603L116.994 174.863L30.3151 140.659ZM118.987 105.663L205.666 71.459L292.344 105.663L205.666 139.867L118.987 105.663ZM205.666 209.854L118.858 175.599L205.666 141.339L292.474 175.594L205.666 209.854ZM381.015 140.654L294.338 174.858L207.53 140.603L294.208 106.399L381.015 140.654ZM381.003 70.6772L294.208 104.927L207.53 70.723L294.338 36.4677L381.003 70.6772ZM205.666 1.4819L292.474 35.7316L205.666 69.987L118.858 35.7316L205.666 1.4819ZM116.994 36.4681L203.802 70.7234L117.123 104.927L30.3151 70.672L116.994 36.4681ZM28.4509 71.4077L115.259 105.663L28.4509 139.923L-58.3568 105.668L28.4509 71.4077ZM-60.221 106.404L26.5867 140.659L-60.221 174.915L-147.029 140.659L-60.221 106.404ZM-148.895 141.395L-62.0872 175.65L-148.765 209.855L-235.573 175.599L-148.895 141.395Z" fill="#0163BE"/>
</svg>
